<svg width="120" height="120" viewBox="0 0 120 120" fill="none" xmlns="http://www.w3.org/2000/svg">
<path d="M38.7348 42.6C38.7348 41.1333 38.6681 39.7 38.5348 38.3C38.4681 36.9 38.2681 35.6 37.9348 34.4C37.6014 33.2 37.0681 32.1667 36.3348 31.3C35.6681 30.4333 34.7348 29.8333 33.5348 29.5C32.8014 29.3 32.0348 29.1333 31.2348 29C30.4348 28.8667 29.6681 28.7667 28.9348 28.7C28.5348 28.7 28.2348 28.5333 28.0348 28.2C27.8348 27.8667 27.7348 27.5 27.7348 27.1C27.7348 26.7 27.8348 26.3333 28.0348 26C28.2348 25.6667 28.5348 25.5 28.9348 25.5C31.2014 25.5 33.2348 25.5667 35.0348 25.7C36.8348 25.8333 38.9348 25.9 41.3348 25.9C44.0681 25.9 46.7681 25.8667 49.4348 25.8C52.1014 25.6667 54.8014 25.5667 57.5348 25.5C63.0014 25.5 68.0348 26.3667 72.6348 28.1C77.3014 29.8333 81.3014 32.2667 84.6348 35.4C87.9681 38.4667 90.5681 42.1667 92.4348 46.5C94.3681 50.7667 95.3348 55.4333 95.3348 60.5C95.3348 66.1 94.4348 70.9667 92.6348 75.1C90.8348 79.2333 88.3681 82.7 85.2348 85.5C82.1014 88.2333 78.3681 90.2667 74.0348 91.6C69.7681 92.9333 65.1348 93.6 60.1348 93.6C57.1348 93.6 54.2014 93.4667 51.3348 93.2C48.5348 92.9333 46.0014 92.8 43.7348 92.8C42.3348 92.8 41.0681 92.8333 39.9348 92.9C38.8014 92.9 37.7014 92.9333 36.6348 93C35.5681 93.0667 34.4681 93.1667 33.3348 93.3C32.2681 93.4333 31.0681 93.5667 29.7348 93.7C29.3348 93.7667 29.0014 93.6333 28.7348 93.3C28.5348 92.9667 28.4014 92.6 28.3348 92.2C28.2681 91.8 28.3348 91.4 28.5348 91C28.8014 90.6 29.2014 90.3667 29.7348 90.3C31.3348 90.1 32.7014 89.8333 33.8348 89.5C34.9681 89.1 35.9014 88.5667 36.6348 87.9C37.3681 87.2333 37.9014 86.3667 38.2348 85.3C38.5681 84.2333 38.7348 82.8333 38.7348 81.1V42.6ZM49.6348 74.2C49.6348 77.5333 49.7681 80.2 50.0348 82.2C50.3681 84.1333 50.9681 85.6 51.8348 86.6C52.7014 87.6 53.9348 88.2667 55.5348 88.6C57.2014 88.8667 59.4014 89 62.1348 89C65.1348 89 67.8681 88.3667 70.3348 87.1C72.8681 85.8333 75.0348 84 76.8348 81.6C78.6348 79.1333 80.0348 76.1333 81.0348 72.6C82.0348 69.0667 82.5348 65 82.5348 60.4C82.5348 55.5333 82.0348 51.2333 81.0348 47.5C80.0348 43.7 78.4014 40.5333 76.1348 38C73.8681 35.4 70.8348 33.4667 67.0348 32.2C63.3014 30.8667 58.7014 30.2 53.2348 30.2C51.9014 30.2 50.9681 30.4333 50.4348 30.9C49.9014 31.3667 49.6348 32.2667 49.6348 33.6V74.2Z" fill="white"/>
<path d="M40.9267 59.32C30.3718 60.9542 24.8579 69.7427 22.7718 77.3085C22.6736 77.6647 23.0361 77.7552 23.1687 77.4103C24.9123 72.8745 28.1584 69.1286 40.9267 67.24C55.3755 65.1029 58.9399 53.7258 58.9992 44.059C59.0015 43.6963 58.486 43.6651 58.4117 44.0201C57.2088 49.772 53.7873 57.3288 40.9267 59.32Z" fill="white"/>
</svg>
