<svg width="956" height="187" viewBox="0 0 956 187" fill="none" xmlns="http://www.w3.org/2000/svg">
<path d="M80.602 108C80.602 110.2 80.702 111.933 80.902 113.2C81.102 114.4 81.5353 115.333 82.202 116C82.9353 116.667 83.9353 117.167 85.202 117.5C86.4686 117.767 88.1686 118 90.302 118.2C90.702 118.267 91.002 118.5 91.202 118.9C91.4686 119.233 91.602 119.6 91.602 120C91.602 120.4 91.4686 120.767 91.202 121.1C91.002 121.433 90.6686 121.6 90.202 121.6C87.5353 121.6 84.9686 121.467 82.502 121.2C80.102 120.933 77.702 120.8 75.302 120.8C72.7686 120.8 70.1353 120.933 67.402 121.2C64.7353 121.467 62.302 121.6 60.102 121.6C59.702 121.6 59.402 121.433 59.202 121.1C59.002 120.767 58.902 120.4 58.902 120C58.902 119.6 59.002 119.233 59.202 118.9C59.402 118.5 59.702 118.267 60.102 118.2C62.1686 118 63.802 117.767 65.002 117.5C66.2686 117.167 67.2353 116.667 67.902 116C68.6353 115.333 69.102 114.4 69.302 113.2C69.5686 111.933 69.702 110.2 69.702 108V63.6C69.702 61.1333 69.0686 59.6 67.802 59C66.602 58.3333 64.5353 58 61.602 58C59.1353 58 57.102 58.2 55.502 58.6C53.902 58.9333 52.5686 59.6 51.502 60.6C50.502 61.5333 49.6686 62.8333 49.002 64.5C48.402 66.1667 47.8353 68.3333 47.302 71C47.2353 71.4 47.002 71.6667 46.602 71.8C46.2686 71.9333 45.902 72 45.502 72C45.1686 71.9333 44.8353 71.8 44.502 71.6C44.2353 71.4 44.102 71.1667 44.102 70.9C44.3686 68.4333 44.502 65.9333 44.502 63.4C44.5686 60.8 44.4353 58.2333 44.102 55.7C44.102 54.9667 44.5686 54.4667 45.502 54.2C46.4353 53.9333 47.4686 53.8 48.602 53.8H102.102C103.369 53.8 104.402 53.9333 105.202 54.2C106.069 54.4 106.502 54.8667 106.502 55.6C106.369 56.4 106.235 57.4 106.102 58.6C106.035 59.7333 106.002 61 106.002 62.4C106.002 63.8 106.035 65.2333 106.102 66.7C106.235 68.1667 106.369 69.5667 106.502 70.9C106.502 71.1667 106.335 71.4333 106.002 71.7C105.669 71.9 105.302 72.0333 104.902 72.1C104.502 72.1 104.102 72.0333 103.702 71.9C103.369 71.7667 103.169 71.5 103.102 71.1C102.702 68.4333 102.169 66.2667 101.502 64.6C100.835 62.8667 99.9353 61.5333 98.802 60.6C97.7353 59.6 96.402 58.9333 94.802 58.6C93.202 58.2 91.302 58 89.102 58C86.102 58 83.9353 58.3333 82.602 59C81.2686 59.6 80.602 61.1333 80.602 63.6V108ZM122.65 81.4C122.784 81.7333 122.95 81.7333 123.15 81.4C124.884 79.1333 127.017 77.3667 129.55 76.1C132.15 74.8333 134.717 74.2 137.25 74.2C142.917 74.2 146.984 75.7667 149.45 78.9C151.984 81.9667 153.25 86 153.25 91V109.5C153.25 111.233 153.284 112.633 153.35 113.7C153.484 114.767 153.717 115.633 154.05 116.3C154.45 116.9 155.05 117.367 155.85 117.7C156.65 117.967 157.75 118.233 159.15 118.5C159.55 118.567 159.85 118.767 160.05 119.1C160.25 119.433 160.35 119.767 160.35 120.1C160.35 120.433 160.25 120.733 160.05 121C159.85 121.333 159.584 121.5 159.25 121.5C158.317 121.5 156.884 121.367 154.95 121.1C153.084 120.9 151.15 120.8 149.15 120.8C147.017 120.8 144.917 120.9 142.85 121.1C140.784 121.367 139.017 121.5 137.55 121.5C137.15 121.5 136.85 121.333 136.65 121C136.45 120.733 136.35 120.433 136.35 120.1C136.35 119.7 136.45 119.367 136.65 119.1C136.85 118.767 137.184 118.567 137.65 118.5C139.184 118.3 140.35 118.033 141.15 117.7C142.017 117.367 142.617 116.867 142.95 116.2C143.35 115.533 143.584 114.667 143.65 113.6C143.784 112.533 143.85 111.167 143.85 109.5V94.4C143.85 92.7333 143.717 91.0667 143.45 89.4C143.25 87.7333 142.817 86.2333 142.15 84.9C141.55 83.5 140.65 82.3667 139.45 81.5C138.25 80.6333 136.65 80.2 134.65 80.2C132.517 80.2 130.684 80.6 129.15 81.4C127.684 82.2 126.45 83.1667 125.45 84.3C124.517 85.4333 123.817 86.6333 123.35 87.9C122.884 89.1667 122.65 90.2667 122.65 91.2V108.9C122.65 110.7 122.684 112.2 122.75 113.4C122.817 114.533 123.017 115.433 123.35 116.1C123.684 116.767 124.184 117.3 124.85 117.7C125.584 118.033 126.584 118.3 127.85 118.5C128.317 118.567 128.65 118.767 128.85 119.1C129.05 119.433 129.15 119.767 129.15 120.1C129.15 120.433 129.05 120.733 128.85 121C128.65 121.333 128.35 121.5 127.95 121.5C127.084 121.5 125.717 121.367 123.85 121.1C122.05 120.9 120.15 120.8 118.15 120.8C116.017 120.8 113.984 120.9 112.05 121.1C110.117 121.367 108.384 121.5 106.85 121.5C106.45 121.5 106.15 121.333 105.95 121C105.75 120.733 105.65 120.433 105.65 120.1C105.65 119.7 105.75 119.367 105.95 119.1C106.15 118.767 106.484 118.567 106.95 118.5C108.484 118.3 109.65 118.033 110.45 117.7C111.317 117.367 111.95 116.867 112.35 116.2C112.75 115.533 112.984 114.667 113.05 113.6C113.184 112.533 113.25 111.167 113.25 109.5V70.2C113.25 67.3333 113.184 65.0667 113.05 63.4C112.917 61.6667 112.584 60.3333 112.05 59.4C111.517 58.4667 110.717 57.8333 109.65 57.5C108.584 57.1667 107.117 56.9 105.25 56.7C104.917 56.7 104.65 56.5333 104.45 56.2C104.317 55.8667 104.217 55.5333 104.15 55.2C104.15 54.8667 104.217 54.5333 104.35 54.2C104.55 53.8667 104.85 53.7 105.25 53.7C107.184 53.5667 109.55 53.3667 112.35 53.1C115.15 52.8333 117.784 52.3333 120.25 51.6C121.184 51.3333 121.784 51.4 122.05 51.8C122.384 52.1333 122.584 52.5 122.65 52.9V81.4ZM173.73 95.5C173.397 95.5 173.197 95.6333 173.13 95.9C173.13 96.1 173.13 96.3667 173.13 96.7C173.13 100.167 173.497 103.1 174.23 105.5C175.03 107.9 176.097 109.867 177.43 111.4C178.83 112.867 180.463 113.933 182.33 114.6C184.263 115.267 186.33 115.6 188.53 115.6C190.797 115.6 192.997 115.433 195.13 115.1C197.263 114.7 199.097 113.867 200.63 112.6C200.963 112.333 201.297 112.233 201.63 112.3C202.03 112.367 202.33 112.533 202.53 112.8C202.797 113.067 202.963 113.367 203.03 113.7C203.097 114.033 203.03 114.333 202.83 114.6C200.697 117.4 198.297 119.333 195.63 120.4C192.963 121.467 189.663 122 185.73 122C181.73 122 178.263 121.4 175.33 120.2C172.463 119 170.063 117.333 168.13 115.2C166.263 113 164.863 110.467 163.93 107.6C163.063 104.667 162.63 101.5 162.63 98.1C162.63 94.8333 163.163 91.7333 164.23 88.8C165.363 85.8667 166.93 83.3333 168.93 81.2C170.93 79.0667 173.297 77.3667 176.03 76.1C178.763 74.8333 181.797 74.2 185.13 74.2C187.93 74.2 190.463 74.7 192.73 75.7C195.063 76.6333 197.03 77.9667 198.63 79.7C200.23 81.3667 201.463 83.4 202.33 85.8C203.263 88.1333 203.73 90.6667 203.73 93.4C203.73 94.8 203.23 95.5 202.23 95.5H173.73ZM192.03 92C192.963 92 193.497 91.6667 193.63 91C193.763 90.3333 193.83 89.5333 193.83 88.6C193.83 87.2 193.597 85.8667 193.13 84.6C192.73 83.2667 192.13 82.1 191.33 81.1C190.53 80.1 189.563 79.3 188.43 78.7C187.297 78.1 185.997 77.8 184.53 77.8C182.73 77.8 181.163 78.1333 179.83 78.8C178.563 79.4 177.463 80.2333 176.53 81.3C175.663 82.3 174.997 83.5 174.53 84.9C174.063 86.3 173.73 87.7667 173.53 89.3C173.397 90.1 173.33 90.7667 173.33 91.3C173.397 91.7667 173.563 92 173.83 92H192.03ZM239.332 70.6C239.332 69.1333 239.266 67.7 239.132 66.3C239.066 64.9 238.866 63.6 238.532 62.4C238.199 61.2 237.666 60.1667 236.932 59.3C236.266 58.4333 235.332 57.8333 234.132 57.5C233.399 57.3 232.632 57.1333 231.832 57C231.032 56.8667 230.266 56.7667 229.532 56.7C229.132 56.7 228.832 56.5333 228.632 56.2C228.432 55.8667 228.332 55.5 228.332 55.1C228.332 54.7 228.432 54.3333 228.632 54C228.832 53.6667 229.132 53.5 229.532 53.5C231.799 53.5 233.832 53.5667 235.632 53.7C237.432 53.8333 239.532 53.9 241.932 53.9C244.666 53.9 247.366 53.8667 250.032 53.8C252.699 53.6667 255.399 53.5667 258.132 53.5C263.599 53.5 268.632 54.3667 273.232 56.1C277.899 57.8333 281.899 60.2667 285.232 63.4C288.566 66.4667 291.166 70.1667 293.032 74.5C294.966 78.7667 295.932 83.4333 295.932 88.5C295.932 94.1 295.032 98.9667 293.232 103.1C291.432 107.233 288.966 110.7 285.832 113.5C282.699 116.233 278.966 118.267 274.632 119.6C270.366 120.933 265.732 121.6 260.732 121.6C257.732 121.6 254.799 121.467 251.932 121.2C249.132 120.933 246.599 120.8 244.332 120.8C242.932 120.8 241.666 120.833 240.532 120.9C239.399 120.9 238.299 120.933 237.232 121C236.166 121.067 235.066 121.167 233.932 121.3C232.866 121.433 231.666 121.567 230.332 121.7C229.932 121.767 229.599 121.633 229.332 121.3C229.132 120.967 228.999 120.6 228.932 120.2C228.866 119.8 228.932 119.4 229.132 119C229.399 118.6 229.799 118.367 230.332 118.3C231.932 118.1 233.299 117.833 234.432 117.5C235.566 117.1 236.499 116.567 237.232 115.9C237.966 115.233 238.499 114.367 238.832 113.3C239.166 112.233 239.332 110.833 239.332 109.1V70.6ZM250.232 102.2C250.232 105.533 250.366 108.2 250.632 110.2C250.966 112.133 251.566 113.6 252.432 114.6C253.299 115.6 254.532 116.267 256.132 116.6C257.799 116.867 259.999 117 262.732 117C265.732 117 268.466 116.367 270.932 115.1C273.466 113.833 275.632 112 277.432 109.6C279.232 107.133 280.632 104.133 281.632 100.6C282.632 97.0667 283.132 93 283.132 88.4C283.132 83.5333 282.632 79.2333 281.632 75.5C280.632 71.7 278.999 68.5333 276.732 66C274.466 63.4 271.432 61.4667 267.632 60.2C263.899 58.8667 259.299 58.2 253.832 58.2C252.499 58.2 251.566 58.4333 251.032 58.9C250.499 59.3667 250.232 60.2667 250.232 61.6V102.2ZM310.363 95.5C310.03 95.5 309.83 95.6333 309.763 95.9C309.763 96.1 309.763 96.3667 309.763 96.7C309.763 100.167 310.13 103.1 310.863 105.5C311.663 107.9 312.73 109.867 314.063 111.4C315.463 112.867 317.096 113.933 318.963 114.6C320.896 115.267 322.963 115.6 325.163 115.6C327.43 115.6 329.63 115.433 331.763 115.1C333.896 114.7 335.73 113.867 337.263 112.6C337.596 112.333 337.93 112.233 338.263 112.3C338.663 112.367 338.963 112.533 339.163 112.8C339.43 113.067 339.596 113.367 339.663 113.7C339.73 114.033 339.663 114.333 339.463 114.6C337.33 117.4 334.93 119.333 332.263 120.4C329.596 121.467 326.296 122 322.363 122C318.363 122 314.896 121.4 311.963 120.2C309.096 119 306.696 117.333 304.763 115.2C302.896 113 301.496 110.467 300.563 107.6C299.696 104.667 299.263 101.5 299.263 98.1C299.263 94.8333 299.796 91.7333 300.863 88.8C301.996 85.8667 303.563 83.3333 305.563 81.2C307.563 79.0667 309.93 77.3667 312.663 76.1C315.396 74.8333 318.43 74.2 321.763 74.2C324.563 74.2 327.096 74.7 329.363 75.7C331.696 76.6333 333.663 77.9667 335.263 79.7C336.863 81.3667 338.096 83.4 338.963 85.8C339.896 88.1333 340.363 90.6667 340.363 93.4C340.363 94.8 339.863 95.5 338.863 95.5H310.363ZM328.663 92C329.596 92 330.13 91.6667 330.263 91C330.396 90.3333 330.463 89.5333 330.463 88.6C330.463 87.2 330.23 85.8667 329.763 84.6C329.363 83.2667 328.763 82.1 327.963 81.1C327.163 80.1 326.196 79.3 325.063 78.7C323.93 78.1 322.63 77.8 321.163 77.8C319.363 77.8 317.796 78.1333 316.463 78.8C315.196 79.4 314.096 80.2333 313.163 81.3C312.296 82.3 311.63 83.5 311.163 84.9C310.696 86.3 310.363 87.7667 310.163 89.3C310.03 90.1 309.963 90.7667 309.963 91.3C310.03 91.7667 310.196 92 310.463 92H328.663ZM374.793 75.7C374.593 76.4333 374.393 77.3333 374.193 78.4C374.06 79.4667 373.993 80.6 373.993 81.8C373.993 83.0667 374.027 84.4 374.093 85.8C374.16 87.1333 374.193 88.1667 374.193 88.9C374.193 89.1 374.06 89.2667 373.793 89.4C373.527 89.5333 373.227 89.6333 372.893 89.7C372.56 89.7 372.26 89.6667 371.993 89.6C371.727 89.4667 371.56 89.3 371.493 89.1C370.76 85.5667 369.56 82.8667 367.893 81C366.227 79.0667 363.56 78.1 359.893 78.1C357.427 78.1 355.393 78.7333 353.793 80C352.193 81.2 351.393 82.8333 351.393 84.9C351.393 86.6333 352.06 87.9667 353.393 88.9C354.727 89.8333 356.493 90.7 358.693 91.5C359.627 91.8333 360.727 92.2667 361.993 92.8C363.327 93.2667 364.393 93.6667 365.193 94C366.927 94.8 368.527 95.6333 369.993 96.5C371.527 97.3667 372.827 98.4 373.893 99.6C375.027 100.733 375.893 102.033 376.493 103.5C377.16 104.967 377.493 106.667 377.493 108.6C377.493 111.133 376.96 113.267 375.893 115C374.827 116.667 373.46 118.033 371.793 119.1C370.127 120.1 368.227 120.833 366.093 121.3C363.96 121.767 361.86 122 359.793 122C358.06 122 356.127 121.8 353.993 121.4C351.86 121 349.993 120.433 348.393 119.7C347.993 119.567 347.56 119.633 347.093 119.9C346.693 120.167 346.427 120.667 346.293 121.4C346.293 121.6 346.127 121.733 345.793 121.8C345.527 121.867 345.227 121.9 344.893 121.9C344.627 121.9 344.36 121.833 344.093 121.7C343.827 121.633 343.693 121.5 343.693 121.3C343.693 120.767 343.76 120.033 343.893 119.1C344.027 118.167 344.093 117.3 344.093 116.5C344.093 115.7 344.027 114.833 343.893 113.9C343.827 112.9 343.727 111.933 343.593 111C343.527 110.067 343.46 109.233 343.393 108.5C343.327 107.767 343.293 107.233 343.293 106.9C343.293 106.633 343.427 106.433 343.693 106.3C343.96 106.167 344.26 106.1 344.593 106.1C344.927 106.033 345.227 106.067 345.493 106.2C345.827 106.267 346.027 106.433 346.093 106.7C346.56 108.633 347.16 110.333 347.893 111.8C348.627 113.267 349.527 114.5 350.593 115.5C351.727 116.5 353.06 117.267 354.593 117.8C356.193 118.267 358.093 118.5 360.293 118.5C362.693 118.5 364.627 117.833 366.093 116.5C367.627 115.167 368.393 113.3 368.393 110.9C368.393 108.767 367.627 107.1 366.093 105.9C364.627 104.633 362.893 103.533 360.893 102.6C359.96 102.2 358.993 101.8 357.993 101.4C357.06 101 356.093 100.6 355.093 100.2C353.627 99.6 352.16 99 350.693 98.4C349.293 97.7333 348.027 96.9333 346.893 96C345.827 95.0667 344.96 93.9 344.293 92.5C343.627 91.1 343.293 89.3667 343.293 87.3C343.293 84.9 343.793 82.8667 344.793 81.2C345.86 79.5333 347.193 78.2 348.793 77.2C350.46 76.1333 352.293 75.3667 354.293 74.9C356.293 74.4333 358.26 74.2 360.193 74.2C362.06 74.2 363.693 74.4333 365.093 74.9C366.56 75.3 368.16 76.0667 369.893 77.2C370.16 77.3333 370.493 77.3333 370.893 77.2C371.36 77 371.727 76.4333 371.993 75.5C372.06 75.2333 372.26 75.0667 372.593 75C372.927 74.9333 373.26 74.9333 373.593 75C373.927 75 374.227 75.0667 374.493 75.2C374.76 75.3333 374.86 75.5 374.793 75.7ZM394.842 108.9C394.842 110.567 394.875 111.967 394.942 113.1C395.008 114.233 395.242 115.167 395.642 115.9C396.042 116.633 396.642 117.2 397.442 117.6C398.308 118 399.508 118.3 401.042 118.5C401.442 118.567 401.742 118.767 401.942 119.1C402.142 119.367 402.242 119.7 402.242 120.1C402.242 120.433 402.142 120.733 401.942 121C401.742 121.333 401.442 121.5 401.042 121.5C399.842 121.5 398.275 121.367 396.342 121.1C394.408 120.9 392.442 120.8 390.442 120.8C388.308 120.8 386.208 120.9 384.142 121.1C382.142 121.367 380.208 121.5 378.342 121.5C378.008 121.5 377.742 121.333 377.542 121C377.342 120.733 377.242 120.433 377.242 120.1C377.242 119.7 377.342 119.367 377.542 119.1C377.742 118.767 378.042 118.567 378.442 118.5C380.175 118.3 381.508 118 382.442 117.6C383.442 117.2 384.142 116.667 384.542 116C385.008 115.267 385.275 114.4 385.342 113.4C385.408 112.333 385.442 111.033 385.442 109.5V93.4C385.442 90.5333 385.375 88.2333 385.242 86.5C385.108 84.7667 384.808 83.4667 384.342 82.6C383.875 81.6667 383.175 81.0333 382.242 80.7C381.308 80.3667 380.042 80.1 378.442 79.9C378.042 79.9 377.742 79.7333 377.542 79.4C377.342 79.0667 377.242 78.7333 377.242 78.4C377.242 78.0667 377.342 77.7333 377.542 77.4C377.742 77.0667 378.042 76.9 378.442 76.9C379.108 76.8333 379.908 76.7667 380.842 76.7C381.842 76.6333 382.875 76.5667 383.942 76.5C385.008 76.3667 386.075 76.2333 387.142 76.1C388.275 75.9 389.275 75.7 390.142 75.5C390.875 75.3667 391.442 75.2333 391.842 75.1C392.308 74.9 392.675 74.8 392.942 74.8C393.742 74.8 394.242 75.0333 394.442 75.5C394.708 75.9667 394.842 76.4 394.842 76.8V108.9ZM389.542 64.6C387.875 64.6 386.442 64.1 385.242 63.1C384.042 62.0333 383.442 60.7333 383.442 59.2C383.442 57.6667 384.008 56.3667 385.142 55.3C386.275 54.2333 387.675 53.7 389.342 53.7C390.942 53.7 392.242 54.2667 393.242 55.4C394.308 56.4667 394.842 57.7667 394.842 59.3C394.842 60.7667 394.342 62.0333 393.342 63.1C392.342 64.1 391.075 64.6 389.542 64.6ZM424.855 105.8C428.322 105.8 430.788 104.667 432.255 102.4C433.788 100.133 434.555 96.8333 434.555 92.5C434.555 90.3 434.422 88.3 434.155 86.5C433.955 84.7 433.522 83.1667 432.855 81.9C432.188 80.5667 431.288 79.5667 430.155 78.9C429.088 78.1667 427.688 77.8 425.955 77.8C423.822 77.8 422.088 78.2667 420.755 79.2C419.488 80.0667 418.488 81.2 417.755 82.6C417.022 84 416.522 85.5667 416.255 87.3C415.988 89.0333 415.855 90.7333 415.855 92.4C415.855 96.8 416.622 100.133 418.155 102.4C419.688 104.667 421.922 105.8 424.855 105.8ZM442.355 82.2C443.288 83.6 443.955 85.1 444.355 86.7C444.822 88.2333 445.088 89.8 445.155 91.4C445.155 94.3333 444.588 96.9333 443.455 99.2C442.388 101.4 440.888 103.267 438.955 104.8C437.088 106.333 434.922 107.5 432.455 108.3C429.988 109.1 427.355 109.5 424.555 109.5C423.755 109.5 422.722 109.533 421.455 109.6C420.188 109.667 418.955 109.8 417.755 110C416.555 110.2 415.522 110.533 414.655 111C413.855 111.4 413.455 112 413.455 112.8C413.455 113.4 413.788 113.9 414.455 114.3C415.122 114.7 415.922 115.033 416.855 115.3C417.855 115.5 418.822 115.667 419.755 115.8C420.755 115.867 421.555 115.9 422.155 115.9C426.955 116.233 431.255 116.667 435.055 117.2C438.855 117.667 442.055 118.467 444.655 119.6C447.322 120.733 449.355 122.3 450.755 124.3C452.155 126.367 452.855 129.033 452.855 132.3C452.855 135.167 452.288 137.833 451.155 140.3C450.022 142.767 448.322 144.9 446.055 146.7C443.788 148.5 440.988 149.9 437.655 150.9C434.388 151.967 430.588 152.5 426.255 152.5C422.655 152.5 419.355 152.167 416.355 151.5C413.355 150.9 410.755 149.933 408.555 148.6C406.422 147.267 404.755 145.567 403.555 143.5C402.422 141.433 401.855 138.967 401.855 136.1C401.855 134.433 402.088 132.9 402.555 131.5C403.022 130.167 403.655 128.967 404.455 127.9C405.255 126.833 406.155 125.867 407.155 125C408.155 124.2 409.188 123.533 410.255 123C408.722 122.467 407.322 121.733 406.055 120.8C404.788 119.8 404.155 118.233 404.155 116.1C404.155 114.567 404.488 113.267 405.155 112.2C405.888 111.133 406.822 110.267 407.955 109.6C409.155 108.933 410.455 108.467 411.855 108.2C413.322 107.867 414.755 107.667 416.155 107.6C416.222 107.6 416.255 107.567 416.255 107.5C416.255 107.433 416.222 107.4 416.155 107.4C412.755 106.067 410.088 104.233 408.155 101.9C406.222 99.5 405.255 96.3 405.255 92.3C405.255 89.5667 405.755 87.1 406.755 84.9C407.755 82.6333 409.155 80.7333 410.955 79.2C412.822 77.6 415.055 76.3667 417.655 75.5C420.255 74.6333 423.122 74.2 426.255 74.2C429.788 74.2 432.588 74.7 434.655 75.7C436.788 76.7 438.722 78 440.455 79.6C441.722 78.3333 443.222 77.2667 444.955 76.4C446.688 75.5333 448.622 75.1 450.755 75.1C451.488 75.1 452.288 75.1667 453.155 75.3C454.088 75.4333 454.922 75.7 455.655 76.1C456.455 76.4333 457.088 76.9 457.555 77.5C458.088 78.1 458.355 78.9 458.355 79.9C458.355 81.0333 458.055 82.0667 457.455 83C456.855 83.8667 455.688 84.3 453.955 84.3C452.688 84.3 451.855 84.0333 451.455 83.5C451.055 82.9667 450.755 82.4 450.555 81.8C450.355 81.2 450.122 80.6333 449.855 80.1C449.588 79.5667 448.955 79.3 447.955 79.3C446.888 79.3 445.822 79.5667 444.755 80.1C443.688 80.6333 442.888 81.3333 442.355 82.2ZM415.255 124.1C414.122 125.033 413.222 126.367 412.555 128.1C411.888 129.833 411.555 131.567 411.555 133.3C411.555 135.767 412.055 137.9 413.055 139.7C414.122 141.567 415.488 143.1 417.155 144.3C418.822 145.567 420.722 146.5 422.855 147.1C425.055 147.7 427.288 148 429.555 148C431.555 148 433.422 147.667 435.155 147C436.955 146.333 438.522 145.433 439.855 144.3C441.188 143.167 442.255 141.833 443.055 140.3C443.855 138.767 444.255 137.1 444.255 135.3C444.255 133.033 443.488 131.2 441.955 129.8C440.488 128.4 438.455 127.3 435.855 126.5C433.255 125.7 430.188 125.133 426.655 124.8C423.122 124.467 419.322 124.233 415.255 124.1ZM473.17 108.9C473.17 110.567 473.203 111.967 473.27 113.1C473.337 114.233 473.503 115.167 473.77 115.9C474.103 116.633 474.603 117.2 475.27 117.6C476.003 118 477.003 118.3 478.27 118.5C478.67 118.567 478.97 118.767 479.17 119.1C479.37 119.367 479.47 119.7 479.47 120.1C479.47 120.433 479.37 120.733 479.17 121C478.97 121.333 478.67 121.5 478.27 121.5C477.603 121.5 476.337 121.367 474.47 121.1C472.67 120.9 470.77 120.8 468.77 120.8C466.637 120.8 464.57 120.9 462.57 121.1C460.57 121.367 458.703 121.5 456.97 121.5C456.637 121.5 456.37 121.333 456.17 121C455.97 120.733 455.87 120.433 455.87 120.1C455.87 119.7 455.97 119.367 456.17 119.1C456.37 118.767 456.67 118.567 457.07 118.5C458.737 118.3 460.003 118.033 460.87 117.7C461.803 117.367 462.47 116.867 462.87 116.2C463.337 115.533 463.603 114.667 463.67 113.6C463.737 112.533 463.77 111.167 463.77 109.5V96.9C463.77 93.6333 463.737 90.9333 463.67 88.8C463.603 86.6 463.37 84.8667 462.97 83.6C462.57 82.3333 461.937 81.4667 461.07 81C460.203 80.4667 458.97 80.2 457.37 80.2C456.97 80.2 456.637 80.0667 456.37 79.8C456.17 79.5333 456.07 79.2333 456.07 78.9C456.07 78.5 456.17 78.1667 456.37 77.9C456.637 77.6333 456.97 77.5 457.37 77.5C458.637 77.5 460.47 77.3 462.87 76.9C465.337 76.5 467.837 75.9333 470.37 75.2C471.303 74.9333 472.003 75.1333 472.47 75.8C472.937 76.4 473.17 77.1 473.17 77.9V81.9C473.17 82.0333 473.203 82.1333 473.27 82.2C473.403 82.2 473.503 82.1333 473.57 82C474.037 81.2667 474.67 80.4667 475.47 79.6C476.337 78.6667 477.337 77.8 478.47 77C479.67 76.2 481.003 75.5333 482.47 75C483.937 74.4667 485.57 74.2 487.37 74.2C492.37 74.2 496.27 75.6 499.07 78.4C501.937 81.1333 503.37 85.6 503.37 91.8V108.9C503.37 110.7 503.403 112.167 503.47 113.3C503.603 114.433 503.837 115.367 504.17 116.1C504.57 116.767 505.137 117.3 505.87 117.7C506.67 118.033 507.77 118.3 509.17 118.5C509.57 118.567 509.87 118.767 510.07 119.1C510.27 119.367 510.37 119.7 510.37 120.1C510.37 120.433 510.27 120.733 510.07 121C509.87 121.333 509.57 121.5 509.17 121.5C508.303 121.5 506.87 121.367 504.87 121.1C502.937 120.9 500.97 120.8 498.97 120.8C496.837 120.8 494.803 120.9 492.87 121.1C490.937 121.367 489.337 121.5 488.07 121.5C487.737 121.5 487.47 121.333 487.27 121C487.07 120.733 486.97 120.433 486.97 120.1C486.97 119.7 487.07 119.367 487.27 119.1C487.47 118.767 487.77 118.567 488.17 118.5C489.637 118.3 490.737 118 491.47 117.6C492.27 117.2 492.837 116.667 493.17 116C493.57 115.267 493.803 114.4 493.87 113.4C493.937 112.333 493.97 111.033 493.97 109.5V94.3C493.97 92.6333 493.903 90.9667 493.77 89.3C493.637 87.6333 493.27 86.1333 492.67 84.8C492.07 83.4667 491.203 82.3667 490.07 81.5C488.937 80.6333 487.37 80.2 485.37 80.2C483.37 80.2 481.603 80.5333 480.07 81.2C478.603 81.8 477.337 82.6333 476.27 83.7C475.27 84.7667 474.503 86.0333 473.97 87.5C473.437 88.9 473.17 90.4 473.17 92V108.9ZM587.431 84.4C588.231 84.4 588.798 84.2667 589.131 84C589.531 83.7333 589.731 83.2 589.731 82.4V68.8C589.731 66.7333 589.598 64.9667 589.331 63.5C589.131 62.0333 588.698 60.8333 588.031 59.9C587.364 58.9667 586.398 58.2667 585.131 57.8C583.931 57.2667 582.298 56.9333 580.231 56.8C579.831 56.8 579.531 56.6333 579.331 56.3C579.131 55.9 579.031 55.5 579.031 55.1C579.031 54.7 579.131 54.3333 579.331 54C579.531 53.6667 579.831 53.5 580.231 53.5C582.364 53.5 584.798 53.6 587.531 53.8C590.264 54 592.831 54.1 595.231 54.1C596.631 54.1 597.931 54.0667 599.131 54C600.398 53.9333 601.598 53.8667 602.731 53.8C603.931 53.7333 605.131 53.6667 606.331 53.6C607.531 53.5333 608.831 53.5 610.231 53.5C610.631 53.5 610.898 53.6667 611.031 54C611.231 54.3333 611.298 54.7 611.231 55.1C611.231 55.5 611.131 55.9 610.931 56.3C610.731 56.6333 610.464 56.8 610.131 56.8C608.064 56.9333 606.398 57.2333 605.131 57.7C603.864 58.1 602.898 58.7667 602.231 59.7C601.564 60.5667 601.131 61.7333 600.931 63.2C600.731 64.6667 600.631 66.5333 600.631 68.8V108C600.631 110.2 600.764 111.933 601.031 113.2C601.298 114.4 601.764 115.367 602.431 116.1C603.164 116.767 604.164 117.267 605.431 117.6C606.698 117.867 608.331 118.1 610.331 118.3C610.731 118.367 611.031 118.567 611.231 118.9C611.498 119.233 611.631 119.6 611.631 120C611.631 120.4 611.498 120.767 611.231 121.1C611.031 121.433 610.698 121.6 610.231 121.6C607.564 121.6 604.998 121.467 602.531 121.2C600.131 120.933 597.731 120.8 595.331 120.8C592.798 120.8 590.164 120.933 587.431 121.2C584.764 121.467 582.331 121.6 580.131 121.6C579.731 121.6 579.431 121.433 579.231 121.1C579.031 120.767 578.931 120.4 578.931 120C578.931 119.6 579.031 119.233 579.231 118.9C579.431 118.567 579.731 118.367 580.131 118.3C582.198 118.1 583.831 117.867 585.031 117.6C586.298 117.267 587.264 116.767 587.931 116.1C588.664 115.367 589.131 114.4 589.331 113.2C589.598 111.933 589.731 110.2 589.731 108V91.4C589.731 89.6667 588.998 88.8 587.531 88.8H557.631C556.164 88.8 555.431 89.4667 555.431 90.8V108C555.431 110.2 555.564 111.933 555.831 113.2C556.098 114.4 556.564 115.367 557.231 116.1C557.964 116.767 558.964 117.267 560.231 117.6C561.498 117.867 563.131 118.1 565.131 118.3C565.531 118.367 565.831 118.567 566.031 118.9C566.298 119.233 566.431 119.6 566.431 120C566.431 120.4 566.298 120.767 566.031 121.1C565.831 121.433 565.498 121.6 565.031 121.6C562.364 121.6 559.798 121.467 557.331 121.2C554.931 120.933 552.531 120.8 550.131 120.8C547.598 120.8 544.964 120.933 542.231 121.2C539.564 121.467 537.131 121.6 534.931 121.6C534.531 121.6 534.231 121.433 534.031 121.1C533.831 120.767 533.731 120.4 533.731 120C533.731 119.6 533.831 119.233 534.031 118.9C534.231 118.567 534.531 118.367 534.931 118.3C536.998 118.1 538.631 117.867 539.831 117.6C541.098 117.267 542.064 116.767 542.731 116.1C543.464 115.367 543.931 114.4 544.131 113.2C544.398 111.933 544.531 110.2 544.531 108V68.8C544.531 66.7333 544.398 64.9667 544.131 63.5C543.931 62.0333 543.498 60.8333 542.831 59.9C542.164 58.9667 541.198 58.2667 539.931 57.8C538.731 57.2667 537.098 56.9333 535.031 56.8C534.631 56.8 534.331 56.6333 534.131 56.3C533.931 55.9 533.831 55.5 533.831 55.1C533.831 54.7 533.931 54.3333 534.131 54C534.331 53.6667 534.631 53.5 535.031 53.5C537.164 53.5 539.598 53.6 542.331 53.8C545.064 54 547.631 54.1 550.031 54.1C551.431 54.1 552.731 54.0667 553.931 54C555.198 53.9333 556.398 53.8667 557.531 53.8C558.731 53.7333 559.931 53.6667 561.131 53.6C562.331 53.5333 563.631 53.5 565.031 53.5C565.431 53.5 565.698 53.6667 565.831 54C566.031 54.3333 566.098 54.7 566.031 55.1C566.031 55.5 565.931 55.9 565.731 56.3C565.531 56.6333 565.264 56.8 564.931 56.8C562.864 56.9333 561.198 57.2333 559.931 57.7C558.664 58.1 557.698 58.7667 557.031 59.7C556.364 60.5667 555.931 61.7333 555.731 63.2C555.531 64.6667 555.431 66.5333 555.431 68.8V82.4C555.431 83.7333 556.164 84.4 557.631 84.4H587.431ZM629.041 108.9C629.041 110.567 629.074 111.967 629.141 113.1C629.208 114.233 629.441 115.167 629.841 115.9C630.241 116.633 630.841 117.2 631.641 117.6C632.508 118 633.708 118.3 635.241 118.5C635.641 118.567 635.941 118.767 636.141 119.1C636.341 119.367 636.441 119.7 636.441 120.1C636.441 120.433 636.341 120.733 636.141 121C635.941 121.333 635.641 121.5 635.241 121.5C634.041 121.5 632.474 121.367 630.541 121.1C628.608 120.9 626.641 120.8 624.641 120.8C622.508 120.8 620.408 120.9 618.341 121.1C616.341 121.367 614.408 121.5 612.541 121.5C612.208 121.5 611.941 121.333 611.741 121C611.541 120.733 611.441 120.433 611.441 120.1C611.441 119.7 611.541 119.367 611.741 119.1C611.941 118.767 612.241 118.567 612.641 118.5C614.374 118.3 615.708 118 616.641 117.6C617.641 117.2 618.341 116.667 618.741 116C619.208 115.267 619.474 114.4 619.541 113.4C619.608 112.333 619.641 111.033 619.641 109.5V93.4C619.641 90.5333 619.574 88.2333 619.441 86.5C619.308 84.7667 619.008 83.4667 618.541 82.6C618.074 81.6667 617.374 81.0333 616.441 80.7C615.508 80.3667 614.241 80.1 612.641 79.9C612.241 79.9 611.941 79.7333 611.741 79.4C611.541 79.0667 611.441 78.7333 611.441 78.4C611.441 78.0667 611.541 77.7333 611.741 77.4C611.941 77.0667 612.241 76.9 612.641 76.9C613.308 76.8333 614.108 76.7667 615.041 76.7C616.041 76.6333 617.074 76.5667 618.141 76.5C619.208 76.3667 620.274 76.2333 621.341 76.1C622.474 75.9 623.474 75.7 624.341 75.5C625.074 75.3667 625.641 75.2333 626.041 75.1C626.508 74.9 626.874 74.8 627.141 74.8C627.941 74.8 628.441 75.0333 628.641 75.5C628.908 75.9667 629.041 76.4 629.041 76.8V108.9ZM623.741 64.6C622.074 64.6 620.641 64.1 619.441 63.1C618.241 62.0333 617.641 60.7333 617.641 59.2C617.641 57.6667 618.208 56.3667 619.341 55.3C620.474 54.2333 621.874 53.7 623.541 53.7C625.141 53.7 626.441 54.2667 627.441 55.4C628.508 56.4667 629.041 57.7667 629.041 59.3C629.041 60.7667 628.541 62.0333 627.541 63.1C626.541 64.1 625.274 64.6 623.741 64.6ZM669.254 75.7C669.054 76.4333 668.854 77.3333 668.654 78.4C668.521 79.4667 668.454 80.6 668.454 81.8C668.454 83.0667 668.488 84.4 668.554 85.8C668.621 87.1333 668.654 88.1667 668.654 88.9C668.654 89.1 668.521 89.2667 668.254 89.4C667.988 89.5333 667.688 89.6333 667.354 89.7C667.021 89.7 666.721 89.6667 666.454 89.6C666.188 89.4667 666.021 89.3 665.954 89.1C665.221 85.5667 664.021 82.8667 662.354 81C660.688 79.0667 658.021 78.1 654.354 78.1C651.888 78.1 649.854 78.7333 648.254 80C646.654 81.2 645.854 82.8333 645.854 84.9C645.854 86.6333 646.521 87.9667 647.854 88.9C649.188 89.8333 650.954 90.7 653.154 91.5C654.088 91.8333 655.188 92.2667 656.454 92.8C657.788 93.2667 658.854 93.6667 659.654 94C661.388 94.8 662.988 95.6333 664.454 96.5C665.988 97.3667 667.288 98.4 668.354 99.6C669.488 100.733 670.354 102.033 670.954 103.5C671.621 104.967 671.954 106.667 671.954 108.6C671.954 111.133 671.421 113.267 670.354 115C669.288 116.667 667.921 118.033 666.254 119.1C664.588 120.1 662.688 120.833 660.554 121.3C658.421 121.767 656.321 122 654.254 122C652.521 122 650.588 121.8 648.454 121.4C646.321 121 644.454 120.433 642.854 119.7C642.454 119.567 642.021 119.633 641.554 119.9C641.154 120.167 640.888 120.667 640.754 121.4C640.754 121.6 640.588 121.733 640.254 121.8C639.988 121.867 639.688 121.9 639.354 121.9C639.088 121.9 638.821 121.833 638.554 121.7C638.288 121.633 638.154 121.5 638.154 121.3C638.154 120.767 638.221 120.033 638.354 119.1C638.488 118.167 638.554 117.3 638.554 116.5C638.554 115.7 638.488 114.833 638.354 113.9C638.288 112.9 638.188 111.933 638.054 111C637.988 110.067 637.921 109.233 637.854 108.5C637.788 107.767 637.754 107.233 637.754 106.9C637.754 106.633 637.888 106.433 638.154 106.3C638.421 106.167 638.721 106.1 639.054 106.1C639.388 106.033 639.688 106.067 639.954 106.2C640.288 106.267 640.488 106.433 640.554 106.7C641.021 108.633 641.621 110.333 642.354 111.8C643.088 113.267 643.988 114.5 645.054 115.5C646.188 116.5 647.521 117.267 649.054 117.8C650.654 118.267 652.554 118.5 654.754 118.5C657.154 118.5 659.088 117.833 660.554 116.5C662.088 115.167 662.854 113.3 662.854 110.9C662.854 108.767 662.088 107.1 660.554 105.9C659.088 104.633 657.354 103.533 655.354 102.6C654.421 102.2 653.454 101.8 652.454 101.4C651.521 101 650.554 100.6 649.554 100.2C648.088 99.6 646.621 99 645.154 98.4C643.754 97.7333 642.488 96.9333 641.354 96C640.288 95.0667 639.421 93.9 638.754 92.5C638.088 91.1 637.754 89.3667 637.754 87.3C637.754 84.9 638.254 82.8667 639.254 81.2C640.321 79.5333 641.654 78.2 643.254 77.2C644.921 76.1333 646.754 75.3667 648.754 74.9C650.754 74.4333 652.721 74.2 654.654 74.2C656.521 74.2 658.154 74.4333 659.554 74.9C661.021 75.3 662.621 76.0667 664.354 77.2C664.621 77.3333 664.954 77.3333 665.354 77.2C665.821 77 666.188 76.4333 666.454 75.5C666.521 75.2333 666.721 75.0667 667.054 75C667.388 74.9333 667.721 74.9333 668.054 75C668.388 75 668.688 75.0667 668.954 75.2C669.221 75.3333 669.321 75.5 669.254 75.7ZM687.103 105.6C687.103 109.333 687.503 112.1 688.303 113.9C689.169 115.7 690.703 116.6 692.903 116.6C694.436 116.6 695.869 116.367 697.203 115.9C698.603 115.433 699.669 114.933 700.403 114.4C700.603 114.267 700.836 114.267 701.103 114.4C701.369 114.467 701.603 114.633 701.803 114.9C702.003 115.1 702.136 115.333 702.203 115.6C702.336 115.867 702.336 116.1 702.203 116.3C700.936 118.367 699.269 119.833 697.203 120.7C695.203 121.567 692.836 122 690.103 122C685.569 122 682.369 121 680.503 119C678.636 116.933 677.703 113.733 677.703 109.4V83.7C677.703 82.9 677.669 82.2667 677.603 81.8C677.536 81.3333 677.336 81 677.003 80.8C676.669 80.6 676.103 80.5 675.303 80.5C674.569 80.4333 673.503 80.4 672.103 80.4C671.903 80.4 671.736 80.2 671.603 79.8C671.469 79.4 671.369 78.9667 671.303 78.5C671.303 78.0333 671.369 77.6 671.503 77.2C671.636 76.8 671.836 76.6 672.103 76.6C673.769 76.4667 675.203 76.2333 676.403 75.9C677.603 75.5 678.603 74.9 679.403 74.1C680.269 73.3 680.936 72.2333 681.403 70.9C681.936 69.5 682.369 67.7 682.703 65.5C682.769 65.1 683.036 64.8 683.503 64.6C683.969 64.4 684.469 64.3 685.003 64.3C685.536 64.3 686.003 64.4 686.403 64.6C686.869 64.7333 687.103 64.9333 687.103 65.2V73.8C687.103 74.8667 687.136 75.5 687.203 75.7C687.336 75.8333 687.769 75.9 688.503 75.9H698.903C699.369 75.9 699.669 76.1667 699.803 76.7C699.936 77.2333 700.003 77.7 700.003 78.1C700.003 78.5 699.903 79 699.703 79.6C699.569 80.1333 699.236 80.4 698.703 80.4H688.003C687.536 80.4 687.269 80.5333 687.203 80.8C687.136 81 687.103 81.8333 687.103 83.3V105.6ZM748.813 96.8C748.813 100.867 748.246 104.467 747.113 107.6C745.98 110.733 744.346 113.367 742.213 115.5C740.146 117.633 737.646 119.267 734.713 120.4C731.78 121.467 728.513 122 724.913 122C721.78 122 718.88 121.5 716.213 120.5C713.546 119.433 711.246 117.9 709.313 115.9C707.38 113.833 705.846 111.267 704.713 108.2C703.58 105.067 703.013 101.4 703.013 97.2C703.013 93.8 703.58 90.7 704.713 87.9C705.846 85.0333 707.413 82.6 709.413 80.6C711.48 78.6 713.946 77.0333 716.813 75.9C719.68 74.7667 722.813 74.2 726.213 74.2C729.48 74.2 732.48 74.7 735.213 75.7C738.013 76.7 740.413 78.1667 742.413 80.1C744.413 81.9667 745.98 84.3 747.113 87.1C748.246 89.9 748.813 93.1333 748.813 96.8ZM738.313 97.9C738.313 95.3667 738.146 92.9 737.813 90.5C737.48 88.1 736.88 85.9667 736.013 84.1C735.146 82.2333 733.946 80.7333 732.413 79.6C730.88 78.4667 728.913 77.9 726.513 77.9C723.846 77.9 721.68 78.4667 720.013 79.6C718.346 80.7333 717.013 82.2667 716.013 84.2C715.08 86.0667 714.413 88.2 714.013 90.6C713.68 93 713.513 95.5 713.513 98.1C713.513 100.367 713.68 102.7 714.013 105.1C714.346 107.5 714.98 109.667 715.913 111.6C716.846 113.533 718.113 115.133 719.713 116.4C721.38 117.667 723.48 118.3 726.013 118.3C728.613 118.3 730.713 117.7 732.313 116.5C733.913 115.3 735.146 113.733 736.013 111.8C736.946 109.867 737.546 107.7 737.813 105.3C738.146 102.833 738.313 100.367 738.313 97.9ZM768.031 108.9C768.031 110.567 768.064 111.967 768.131 113.1C768.264 114.233 768.631 115.167 769.231 115.9C769.831 116.633 770.764 117.2 772.031 117.6C773.298 118 775.131 118.3 777.531 118.5C777.931 118.567 778.231 118.767 778.431 119.1C778.631 119.367 778.731 119.7 778.731 120.1C778.731 120.433 778.631 120.733 778.431 121C778.231 121.333 777.931 121.5 777.531 121.5C774.664 121.5 772.131 121.367 769.931 121.1C767.731 120.9 765.631 120.8 763.631 120.8C761.498 120.8 759.364 120.9 757.231 121.1C755.164 121.367 753.064 121.5 750.931 121.5C750.598 121.5 750.331 121.333 750.131 121C749.931 120.733 749.831 120.433 749.831 120.1C749.831 119.7 749.931 119.367 750.131 119.1C750.331 118.767 750.631 118.567 751.031 118.5C752.898 118.3 754.331 118 755.331 117.6C756.398 117.2 757.164 116.667 757.631 116C758.098 115.267 758.364 114.4 758.431 113.4C758.564 112.333 758.631 111.033 758.631 109.5V94.9C758.631 91.6333 758.564 89.0667 758.431 87.2C758.298 85.2667 757.964 83.8 757.431 82.8C756.964 81.7333 756.198 81.0333 755.131 80.7C754.064 80.3667 752.598 80.1333 750.731 80C750.398 80 750.131 79.8333 749.931 79.5C749.798 79.1667 749.731 78.8333 749.731 78.5C749.731 78.1667 749.798 77.8333 749.931 77.5C750.131 77.1667 750.431 77 750.831 77C752.164 76.8667 753.998 76.7333 756.331 76.6C758.731 76.4 761.164 75.9667 763.631 75.3C764.564 75.0333 765.331 75 765.931 75.2C766.531 75.4 766.798 75.9667 766.731 76.9L766.531 83.3C766.531 83.4333 766.564 83.5333 766.631 83.6C766.698 83.6 766.798 83.5333 766.931 83.4C768.331 80.6 770.031 78.3667 772.031 76.7C774.098 75.0333 776.831 74.2 780.231 74.2C783.031 74.2 785.098 74.9333 786.431 76.4C787.764 77.8 788.431 79.5333 788.431 81.6C788.431 82.7333 787.998 83.7667 787.131 84.7C786.264 85.6333 785.031 86.1 783.431 86.1C781.898 86.1 780.831 85.7333 780.231 85C779.631 84.2667 779.331 83.4667 779.331 82.6C779.331 81.6667 779.131 80.9333 778.731 80.4C778.398 79.8667 777.631 79.6 776.431 79.6C775.164 79.6 773.998 80.0333 772.931 80.9C771.931 81.7 771.064 82.6667 770.331 83.8C769.598 84.9333 769.031 86.1 768.631 87.3C768.231 88.5 768.031 89.4333 768.031 90.1V108.9ZM803.475 108.9C803.475 110.567 803.508 111.967 803.575 113.1C803.641 114.233 803.875 115.167 804.275 115.9C804.675 116.633 805.275 117.2 806.075 117.6C806.941 118 808.141 118.3 809.675 118.5C810.075 118.567 810.375 118.767 810.575 119.1C810.775 119.367 810.875 119.7 810.875 120.1C810.875 120.433 810.775 120.733 810.575 121C810.375 121.333 810.075 121.5 809.675 121.5C808.475 121.5 806.908 121.367 804.975 121.1C803.041 120.9 801.075 120.8 799.075 120.8C796.941 120.8 794.841 120.9 792.775 121.1C790.775 121.367 788.841 121.5 786.975 121.5C786.641 121.5 786.375 121.333 786.175 121C785.975 120.733 785.875 120.433 785.875 120.1C785.875 119.7 785.975 119.367 786.175 119.1C786.375 118.767 786.675 118.567 787.075 118.5C788.808 118.3 790.141 118 791.075 117.6C792.075 117.2 792.775 116.667 793.175 116C793.641 115.267 793.908 114.4 793.975 113.4C794.041 112.333 794.075 111.033 794.075 109.5V93.4C794.075 90.5333 794.008 88.2333 793.875 86.5C793.741 84.7667 793.441 83.4667 792.975 82.6C792.508 81.6667 791.808 81.0333 790.875 80.7C789.941 80.3667 788.675 80.1 787.075 79.9C786.675 79.9 786.375 79.7333 786.175 79.4C785.975 79.0667 785.875 78.7333 785.875 78.4C785.875 78.0667 785.975 77.7333 786.175 77.4C786.375 77.0667 786.675 76.9 787.075 76.9C787.741 76.8333 788.541 76.7667 789.475 76.7C790.475 76.6333 791.508 76.5667 792.575 76.5C793.641 76.3667 794.708 76.2333 795.775 76.1C796.908 75.9 797.908 75.7 798.775 75.5C799.508 75.3667 800.075 75.2333 800.475 75.1C800.941 74.9 801.308 74.8 801.575 74.8C802.375 74.8 802.875 75.0333 803.075 75.5C803.341 75.9667 803.475 76.4 803.475 76.8V108.9ZM798.175 64.6C796.508 64.6 795.075 64.1 793.875 63.1C792.675 62.0333 792.075 60.7333 792.075 59.2C792.075 57.6667 792.641 56.3667 793.775 55.3C794.908 54.2333 796.308 53.7 797.975 53.7C799.575 53.7 800.875 54.2667 801.875 55.4C802.941 56.4667 803.475 57.7667 803.475 59.3C803.475 60.7667 802.975 62.0333 801.975 63.1C800.975 64.1 799.708 64.6 798.175 64.6ZM839.188 100.3C839.188 99.5667 839.155 99.1333 839.088 99C839.021 98.8 838.855 98.7 838.588 98.7C833.121 99.1667 829.055 100.333 826.388 102.2C823.788 104 822.488 106.333 822.488 109.2C822.488 111.2 822.988 112.9 823.988 114.3C824.988 115.633 826.655 116.3 828.988 116.3C830.521 116.3 832.121 116 833.788 115.4C835.521 114.8 837.055 113.933 838.388 112.8C838.921 112.267 839.188 111.733 839.188 111.2V100.3ZM848.588 110.2C848.588 112.533 848.788 114.167 849.188 115.1C849.655 116.033 850.521 116.5 851.788 116.5C852.521 116.5 853.121 116.433 853.588 116.3C854.055 116.1 854.721 115.733 855.588 115.2C855.788 115.067 855.988 115.067 856.188 115.2C856.455 115.333 856.655 115.533 856.788 115.8C856.988 116 857.121 116.267 857.188 116.6C857.255 116.867 857.188 117.1 856.988 117.3C854.388 120.433 851.321 122 847.788 122C845.855 122 844.188 121.5 842.788 120.5C841.455 119.433 840.455 118.2 839.788 116.8C839.655 116.467 839.455 116.433 839.188 116.7C837.455 118.233 835.421 119.5 833.088 120.5C830.821 121.5 827.955 122 824.488 122C820.688 122 817.755 121 815.688 119C813.621 116.933 812.588 114.033 812.588 110.3C812.588 105.5 814.821 101.833 819.288 99.3C823.755 96.7 830.255 95.4 838.788 95.4C838.921 95.4 839.021 95.2333 839.088 94.9C839.155 94.5667 839.188 93.8 839.188 92.6V89.9C839.188 88.2333 839.055 86.6667 838.788 85.2C838.521 83.7333 838.055 82.4667 837.388 81.4C836.788 80.2667 835.921 79.4 834.788 78.8C833.655 78.1333 832.255 77.8 830.588 77.8C828.121 77.8 826.121 78.3 824.588 79.3C823.055 80.2333 822.288 81.4667 822.288 83C822.288 83.7333 822.521 84.4667 822.988 85.2C823.455 85.8667 823.688 86.5667 823.688 87.3C823.688 88.2333 823.221 89.1333 822.288 90C821.355 90.8667 820.221 91.3 818.888 91.3C817.088 91.3 815.788 90.8333 814.988 89.9C814.255 88.9 813.888 87.7 813.888 86.3C813.888 84.6333 814.355 83.0667 815.288 81.6C816.221 80.0667 817.488 78.7667 819.088 77.7C820.688 76.6333 822.555 75.8 824.688 75.2C826.821 74.5333 829.055 74.2 831.388 74.2C836.721 74.2 840.921 75.4333 843.988 77.9C847.055 80.3667 848.588 84.4667 848.588 90.2V110.2ZM873.209 108.9C873.209 110.567 873.242 111.967 873.309 113.1C873.376 114.233 873.542 115.167 873.809 115.9C874.142 116.633 874.642 117.2 875.309 117.6C876.042 118 877.042 118.3 878.309 118.5C878.709 118.567 879.009 118.767 879.209 119.1C879.409 119.367 879.509 119.7 879.509 120.1C879.509 120.433 879.409 120.733 879.209 121C879.009 121.333 878.709 121.5 878.309 121.5C877.642 121.5 876.376 121.367 874.509 121.1C872.709 120.9 870.809 120.8 868.809 120.8C866.676 120.8 864.609 120.9 862.609 121.1C860.609 121.367 858.742 121.5 857.009 121.5C856.676 121.5 856.409 121.333 856.209 121C856.009 120.733 855.909 120.433 855.909 120.1C855.909 119.7 856.009 119.367 856.209 119.1C856.409 118.767 856.709 118.567 857.109 118.5C858.776 118.3 860.042 118.033 860.909 117.7C861.842 117.367 862.509 116.867 862.909 116.2C863.376 115.533 863.642 114.667 863.709 113.6C863.776 112.533 863.809 111.167 863.809 109.5V96.9C863.809 93.6333 863.776 90.9333 863.709 88.8C863.642 86.6 863.409 84.8667 863.009 83.6C862.609 82.3333 861.976 81.4667 861.109 81C860.242 80.4667 859.009 80.2 857.409 80.2C857.009 80.2 856.676 80.0667 856.409 79.8C856.209 79.5333 856.109 79.2333 856.109 78.9C856.109 78.5 856.209 78.1667 856.409 77.9C856.676 77.6333 857.009 77.5 857.409 77.5C858.676 77.5 860.509 77.3 862.909 76.9C865.376 76.5 867.876 75.9333 870.409 75.2C871.342 74.9333 872.042 75.1333 872.509 75.8C872.976 76.4 873.209 77.1 873.209 77.9V81.9C873.209 82.0333 873.242 82.1333 873.309 82.2C873.442 82.2 873.542 82.1333 873.609 82C874.076 81.2667 874.709 80.4667 875.509 79.6C876.376 78.6667 877.376 77.8 878.509 77C879.709 76.2 881.042 75.5333 882.509 75C883.976 74.4667 885.609 74.2 887.409 74.2C892.409 74.2 896.309 75.6 899.109 78.4C901.976 81.1333 903.409 85.6 903.409 91.8V108.9C903.409 110.7 903.442 112.167 903.509 113.3C903.642 114.433 903.876 115.367 904.209 116.1C904.609 116.767 905.176 117.3 905.909 117.7C906.709 118.033 907.809 118.3 909.209 118.5C909.609 118.567 909.909 118.767 910.109 119.1C910.309 119.367 910.409 119.7 910.409 120.1C910.409 120.433 910.309 120.733 910.109 121C909.909 121.333 909.609 121.5 909.209 121.5C908.342 121.5 906.909 121.367 904.909 121.1C902.976 120.9 901.009 120.8 899.009 120.8C896.876 120.8 894.842 120.9 892.909 121.1C890.976 121.367 889.376 121.5 888.109 121.5C887.776 121.5 887.509 121.333 887.309 121C887.109 120.733 887.009 120.433 887.009 120.1C887.009 119.7 887.109 119.367 887.309 119.1C887.509 118.767 887.809 118.567 888.209 118.5C889.676 118.3 890.776 118 891.509 117.6C892.309 117.2 892.876 116.667 893.209 116C893.609 115.267 893.842 114.4 893.909 113.4C893.976 112.333 894.009 111.033 894.009 109.5V94.3C894.009 92.6333 893.942 90.9667 893.809 89.3C893.676 87.6333 893.309 86.1333 892.709 84.8C892.109 83.4667 891.242 82.3667 890.109 81.5C888.976 80.6333 887.409 80.2 885.409 80.2C883.409 80.2 881.642 80.5333 880.109 81.2C878.642 81.8 877.376 82.6333 876.309 83.7C875.309 84.7667 874.542 86.0333 874.009 87.5C873.476 88.9 873.209 90.4 873.209 92V108.9Z" fill="white"/>
<path d="M242.927 87.32C232.372 88.9542 226.858 97.7427 224.772 105.309C224.674 105.665 225.036 105.755 225.169 105.41C226.912 100.874 230.158 97.1286 242.927 95.24C257.376 93.1029 260.94 81.7258 260.999 72.059C261.001 71.6963 260.486 71.6651 260.412 72.0201C259.209 77.772 255.787 85.3288 242.927 87.32Z" fill="white"/>
</svg>
