<svg width="800" height="200" viewBox="0 0 800 200" fill="none" xmlns="http://www.w3.org/2000/svg">
<path fill-rule="evenodd" clip-rule="evenodd" d="M74.1175 57.6291C74.9133 56.8631 76.1794 56.8873 76.9454 57.6832L85.2709 66.333C86.0368 67.1288 86.0126 68.3949 85.2168 69.1609L58.5775 94.8012C57.7601 95.588 57.7601 96.8964 58.5775 97.6832L85.2168 123.323C86.0126 124.089 86.0368 125.356 85.2709 126.151L76.9454 134.801C76.1794 135.597 74.9133 135.621 74.1175 134.855L35.4971 97.6832C34.6797 96.8964 34.6797 95.588 35.4971 94.8012L74.1175 57.6291Z" fill="#FDFFFE"/>
<path fill-rule="evenodd" clip-rule="evenodd" d="M125.845 134.523C125.08 135.319 123.814 135.345 123.018 134.579L114.361 126.26C113.565 125.495 113.54 124.229 114.305 123.432L131.564 105.474C132.175 104.838 131.725 103.781 130.843 103.781L85.4463 103.781C84.9291 103.781 84.432 103.581 84.0594 103.222L78.2454 97.6259C77.428 96.8392 77.428 95.5308 78.2454 94.744L84.9047 88.3344C85.2774 87.9757 85.7745 87.7754 86.2917 87.7754L130.06 87.7754C130.941 87.7754 131.392 86.7179 130.781 86.0825L114.305 68.9389C113.54 68.1425 113.565 66.8764 114.361 66.111L123.018 57.7921C123.814 57.0267 125.08 57.0519 125.845 57.8483L161.357 94.7998C162.101 95.5739 162.101 96.7974 161.357 97.5715L125.845 134.523ZM66.2409 87.7859C66.2448 87.7821 66.2421 87.7754 66.2366 87.7754V87.7754C66.2332 87.7754 66.2305 87.7781 66.2305 87.7815V87.7815C66.2305 87.7869 66.237 87.7897 66.2409 87.7859V87.7859Z" fill="#FF007A"/>
<path d="M204.172 134.001V61.2734H217.347V92.0618H251.047V61.2734H264.257V134.001H251.047V103.106H217.347V134.001H204.172Z" fill="#FDFFFE"/>
<path d="M290.714 135.102C287.257 135.102 284.144 134.486 281.374 133.255C278.628 132 276.45 130.154 274.84 127.715C273.254 125.277 272.461 122.27 272.461 118.695C272.461 115.618 273.029 113.073 274.165 111.06C275.302 109.048 276.853 107.438 278.817 106.231C280.782 105.023 282.996 104.112 285.458 103.496C287.944 102.857 290.513 102.396 293.164 102.112C296.36 101.78 298.952 101.484 300.941 101.224C302.93 100.94 304.374 100.513 305.273 99.9453C306.197 99.3535 306.658 98.442 306.658 97.2109V96.9979C306.658 94.3227 305.865 92.2512 304.279 90.7834C302.693 89.3156 300.408 88.5817 297.425 88.5817C294.277 88.5817 291.779 89.2682 289.933 90.6413C288.11 92.0144 286.879 93.6361 286.239 95.5064L274.237 93.8018C275.183 90.4875 276.746 87.7176 278.924 85.4922C281.102 83.2431 283.765 81.5623 286.914 80.4496C290.063 79.3132 293.543 78.745 297.354 78.745C299.982 78.745 302.598 79.0528 305.202 79.6683C307.807 80.2839 310.186 81.3018 312.34 82.7223C314.495 84.1191 316.223 86.0249 317.525 88.4396C318.851 90.8544 319.513 93.8729 319.513 97.495V134.001H307.156V126.508H306.729C305.948 128.023 304.847 129.443 303.427 130.769C302.03 132.071 300.266 133.125 298.136 133.93C296.029 134.711 293.555 135.102 290.714 135.102ZM294.052 125.656C296.632 125.656 298.87 125.147 300.763 124.129C302.657 123.087 304.113 121.714 305.131 120.009C306.173 118.305 306.694 116.446 306.694 114.434V108.006C306.291 108.338 305.605 108.646 304.634 108.93C303.687 109.214 302.622 109.462 301.438 109.675C300.254 109.888 299.083 110.078 297.923 110.244C296.763 110.409 295.756 110.551 294.904 110.67C292.987 110.93 291.27 111.356 289.755 111.948C288.24 112.54 287.044 113.369 286.168 114.434C285.292 115.476 284.854 116.825 284.854 118.482C284.854 120.85 285.719 122.637 287.447 123.844C289.175 125.052 291.377 125.656 294.052 125.656Z" fill="#FDFFFE"/>
<path d="M353.232 135.066C347.787 135.066 343.112 133.87 339.205 131.479C335.323 129.088 332.328 125.786 330.221 121.572C328.138 117.334 327.096 112.457 327.096 106.941C327.096 101.401 328.161 96.5125 330.292 92.2749C332.423 88.0135 335.429 84.6991 339.312 82.3317C343.218 79.9406 347.835 78.745 353.161 78.745C357.588 78.745 361.506 79.5618 364.915 81.1953C368.348 82.8052 371.083 85.0897 373.119 88.049C375.155 90.9846 376.315 94.4174 376.599 98.3473H364.312C363.815 95.7195 362.631 93.5296 360.761 91.7777C358.914 90.0021 356.44 89.1143 353.339 89.1143C350.711 89.1143 348.403 89.8246 346.414 91.245C344.425 92.6418 342.875 94.6541 341.762 97.282C340.673 99.9098 340.129 103.058 340.129 106.728C340.129 110.445 340.673 113.641 341.762 116.316C342.851 118.968 344.378 121.015 346.343 122.46C348.332 123.88 350.664 124.59 353.339 124.59C355.233 124.59 356.925 124.235 358.417 123.525C359.932 122.791 361.199 121.737 362.217 120.364C363.235 118.991 363.933 117.322 364.312 115.357H376.599C376.291 119.216 375.155 122.637 373.19 125.62C371.225 128.579 368.549 130.899 365.164 132.58C361.779 134.237 357.801 135.066 353.232 135.066Z" fill="#FDFFFE"/>
<path d="M395.873 116.884L395.838 101.366H397.897L417.5 79.4553H432.521L408.409 106.302H405.745L395.873 116.884ZM384.154 134.001V61.2734H397.01V134.001H384.154ZM418.387 134.001L400.632 109.178L409.297 100.123L433.764 134.001H418.387Z" fill="#FDFFFE"/>
<path d="M459.99 135.066C454.521 135.066 449.798 133.93 445.821 131.657C441.867 129.361 438.825 126.117 436.694 121.927C434.564 117.713 433.498 112.753 433.498 107.048C433.498 101.437 434.564 96.5125 436.694 92.2749C438.849 88.0135 441.855 84.6991 445.714 82.3317C449.573 79.9406 454.107 78.745 459.315 78.745C462.677 78.745 465.849 79.2895 468.832 80.3786C471.839 81.4439 474.49 83.1011 476.787 85.3501C479.107 87.5992 480.93 90.4638 482.255 93.9439C483.581 97.4003 484.244 101.52 484.244 106.302V110.244H439.535V101.579H471.922C471.898 99.1167 471.365 96.9268 470.323 95.0092C469.282 93.0679 467.826 91.541 465.956 90.4283C464.109 89.3156 461.955 88.7592 459.493 88.7592C456.865 88.7592 454.556 89.3984 452.568 90.6768C450.579 91.9316 449.029 93.5888 447.916 95.6484C446.827 97.6844 446.27 99.9216 446.247 102.36V109.924C446.247 113.096 446.827 115.819 447.987 118.092C449.147 120.341 450.769 122.069 452.852 123.276C454.935 124.46 457.374 125.052 460.167 125.052C462.038 125.052 463.73 124.791 465.245 124.271C466.761 123.726 468.074 122.933 469.187 121.891C470.3 120.85 471.14 119.559 471.708 118.021L483.711 119.37C482.954 122.542 481.51 125.312 479.379 127.68C477.272 130.023 474.573 131.846 471.282 133.148C467.992 134.427 464.227 135.066 459.99 135.066Z" fill="#FDFFFE"/>
<path d="M492.119 134.001V79.4553H504.584V88.5462H505.152C506.146 85.3975 507.851 82.9709 510.266 81.2663C512.704 79.5381 515.486 78.674 518.611 78.674C519.321 78.674 520.114 78.7095 520.99 78.7805C521.89 78.8279 522.635 78.9107 523.227 79.0291V90.8544C522.683 90.665 521.819 90.4993 520.635 90.3572C519.475 90.1915 518.35 90.1087 517.261 90.1087C514.918 90.1087 512.811 90.6177 510.94 91.6357C509.094 92.63 507.638 94.0149 506.572 95.7905C505.507 97.5661 504.974 99.6139 504.974 101.934V134.001H492.119Z" fill="#FDFFFE"/>
<path d="M546.763 134.96C542.478 134.96 538.643 133.859 535.257 131.657C531.872 129.455 529.197 126.259 527.232 122.069C525.267 117.879 524.284 112.789 524.284 106.799C524.284 100.738 525.279 95.6248 527.267 91.4581C529.28 87.2678 531.99 84.1072 535.399 81.9766C538.809 79.8222 542.608 78.745 546.799 78.745C549.995 78.745 552.623 79.2895 554.682 80.3786C556.742 81.4439 558.375 82.7341 559.583 84.2493C560.79 85.7408 561.725 87.1494 562.388 88.4751H562.921V61.2734H575.811V134.001H563.169V125.407H562.388C561.725 126.733 560.766 128.141 559.512 129.633C558.257 131.101 556.6 132.355 554.54 133.397C552.48 134.439 549.888 134.96 546.763 134.96ZM550.35 124.413C553.072 124.413 555.392 123.679 557.31 122.211C559.228 120.719 560.684 118.648 561.678 115.996C562.672 113.345 563.169 110.255 563.169 106.728C563.169 103.201 562.672 100.135 561.678 97.5305C560.707 94.9264 559.263 92.9022 557.346 91.4581C555.452 90.014 553.12 89.2919 550.35 89.2919C547.485 89.2919 545.094 90.0376 543.176 91.5291C541.259 93.0206 539.815 95.0803 538.844 97.7081C537.873 100.336 537.388 103.343 537.388 106.728C537.388 110.137 537.873 113.179 538.844 115.854C539.838 118.506 541.294 120.601 543.212 122.14C545.153 123.655 547.533 124.413 550.35 124.413Z" fill="#FDFFFE"/>
<path d="M602.206 135.102C598.75 135.102 595.636 134.486 592.866 133.255C590.12 132 587.942 130.154 586.332 127.715C584.746 125.277 583.953 122.27 583.953 118.695C583.953 115.618 584.521 113.073 585.658 111.06C586.794 109.048 588.345 107.438 590.31 106.231C592.275 105.023 594.488 104.112 596.95 103.496C599.436 102.857 602.005 102.396 604.656 102.112C607.852 101.78 610.445 101.484 612.433 101.224C614.422 100.94 615.866 100.513 616.766 99.9453C617.689 99.3535 618.151 98.442 618.151 97.2109V96.9979C618.151 94.3227 617.357 92.2512 615.771 90.7834C614.185 89.3156 611.901 88.5817 608.918 88.5817C605.769 88.5817 603.271 89.2682 601.425 90.6413C599.602 92.0144 598.371 93.6361 597.732 95.5064L585.729 93.8018C586.676 90.4875 588.238 87.7176 590.416 85.4922C592.594 83.2431 595.258 81.5623 598.406 80.4496C601.555 79.3132 605.035 78.745 608.847 78.745C611.474 78.745 614.09 79.0528 616.695 79.6683C619.299 80.2839 621.678 81.3018 623.832 82.7223C625.987 84.1191 627.715 86.0249 629.017 88.4396C630.343 90.8544 631.006 93.8729 631.006 97.495V134.001H618.648V126.508H618.222C617.44 128.023 616.339 129.443 614.919 130.769C613.522 132.071 611.759 133.125 609.628 133.93C607.521 134.711 605.047 135.102 602.206 135.102ZM605.544 125.656C608.125 125.656 610.362 125.147 612.256 124.129C614.15 123.087 615.606 121.714 616.624 120.009C617.665 118.305 618.186 116.446 618.186 114.434V108.006C617.784 108.338 617.097 108.646 616.126 108.93C615.179 109.214 614.114 109.462 612.93 109.675C611.747 109.888 610.575 110.078 609.415 110.244C608.255 110.409 607.249 110.551 606.396 110.67C604.479 110.93 602.762 111.356 601.247 111.948C599.732 112.54 598.536 113.369 597.66 114.434C596.785 115.476 596.347 116.825 596.347 118.482C596.347 120.85 597.211 122.637 598.939 123.844C600.667 125.052 602.869 125.656 605.544 125.656Z" fill="#FDFFFE"/>
<path d="M684.043 93.8729L672.324 95.1513C671.992 93.9676 671.412 92.8549 670.584 91.8132C669.779 90.7715 668.69 89.9311 667.317 89.2919C665.944 88.6527 664.263 88.3331 662.274 88.3331C659.599 88.3331 657.35 88.9131 655.527 90.0732C653.728 91.2332 652.84 92.7365 652.864 94.5831C652.84 96.1693 653.42 97.4595 654.604 98.4538C655.811 99.4482 657.8 100.265 660.57 100.904L669.874 102.893C675.035 104.005 678.87 105.769 681.379 108.184C683.912 110.599 685.191 113.759 685.214 117.665C685.191 121.098 684.185 124.129 682.196 126.756C680.231 129.361 677.497 131.397 673.993 132.864C670.489 134.332 666.464 135.066 661.919 135.066C655.243 135.066 649.869 133.669 645.797 130.876C641.725 128.058 639.298 124.14 638.517 119.121L651.053 117.914C651.621 120.376 652.828 122.235 654.675 123.489C656.521 124.744 658.924 125.371 661.884 125.371C664.937 125.371 667.388 124.744 669.234 123.489C671.105 122.235 672.04 120.684 672.04 118.837C672.04 117.275 671.436 115.985 670.229 114.967C669.045 113.949 667.198 113.167 664.689 112.623L655.385 110.67C650.153 109.581 646.282 107.746 643.773 105.165C641.263 102.561 640.02 99.2706 640.044 95.2933C640.02 91.9316 640.932 89.0197 642.778 86.5575C644.649 84.0717 647.241 82.1541 650.555 80.8047C653.893 79.4316 657.741 78.745 662.097 78.745C668.489 78.745 673.519 80.1063 677.189 82.8288C680.882 85.5514 683.167 89.2327 684.043 93.8729Z" fill="#FDFFFE"/>
<path d="M705.67 102.04V134.001H692.815V61.2734H705.386V88.7237H706.025C707.303 85.6461 709.28 83.2195 711.955 81.4439C714.654 79.6447 718.087 78.745 722.254 78.745C726.041 78.745 729.344 79.5381 732.161 81.1243C734.978 82.7105 737.156 85.0305 738.695 88.0845C740.258 91.1385 741.039 94.8672 741.039 99.2706V134.001H728.184V101.259C728.184 97.5897 727.237 94.737 725.343 92.701C723.473 90.6413 720.845 89.6115 717.46 89.6115C715.187 89.6115 713.151 90.1087 711.352 91.103C709.576 92.0736 708.179 93.4822 707.161 95.3288C706.167 97.1754 705.67 99.4126 705.67 102.04Z" fill="#FDFFFE"/>
</svg>
