<svg width="2000" height="500" viewBox="0 0 2000 500" fill="none" xmlns="http://www.w3.org/2000/svg">
<rect width="2000" height="500" fill="#1E1F34"/>
<path fill-rule="evenodd" clip-rule="evenodd" d="M698.117 198.629C698.913 197.863 700.179 197.887 700.945 198.683L709.271 207.333C710.037 208.129 710.013 209.395 709.217 210.161L682.578 235.801C681.76 236.588 681.76 237.896 682.578 238.683L709.217 264.323C710.013 265.089 710.037 266.356 709.271 267.151L700.945 275.801C700.179 276.597 698.913 276.621 698.117 275.855L659.497 238.683C658.68 237.896 658.68 236.588 659.497 235.801L698.117 198.629Z" fill="#FDFFFE"/>
<path fill-rule="evenodd" clip-rule="evenodd" d="M749.845 275.523C749.08 276.319 747.814 276.345 747.018 275.579L738.361 267.26C737.565 266.495 737.54 265.229 738.305 264.432L755.564 246.474C756.175 245.838 755.725 244.781 754.843 244.781L709.446 244.781C708.929 244.781 708.432 244.581 708.059 244.222L702.245 238.626C701.428 237.839 701.428 236.531 702.245 235.744L708.905 229.334C709.277 228.976 709.774 228.775 710.292 228.775L754.06 228.775C754.941 228.775 755.392 227.718 754.781 227.082L738.305 209.939C737.54 209.142 737.565 207.876 738.361 207.111L747.018 198.792C747.814 198.027 749.08 198.052 749.845 198.848L785.357 235.8C786.101 236.574 786.101 237.797 785.357 238.571L749.845 275.523ZM690.241 228.786C690.245 228.782 690.242 228.775 690.237 228.775V228.775C690.233 228.775 690.23 228.778 690.23 228.782V228.782C690.23 228.787 690.237 228.79 690.241 228.786V228.786Z" fill="#FF007A"/>
<path d="M828.173 275V202.273H856.014C861.27 202.273 865.638 203.101 869.118 204.759C872.622 206.392 875.238 208.629 876.966 211.47C878.718 214.311 879.594 217.531 879.594 221.129C879.594 224.089 879.026 226.622 877.889 228.729C876.753 230.812 875.226 232.505 873.308 233.807C871.391 235.109 869.248 236.044 866.881 236.612V237.322C869.461 237.464 871.935 238.258 874.303 239.702C876.694 241.122 878.647 243.134 880.162 245.739C881.677 248.343 882.435 251.491 882.435 255.185C882.435 258.949 881.523 262.334 879.7 265.341C877.877 268.324 875.131 270.679 871.462 272.408C867.792 274.136 863.176 275 857.612 275H828.173ZM841.348 263.991H855.517C860.299 263.991 863.744 263.08 865.851 261.257C867.982 259.411 869.047 257.043 869.047 254.155C869.047 252 868.514 250.059 867.449 248.331C866.384 246.579 864.868 245.206 862.903 244.212C860.938 243.194 858.595 242.685 855.872 242.685H841.348V263.991ZM841.348 233.203H854.381C856.653 233.203 858.701 232.789 860.524 231.96C862.347 231.108 863.779 229.912 864.821 228.374C865.886 226.811 866.419 224.964 866.419 222.834C866.419 220.017 865.425 217.696 863.436 215.874C861.471 214.051 858.547 213.139 854.665 213.139H841.348V233.203ZM925.093 252.06V220.455H937.949V275H925.484V265.305H924.916C923.685 268.359 921.661 270.857 918.843 272.798C916.05 274.74 912.605 275.71 908.51 275.71C904.935 275.71 901.774 274.917 899.028 273.331C896.306 271.721 894.175 269.389 892.636 266.335C891.097 263.258 890.328 259.541 890.328 255.185V220.455H903.183V253.196C903.183 256.652 904.13 259.399 906.024 261.435C907.918 263.471 910.404 264.489 913.481 264.489C915.375 264.489 917.21 264.027 918.985 263.104C920.761 262.18 922.217 260.807 923.353 258.984C924.513 257.138 925.093 254.83 925.093 252.06ZM948.168 275V220.455H961.023V275H948.168ZM954.631 212.713C952.595 212.713 950.843 212.038 949.375 210.689C947.907 209.316 947.173 207.67 947.173 205.753C947.173 203.812 947.907 202.166 949.375 200.817C950.843 199.444 952.595 198.757 954.631 198.757C956.69 198.757 958.442 199.444 959.886 200.817C961.354 202.166 962.088 203.812 962.088 205.753C962.088 207.67 961.354 209.316 959.886 210.689C958.442 212.038 956.69 212.713 954.631 212.713ZM984.097 202.273V275H971.242V202.273H984.097ZM1014.56 275.959C1010.27 275.959 1006.44 274.858 1003.05 272.656C999.666 270.455 996.991 267.259 995.026 263.068C993.061 258.878 992.079 253.788 992.079 247.798C992.079 241.738 993.073 236.624 995.062 232.457C997.074 228.267 999.785 225.107 1003.19 222.976C1006.6 220.821 1010.4 219.744 1014.59 219.744C1017.79 219.744 1020.42 220.289 1022.48 221.378C1024.54 222.443 1026.17 223.733 1027.38 225.249C1028.58 226.74 1029.52 228.149 1030.18 229.474H1030.72V202.273H1043.61V275H1030.96V266.406H1030.18C1029.52 267.732 1028.56 269.141 1027.31 270.632C1026.05 272.1 1024.39 273.355 1022.33 274.396C1020.27 275.438 1017.68 275.959 1014.56 275.959ZM1018.14 265.412C1020.87 265.412 1023.19 264.678 1025.1 263.21C1027.02 261.719 1028.48 259.647 1029.47 256.996C1030.47 254.344 1030.96 251.255 1030.96 247.727C1030.96 244.2 1030.47 241.134 1029.47 238.53C1028.5 235.926 1027.06 233.902 1025.14 232.457C1023.25 231.013 1020.91 230.291 1018.14 230.291C1015.28 230.291 1012.89 231.037 1010.97 232.528C1009.05 234.02 1007.61 236.08 1006.64 238.707C1005.67 241.335 1005.18 244.342 1005.18 247.727C1005.18 251.136 1005.67 254.179 1006.64 256.854C1007.63 259.505 1009.09 261.6 1011.01 263.139C1012.95 264.654 1015.33 265.412 1018.14 265.412ZM1119.22 234.872L1107.5 236.151C1107.17 234.967 1106.59 233.854 1105.76 232.812C1104.96 231.771 1103.87 230.93 1102.49 230.291C1101.12 229.652 1099.44 229.332 1097.45 229.332C1094.78 229.332 1092.53 229.912 1090.7 231.072C1088.9 232.232 1088.02 233.736 1088.04 235.582C1088.02 237.169 1088.6 238.459 1089.78 239.453C1090.99 240.447 1092.98 241.264 1095.75 241.903L1105.05 243.892C1110.21 245.005 1114.05 246.768 1116.56 249.183C1119.09 251.598 1120.37 254.759 1120.39 258.665C1120.37 262.098 1119.36 265.128 1117.37 267.756C1115.41 270.36 1112.67 272.396 1109.17 273.864C1105.67 275.331 1101.64 276.065 1097.1 276.065C1090.42 276.065 1085.05 274.669 1080.97 271.875C1076.9 269.058 1074.48 265.14 1073.69 260.121L1086.23 258.913C1086.8 261.375 1088.01 263.234 1089.85 264.489C1091.7 265.743 1094.1 266.371 1097.06 266.371C1100.11 266.371 1102.56 265.743 1104.41 264.489C1106.28 263.234 1107.22 261.683 1107.22 259.837C1107.22 258.274 1106.61 256.984 1105.41 255.966C1104.22 254.948 1102.38 254.167 1099.87 253.622L1090.56 251.669C1085.33 250.58 1081.46 248.745 1078.95 246.165C1076.44 243.561 1075.2 240.27 1075.22 236.293C1075.2 232.931 1076.11 230.019 1077.96 227.557C1079.83 225.071 1082.42 223.153 1085.73 221.804C1089.07 220.431 1092.92 219.744 1097.27 219.744C1103.67 219.744 1108.7 221.106 1112.37 223.828C1116.06 226.551 1118.34 230.232 1119.22 234.872ZM1155.23 220.455V230.398H1123.87V220.455H1155.23ZM1131.61 207.386H1144.47V258.594C1144.47 260.322 1144.73 261.648 1145.25 262.571C1145.79 263.471 1146.51 264.086 1147.38 264.418C1148.26 264.749 1149.23 264.915 1150.29 264.915C1151.1 264.915 1151.83 264.856 1152.49 264.737C1153.18 264.619 1153.7 264.512 1154.06 264.418L1156.22 274.467C1155.54 274.704 1154.55 274.964 1153.28 275.249C1152.02 275.533 1150.48 275.698 1148.66 275.746C1145.44 275.84 1142.54 275.355 1139.96 274.29C1137.38 273.201 1135.33 271.52 1133.82 269.247C1132.32 266.974 1131.59 264.134 1131.61 260.724V207.386ZM1197.75 252.06V220.455H1210.6V275H1198.14V265.305H1197.57C1196.34 268.359 1194.31 270.857 1191.5 272.798C1188.7 274.74 1185.26 275.71 1181.16 275.71C1177.59 275.71 1174.43 274.917 1171.68 273.331C1168.96 271.721 1166.83 269.389 1165.29 266.335C1163.75 263.258 1162.98 259.541 1162.98 255.185V220.455H1175.84V253.196C1175.84 256.652 1176.78 259.399 1178.68 261.435C1180.57 263.471 1183.06 264.489 1186.13 264.489C1188.03 264.489 1189.86 264.027 1191.64 263.104C1193.41 262.18 1194.87 260.807 1196.01 258.984C1197.17 257.138 1197.75 254.83 1197.75 252.06ZM1248.45 220.455V230.398H1216.2V220.455H1248.45ZM1224.26 275V215.305C1224.26 211.636 1225.02 208.582 1226.54 206.143C1228.08 203.705 1230.14 201.882 1232.72 200.675C1235.3 199.467 1238.16 198.864 1241.31 198.864C1243.54 198.864 1245.51 199.041 1247.24 199.396C1248.97 199.751 1250.25 200.071 1251.08 200.355L1248.52 210.298C1247.97 210.133 1247.29 209.967 1246.46 209.801C1245.63 209.612 1244.71 209.517 1243.69 209.517C1241.3 209.517 1239.61 210.097 1238.61 211.257C1237.64 212.393 1237.16 214.027 1237.16 216.158V275H1224.26ZM1283.14 220.455V230.398H1250.9V220.455H1283.14ZM1258.96 275V215.305C1258.96 211.636 1259.72 208.582 1261.23 206.143C1262.77 203.705 1264.83 201.882 1267.41 200.675C1269.99 199.467 1272.86 198.864 1276.01 198.864C1278.23 198.864 1280.21 199.041 1281.94 199.396C1283.66 199.751 1284.94 200.071 1285.77 200.355L1283.21 210.298C1282.67 210.133 1281.98 209.967 1281.15 209.801C1280.33 209.612 1279.4 209.517 1278.38 209.517C1275.99 209.517 1274.3 210.097 1273.31 211.257C1272.34 212.393 1271.85 214.027 1271.85 216.158V275H1258.96ZM1292.47 275.781C1290.31 275.781 1288.46 275.024 1286.93 273.509C1285.39 271.993 1284.63 270.147 1284.65 267.969C1284.63 265.838 1285.39 264.015 1286.93 262.5C1288.46 260.985 1290.31 260.227 1292.47 260.227C1294.55 260.227 1296.36 260.985 1297.9 262.5C1299.46 264.015 1300.25 265.838 1300.28 267.969C1300.25 269.413 1299.88 270.727 1299.14 271.911C1298.43 273.094 1297.48 274.041 1296.3 274.751C1295.14 275.438 1293.86 275.781 1292.47 275.781Z" fill="#FDFFFE"/>
</svg>
