<svg width="200" height="200" viewBox="0 0 200 200" fill="none" xmlns="http://www.w3.org/2000/svg">
<path fill-rule="evenodd" clip-rule="evenodd" d="M74.1175 57.6291C74.9133 56.8631 76.1794 56.8873 76.9454 57.6832L85.2709 66.333C86.0368 67.1288 86.0126 68.3949 85.2168 69.1609L58.5775 94.8012C57.7601 95.588 57.7601 96.8964 58.5775 97.6832L85.2168 123.323C86.0126 124.089 86.0368 125.356 85.2709 126.151L76.9454 134.801C76.1794 135.597 74.9133 135.621 74.1175 134.855L35.4971 97.6832C34.6797 96.8964 34.6797 95.588 35.4971 94.8012L74.1175 57.6291Z" fill="#FDFFFE"/>
<path fill-rule="evenodd" clip-rule="evenodd" d="M125.845 134.523C125.08 135.319 123.814 135.345 123.018 134.579L114.361 126.26C113.565 125.495 113.54 124.229 114.305 123.432L131.564 105.474C132.175 104.838 131.725 103.781 130.843 103.781L85.4463 103.781C84.9291 103.781 84.432 103.581 84.0594 103.222L78.2454 97.6259C77.428 96.8392 77.428 95.5308 78.2454 94.744L84.9047 88.3344C85.2774 87.9757 85.7745 87.7754 86.2917 87.7754L130.06 87.7754C130.941 87.7754 131.392 86.7179 130.781 86.0825L114.305 68.9389C113.54 68.1425 113.565 66.8764 114.361 66.111L123.018 57.7921C123.814 57.0267 125.08 57.0519 125.845 57.8483L161.357 94.7998C162.101 95.5739 162.101 96.7974 161.357 97.5715L125.845 134.523ZM66.2409 87.7859C66.2448 87.7821 66.2421 87.7754 66.2366 87.7754V87.7754C66.2332 87.7754 66.2305 87.7781 66.2305 87.7815V87.7815C66.2305 87.7869 66.237 87.7897 66.2409 87.7859V87.7859Z" fill="#FF007A"/>
</svg>
