<svg width="302" height="302" viewBox="0 0 302 302" fill="none" xmlns="http://www.w3.org/2000/svg">
<path fill-rule="evenodd" clip-rule="evenodd" d="M6.03857 151C6.03857 70.9399 70.9383 6.04004 150.999 6.04004C231.059 6.04004 295.959 70.9399 295.959 151C295.959 231.06 231.059 295.96 150.999 295.96C70.9383 295.96 6.03857 231.06 6.03857 151ZM193.617 110.554C194.503 111.117 195.42 111.637 196.36 112.112L196.354 112.118C202.48 115.089 208.457 115.995 211.4 115.681V138.854C211.4 138.854 202.994 138.51 196.764 136.898C188.072 134.633 182.497 131.148 182.497 131.148C182.497 131.148 178.625 128.654 178.334 128.485V176.371C178.334 179.029 177.617 185.685 175.448 191.24C173.549 195.988 170.834 200.385 167.42 204.243C167.42 204.243 162.08 210.699 152.697 215.036C144.891 218.641 137.944 218.843 135.169 218.923C134.936 218.93 134.732 218.936 134.56 218.944C134.56 218.944 121.706 219.445 110.123 211.775L110.067 211.714V211.775C106.149 209.108 102.655 205.892 99.698 202.233C96.0309 197.673 93.7762 192.261 93.2001 190.678V190.618C92.2772 187.93 90.3384 181.408 90.6295 175.127C91.0879 164.051 94.9036 157.22 95.9133 155.524C98.5694 150.866 102.039 146.697 106.165 143.203C110.873 139.352 116.349 136.494 122.247 134.81C128.145 133.126 134.337 132.652 140.432 133.419L140.401 157.19C138.394 156.549 136.294 156.223 134.182 156.223C123.032 156.223 113.988 165.09 113.988 176.045C113.988 186.995 123.032 195.861 134.182 195.861C137.656 195.865 141.072 194.988 144.093 193.312C146.988 191.708 149.434 189.434 151.216 186.692C152.998 183.95 154.062 180.823 154.313 177.585V177.531C154.331 177.464 154.331 177.392 154.331 177.331C154.334 177.262 154.34 177.197 154.345 177.135C154.351 177.052 154.357 176.974 154.357 176.891C154.407 175.707 154.407 174.505 154.407 173.297V83.0501H178.348C178.304 83.0501 178.056 85.2847 178.657 88.7452H178.632C179.35 92.9064 181.315 98.8552 186.573 104.72C188.673 106.932 191.038 108.891 193.617 110.554Z" fill="black"/>
</svg>
