<svg width="302" height="302" viewBox="0 0 302 302" fill="none" xmlns="http://www.w3.org/2000/svg">
<path d="M150.998 6.04004C70.9383 6.04004 6.03851 70.9398 6.03851 151C6.03851 231.06 70.9383 295.96 150.998 295.96C231.059 295.96 295.958 231.06 295.958 151C295.958 70.9398 231.059 6.04004 150.998 6.04004ZM115.513 211.083H86.1591V116.617H115.513V211.083ZM100.655 105.021C91.3837 105.021 85.389 98.452 85.389 90.3282C85.389 82.0383 91.5649 75.6661 101.033 75.6661C110.5 75.6661 116.299 82.0383 116.48 90.3282C116.48 98.452 110.5 105.021 100.655 105.021ZM222.723 211.083H193.369V158.731C193.369 146.546 189.111 138.271 178.496 138.271C170.387 138.271 165.57 143.873 163.441 149.264C162.656 151.181 162.459 153.899 162.459 156.602V211.068H133.09V146.742C133.09 134.949 132.712 125.088 132.32 116.602H157.824L159.168 129.724H159.756C163.622 123.563 173.09 114.473 188.93 114.473C208.243 114.473 222.723 127.414 222.723 155.228V211.083Z" fill="black"/>
</svg>
