<svg width="302" height="302" viewBox="0 0 302 302" fill="none" xmlns="http://www.w3.org/2000/svg">
<path fill-rule="evenodd" clip-rule="evenodd" d="M150.999 6.04004C112.553 6.04004 75.6817 21.3125 48.4964 48.4978C21.3111 75.6831 6.03857 112.554 6.03857 151C6.03857 189.446 21.3111 226.317 48.4964 253.502C75.6817 280.688 112.553 295.96 150.999 295.96C170.035 295.96 188.884 292.211 206.473 284.925C224.06 277.641 240.04 266.964 253.5 253.502C266.962 240.042 277.639 224.061 284.923 206.474C292.209 188.886 295.959 170.037 295.959 151C295.959 131.964 292.209 113.114 284.923 95.5263C277.639 77.9389 266.962 61.9585 253.5 48.4978C240.04 35.0371 224.06 24.3594 206.473 17.0744C188.884 9.78953 170.035 6.04004 150.999 6.04004ZM123.792 151C123.792 136.029 136.01 123.812 150.981 123.812C165.952 123.812 178.169 136.029 178.169 151C178.169 165.972 165.952 178.189 150.981 178.189C136.01 178.189 123.792 165.972 123.792 151ZM232.528 146.882C232.526 148.253 232.525 149.626 232.525 151C232.525 152.537 232.528 154.071 232.529 155.606C232.545 165.306 232.558 174.95 231.995 184.653C231.362 197.707 228.406 209.272 218.84 218.838C209.294 228.385 197.709 231.362 184.655 231.993C174.789 232.549 164.984 232.539 155.119 232.528C153.748 232.526 152.376 232.525 151.002 232.525C149.63 232.525 148.26 232.526 146.89 232.528C137.038 232.539 127.232 232.549 117.347 231.993C104.293 231.362 92.7287 228.404 83.1627 218.838C73.6172 209.292 70.6394 197.707 70.0071 184.653C69.4521 174.787 69.4629 164.968 69.4738 155.112C69.4753 153.742 69.4768 152.371 69.4768 151C69.4768 149.629 69.4753 148.258 69.4738 146.889C69.4629 137.037 69.4521 127.231 70.0071 117.346C70.6394 104.292 73.5969 92.7277 83.1627 83.1618C92.7083 73.6162 104.293 70.6383 117.347 70.0061C127.214 69.451 137.017 69.4619 146.883 69.4728C148.254 69.4743 149.627 69.4758 151.002 69.4758C152.373 69.4758 153.742 69.4743 155.112 69.4728C164.965 69.4619 174.77 69.451 184.655 70.0061C197.709 70.6383 209.274 73.5958 218.84 83.1618C228.385 92.7073 231.362 104.292 231.995 117.346C232.551 127.213 232.539 137.017 232.528 146.882ZM109.148 151C109.148 174.15 127.831 192.833 150.981 192.833C174.13 192.833 192.813 174.15 192.813 151C192.813 127.85 174.13 109.167 150.981 109.167C127.831 109.167 109.148 127.85 109.148 151ZM184.758 107.454C184.758 112.859 189.122 117.224 194.527 117.224C195.811 117.225 197.082 116.974 198.268 116.483C199.453 115.993 200.531 115.273 201.439 114.366C202.346 113.458 203.066 112.381 203.556 111.195C204.046 110.008 204.299 108.737 204.297 107.454C204.297 102.049 199.932 97.6839 194.527 97.6839C189.122 97.6839 184.758 102.049 184.758 107.454Z" fill="black"/>
</svg>
