<svg width="302" height="302" viewBox="0 0 302 302" fill="none" xmlns="http://www.w3.org/2000/svg">
<path d="M150.999 6.04004C70.9383 6.04004 6.03857 70.9398 6.03857 151C6.03857 231.06 70.9383 295.96 150.999 295.96C231.059 295.96 295.959 231.06 295.959 151C295.959 70.9398 231.059 6.04004 150.999 6.04004ZM209.964 124.786C210.024 126.025 210.04 127.263 210.04 128.471C210.04 166.221 181.334 209.724 128.817 209.724C113.298 209.75 98.1028 205.294 85.0569 196.889C87.2766 197.161 89.5566 197.266 91.8669 197.266C105.246 197.266 117.552 192.721 127.322 185.051C121.368 184.934 115.599 182.962 110.819 179.411C106.039 175.859 102.486 170.906 100.655 165.239C104.931 166.052 109.335 165.883 113.535 164.741C107.073 163.435 101.262 159.933 97.0872 154.831C92.9122 149.728 90.6304 143.339 90.6288 136.746V136.398C94.4793 138.527 98.8884 139.826 103.569 139.977C97.5113 135.944 93.2228 129.749 91.5808 122.659C89.9388 115.569 91.0674 108.12 94.7359 101.834C101.908 110.653 110.852 117.867 120.988 123.009C131.125 128.152 142.229 131.108 153.581 131.687C152.137 125.561 152.759 119.13 155.347 113.394C157.937 107.657 162.348 102.937 167.897 99.9661C173.445 96.9955 179.82 95.9413 186.029 96.9672C192.238 97.9933 197.935 101.042 202.233 105.64C208.623 104.375 214.751 102.032 220.353 98.7087C218.224 105.325 213.765 110.942 207.805 114.518C213.466 113.837 218.992 112.315 224.203 110.004C220.375 115.74 215.553 120.746 209.964 124.786Z" fill="black"/>
</svg>
