<svg width="302" height="302" viewBox="0 0 302 302" fill="none" xmlns="http://www.w3.org/2000/svg">
<path d="M175.204 148.478L141.289 132.654C138.33 131.279 135.899 132.82 135.899 136.096V165.904C135.899 169.18 138.33 170.721 141.289 169.347L175.189 153.522C178.163 152.133 178.163 149.868 175.204 148.478ZM150.999 6.04004C70.9383 6.04004 6.03857 70.9398 6.03857 151C6.03857 231.06 70.9383 295.96 150.999 295.96C231.059 295.96 295.959 231.06 295.959 151C295.959 70.9398 231.059 6.04004 150.999 6.04004ZM150.999 209.89C76.7971 209.89 75.4985 203.201 75.4985 151C75.4985 98.7993 76.7971 92.11 150.999 92.11C225.2 92.11 226.499 98.7993 226.499 151C226.499 203.201 225.2 209.89 150.999 209.89Z" fill="black"/>
</svg>
