<svg width="200" height="200" viewBox="0 0 200 200" fill="none" xmlns="http://www.w3.org/2000/svg">
<path d="M101.507 25C81.2738 25 78.7346 25.0885 70.7878 25.4501C62.8566 25.8133 57.4429 27.0689 52.7059 28.9113C47.8059 30.8141 43.6494 33.3595 39.5084 37.502C35.3643 41.643 32.8188 45.7995 30.9097 50.6978C29.0627 55.4364 27.8055 60.8516 27.4486 68.7796C27.0931 76.7263 27 79.267 27 99.5C27 119.733 27.09 122.264 27.4501 130.211C27.8149 138.142 29.0705 143.556 30.9113 148.293C32.8157 153.193 35.3612 157.349 39.5037 161.49C43.6432 165.634 47.7997 168.186 52.6966 170.089C57.4367 171.931 62.8519 173.187 70.7816 173.55C78.7284 173.912 81.2661 174 101.498 174C121.732 174 124.264 173.912 132.211 173.55C140.142 173.187 145.562 171.931 150.302 170.089C155.2 168.186 159.351 165.634 163.49 161.49C167.634 157.349 170.18 153.193 172.089 148.294C173.92 143.556 175.177 138.141 175.55 130.213C175.907 122.266 176 119.733 176 99.5C176 79.267 175.907 76.7278 175.55 68.7812C175.177 60.85 173.92 55.4364 172.089 50.6994C170.18 45.7995 167.634 41.643 163.49 37.502C159.346 33.358 155.202 30.8126 150.297 28.9113C145.548 27.0689 140.131 25.8133 132.2 25.4501C124.253 25.0885 121.723 25 101.484 25H101.507ZM94.8236 38.4255C96.8072 38.4224 99.0205 38.4255 101.507 38.4255C121.399 38.4255 123.756 38.4969 131.612 38.8539C138.875 39.186 142.818 40.3998 145.444 41.4195C148.921 42.7698 151.399 44.384 154.005 46.9915C156.613 49.599 158.227 52.0823 159.58 55.559C160.6 58.182 161.815 62.1243 162.146 69.388C162.503 77.2416 162.581 79.6007 162.581 99.4829C162.581 119.365 162.503 121.724 162.146 129.578C161.814 136.842 160.6 140.784 159.58 143.407C158.23 146.884 156.613 149.359 154.005 151.965C151.398 154.573 148.922 156.187 145.444 157.537C142.821 158.561 138.875 159.772 131.612 160.104C123.758 160.461 121.399 160.539 101.507 160.539C81.6137 160.539 79.2561 160.461 71.4025 160.104C64.1386 159.769 60.1963 158.555 57.5686 157.536C54.0919 156.185 51.6085 154.571 49.001 151.964C46.3935 149.356 44.7793 146.879 43.4259 143.401C42.4061 140.778 41.1908 136.835 40.8602 129.572C40.5033 121.718 40.4319 119.359 40.4319 99.4643C40.4319 79.5697 40.5033 77.223 40.8602 69.3694C41.1924 62.1057 42.4061 58.1634 43.4259 55.5372C44.7762 52.0606 46.3935 49.5772 49.001 46.9697C51.6085 44.3622 54.0919 42.7481 57.5686 41.3947C60.1948 40.3703 64.1386 39.1597 71.4025 38.826C78.2752 38.5155 80.9386 38.4224 94.8236 38.4069V38.4255ZM141.275 50.7956C136.339 50.7956 132.335 54.7953 132.335 59.7325C132.335 64.6681 136.339 68.6725 141.275 68.6725C146.211 68.6725 150.215 64.6681 150.215 59.7325C150.215 54.7969 146.211 50.7925 141.275 50.7925V50.7956ZM101.507 61.2411C80.3782 61.2411 63.2477 78.3715 63.2477 99.5C63.2477 120.629 80.3782 137.751 101.507 137.751C122.636 137.751 139.76 120.629 139.76 99.5C139.76 78.3715 122.634 61.2411 101.505 61.2411H101.507ZM101.507 74.6667C115.221 74.6667 126.341 85.7842 126.341 99.5C126.341 113.214 115.221 124.333 101.507 124.333C87.7911 124.333 76.6734 113.214 76.6734 99.5C76.6734 85.7842 87.7911 74.6667 101.507 74.6667V74.6667Z" fill="black"/>
</svg>
