<svg width="200" height="200" viewBox="0 0 200 200" fill="none" xmlns="http://www.w3.org/2000/svg">
<path fill-rule="evenodd" clip-rule="evenodd" d="M43 28C34.7157 28 28 34.7157 28 43V157C28 165.284 34.7157 172 43 172H157C165.284 172 172 165.284 172 157V43C172 34.7157 165.284 28 157 28H43ZM127.477 142.171H146.286V103.532C146.286 87.1831 137.018 79.2783 124.074 79.2783C111.123 79.2783 105.673 89.3634 105.673 89.3634V81.1428H87.5458V142.171H105.673V110.135C105.673 101.551 109.624 96.4432 117.187 96.4432C124.139 96.4432 127.477 101.352 127.477 110.135V142.171ZM54.7429 61.8901C54.7429 68.1091 59.7462 73.1516 65.9206 73.1516C72.0949 73.1516 77.0952 68.1091 77.0952 61.8901C77.0952 55.6711 72.0949 50.6285 65.9206 50.6285C59.7462 50.6285 54.7429 55.6711 54.7429 61.8901ZM75.4622 142.171H56.5607V81.1428H75.4622V142.171Z" fill="black"/>
</svg>
