<svg width="100" height="36" viewBox="0 0 100 36" fill="none" xmlns="http://www.w3.org/2000/svg">
<path d="M32.125 27.5V10.0455H39.6591C40.9545 10.0455 42.0881 10.3011 43.0597 10.8125C44.0313 11.3239 44.7869 12.0426 45.3267 12.9688C45.8665 13.8949 46.1364 14.9773 46.1364 16.2159C46.1364 17.4659 45.858 18.5483 45.3011 19.4631C44.75 20.3778 43.9744 21.0824 42.9744 21.5767C41.9801 22.071 40.8182 22.3182 39.4886 22.3182H34.9886V18.6364H38.5341C39.0909 18.6364 39.5653 18.5398 39.9574 18.3466C40.3551 18.1477 40.6591 17.8665 40.8693 17.5028C41.0852 17.1392 41.1932 16.7102 41.1932 16.2159C41.1932 15.7159 41.0852 15.2898 40.8693 14.9375C40.6591 14.5795 40.3551 14.3068 39.9574 14.1193C39.5653 13.9261 39.0909 13.8295 38.5341 13.8295H36.8636V27.5H32.125ZM46.675 27.5V10.0455H59.2545V13.8636H51.4136V16.8636H58.6068V20.6818H51.4136V23.6818H59.2205V27.5H46.675ZM51.4477 8.40909L53.0841 4.59091H57.1068L54.55 8.40909H51.4477ZM59.6888 10.0455H64.9729L68.382 17.1364H68.5183L71.9274 10.0455H77.2115L70.8024 22.0114V27.5H66.0979V22.0114L59.6888 10.0455ZM93.2466 18.7727C93.2466 20.7159 92.8688 22.3551 92.1131 23.6903C91.3574 25.0199 90.3375 26.0284 89.0534 26.7159C87.7693 27.3977 86.3375 27.7386 84.758 27.7386C83.167 27.7386 81.7295 27.3949 80.4455 26.7074C79.167 26.0142 78.15 25.0028 77.3943 23.6733C76.6443 22.3381 76.2693 20.7045 76.2693 18.7727C76.2693 16.8295 76.6443 15.1932 77.3943 13.8636C78.15 12.5284 79.167 11.5199 80.4455 10.8381C81.7295 10.1506 83.167 9.80682 84.758 9.80682C86.3375 9.80682 87.7693 10.1506 89.0534 10.8381C90.3375 11.5199 91.3574 12.5284 92.1131 13.8636C92.8688 15.1932 93.2466 16.8295 93.2466 18.7727ZM88.3716 18.7727C88.3716 17.7273 88.2324 16.8466 87.954 16.1307C87.6813 15.4091 87.275 14.8636 86.7352 14.4943C86.2011 14.1193 85.542 13.9318 84.758 13.9318C83.9739 13.9318 83.3119 14.1193 82.7722 14.4943C82.2381 14.8636 81.8318 15.4091 81.5534 16.1307C81.2807 16.8466 81.1443 17.7273 81.1443 18.7727C81.1443 19.8182 81.2807 20.7017 81.5534 21.4233C81.8318 22.1392 82.2381 22.6847 82.7722 23.0597C83.3119 23.429 83.9739 23.6136 84.758 23.6136C85.542 23.6136 86.2011 23.429 86.7352 23.0597C87.275 22.6847 87.6813 22.1392 87.954 21.4233C88.2324 20.7017 88.3716 19.8182 88.3716 18.7727Z" fill="black"/>
<circle cx="13.5061" cy="14.5686" r="3.84205" fill="#4909FF"/>
<path d="M7 10.7266H13.6497L9.95542 15.0119L7.59108 12.6476H8.92102L7 10.7266Z" fill="#4909FF"/>
<path d="M22.2109 10.433L15.024 22.8812C14.9843 22.9499 14.9616 23.027 14.9576 23.1062L14.7756 26.7403C14.7553 27.1472 15.2041 27.4064 15.5463 27.1852L18.6026 25.2106C18.6692 25.1676 18.7246 25.1093 18.7642 25.0406L25.9512 12.5925C26.0893 12.3533 26.0073 12.0475 25.7682 11.9094L22.894 10.25C22.6548 10.1119 22.349 10.1939 22.2109 10.433Z" fill="black"/>
</svg>
