<svg width="287" height="82" viewBox="0 0 287 82" fill="none" xmlns="http://www.w3.org/2000/svg">
<path d="M44.85 21.47L40.44 20.84L44.43 17.57H45.15L47.58 32.33L46.41 32.6L39.57 22.4L42.3 25.58C40.72 24.04 39.17 22.96 37.65 22.34C36.15 21.7 34.62 21.38 33.06 21.38C30.64 21.38 28.9 21.9 27.84 22.94C26.8 23.98 26.28 25.32 26.28 26.96C26.28 28.16 26.57 29.16 27.15 29.96C27.75 30.76 28.56 31.44 29.58 32C30.6 32.56 31.76 33.07 33.06 33.53C34.36 33.97 35.73 34.43 37.17 34.91C38.61 35.39 40.04 35.95 41.46 36.59C42.88 37.23 44.18 38.05 45.36 39.05C46.54 40.03 47.49 41.26 48.21 42.74C48.93 44.22 49.29 46.05 49.29 48.23C49.29 51.27 48.47 53.88 46.83 56.06C45.21 58.24 43.03 59.91 40.29 61.07C37.57 62.23 34.53 62.81 31.17 62.81C29.01 62.81 27.03 62.68 25.23 62.42C23.43 62.16 21.55 61.68 19.59 60.98L17.16 48.74H18.36L27 61.25L21.06 57.41C22.86 58.37 24.48 59.1 25.92 59.6C27.38 60.08 28.9 60.32 30.48 60.32C32.86 60.32 34.79 60.01 36.27 59.39C37.77 58.75 38.87 57.87 39.57 56.75C40.27 55.61 40.62 54.29 40.62 52.79C40.62 51.29 40.26 50.06 39.54 49.1C38.84 48.12 37.9 47.31 36.72 46.67C35.56 46.01 34.27 45.44 32.85 44.96C31.45 44.48 30.05 43.99 28.65 43.49C27.25 42.99 25.91 42.43 24.63 41.81C23.37 41.17 22.24 40.41 21.24 39.53C20.26 38.63 19.48 37.53 18.9 36.23C18.34 34.93 18.06 33.36 18.06 31.52C18.06 28.94 18.72 26.71 20.04 24.83C21.36 22.93 23.23 21.47 25.65 20.45C28.07 19.41 30.91 18.89 34.17 18.89C36.19 18.89 38.03 19.1 39.69 19.52C41.35 19.92 43.07 20.57 44.85 21.47ZM67.1939 31.55C69.6139 31.55 71.5439 31.81 72.9839 32.33C74.4439 32.85 75.4939 33.5 76.1339 34.28C76.7739 35.06 77.0939 35.87 77.0939 36.71C77.0939 37.45 76.9139 38.1 76.5539 38.66C76.1939 39.22 75.7239 39.66 75.1439 39.98C74.5639 40.28 73.9439 40.43 73.2839 40.43C72.9639 40.43 72.5639 40.21 72.0839 39.77C71.6239 39.31 71.1039 38.75 70.5239 38.09C69.9439 37.43 69.3239 36.78 68.6639 36.14C68.0039 35.48 67.3239 34.93 66.6239 34.49C65.9239 34.03 65.2339 33.8 64.5539 33.8C63.5939 33.8 62.7339 34.1 61.9739 34.7C61.2339 35.28 60.6439 36.25 60.2039 37.61C59.7839 38.95 59.5739 40.77 59.5739 43.07C59.5739 46.19 59.9339 48.72 60.6539 50.66C61.3739 52.58 62.4139 53.98 63.7739 54.86C65.1539 55.74 66.8139 56.18 68.7539 56.18C70.3339 56.18 71.7439 55.94 72.9839 55.46C74.2239 54.96 75.4739 54.09 76.7339 52.85L77.5439 53.63C76.2039 55.91 74.8639 57.72 73.5239 59.06C72.1839 60.38 70.7739 61.33 69.2939 61.91C67.8339 62.49 66.2439 62.78 64.5239 62.78C61.6639 62.78 59.1539 62.18 56.9939 60.98C54.8539 59.76 53.1839 58.03 51.9839 55.79C50.7839 53.55 50.1839 50.88 50.1839 47.78C50.1839 45.46 50.6039 43.32 51.4439 41.36C52.3039 39.38 53.4939 37.66 55.0139 36.2C56.5539 34.72 58.3539 33.58 60.4139 32.78C62.4939 31.96 64.7539 31.55 67.1939 31.55ZM100.137 31.73C101.297 31.73 102.187 32.08 102.807 32.78C103.427 33.48 103.737 34.38 103.737 35.48C103.737 36.92 103.277 38.11 102.357 39.05C101.437 39.99 100.327 40.46 99.0267 40.46C98.1867 40.46 97.4667 40.38 96.8667 40.22C96.2667 40.06 95.6867 39.91 95.1267 39.77C94.5867 39.61 93.9367 39.53 93.1767 39.53C92.6167 39.53 92.0967 39.59 91.6167 39.71C91.1567 39.83 90.7167 40.03 90.2967 40.31C89.8967 40.57 89.4767 40.91 89.0367 41.33L88.8867 39.89C90.4267 38.15 91.7467 36.75 92.8467 35.69C93.9667 34.61 94.9367 33.79 95.7567 33.23C96.5967 32.65 97.3567 32.26 98.0367 32.06C98.7367 31.84 99.4367 31.73 100.137 31.73ZM90.1767 37.7V59.84L94.0467 61.01V62H76.9167V61.01L80.1867 59.9V39.5C79.9267 39.18 79.6367 38.88 79.3167 38.6C79.0167 38.3 78.6367 37.95 78.1767 37.55C77.7367 37.15 77.1667 36.62 76.4667 35.96V35.06L89.3367 31.46H89.9967L90.1767 37.7ZM117.532 60.56C118.732 60.56 119.712 60.14 120.472 59.3C121.252 58.44 121.822 57.1 122.182 55.28C122.542 53.44 122.722 51.04 122.722 48.08C122.722 44.92 122.552 42.29 122.212 40.19C121.872 38.07 121.302 36.48 120.502 35.42C119.722 34.34 118.692 33.8 117.412 33.8C116.192 33.8 115.202 34.22 114.442 35.06C113.682 35.9 113.112 37.24 112.732 39.08C112.372 40.92 112.192 43.31 112.192 46.25C112.192 49.41 112.362 52.05 112.702 54.17C113.062 56.29 113.632 57.89 114.412 58.97C115.192 60.03 116.232 60.56 117.532 60.56ZM117.142 62.78C114.082 62.78 111.402 62.13 109.102 60.83C106.802 59.53 105.002 57.72 103.702 55.4C102.422 53.08 101.782 50.39 101.782 47.33C101.782 44.23 102.472 41.5 103.852 39.14C105.232 36.76 107.132 34.9 109.552 33.56C111.972 32.22 114.712 31.55 117.772 31.55C120.872 31.55 123.572 32.2 125.872 33.5C128.172 34.8 129.962 36.61 131.242 38.93C132.522 41.25 133.162 43.94 133.162 47C133.162 50.1 132.452 52.84 131.032 55.22C129.632 57.6 127.722 59.46 125.302 60.8C122.902 62.12 120.182 62.78 117.142 62.78ZM146.158 59.9L149.458 61.01V62H132.898V61.01L136.168 59.9V25.76C135.908 25.52 135.548 25.21 135.088 24.83C134.648 24.45 134.108 24.02 133.468 23.54C132.848 23.06 132.148 22.54 131.368 21.98V21.02L145.618 17.72H146.278L146.158 23.87V59.9ZM161.79 59.9L165.09 61.01V62H148.53V61.01L151.8 59.9V25.76C151.54 25.52 151.18 25.21 150.72 24.83C150.28 24.45 149.74 24.02 149.1 23.54C148.48 23.06 147.78 22.54 147 21.98V21.02L161.25 17.72H161.91L161.79 23.87V59.9ZM182.553 43.25V45.02C180.833 45.6 179.433 46.17 178.353 46.73C177.293 47.27 176.473 47.84 175.893 48.44C175.333 49.02 174.943 49.66 174.723 50.36C174.523 51.04 174.423 51.81 174.423 52.67C174.423 54.23 174.733 55.36 175.353 56.06C175.993 56.74 176.823 57.08 177.843 57.08C178.503 57.08 179.083 56.94 179.583 56.66C180.083 56.36 180.473 55.92 180.753 55.34C181.033 54.74 181.173 53.99 181.173 53.09V39.47C181.173 37.97 180.763 36.79 179.943 35.93C179.143 35.07 177.903 34.64 176.223 34.64C175.383 34.64 174.603 34.69 173.883 34.79C173.163 34.87 172.543 34.99 172.023 35.15L173.253 33.32C173.093 34.64 172.933 35.74 172.773 36.62C172.633 37.48 172.473 38.17 172.293 38.69C172.113 39.21 171.903 39.63 171.663 39.95C171.323 40.37 170.833 40.72 170.193 41C169.573 41.26 168.883 41.39 168.123 41.39C167.123 41.39 166.373 41.22 165.873 40.88C165.393 40.54 165.153 40.07 165.153 39.47C165.153 38.57 165.593 37.66 166.473 36.74C167.353 35.82 168.533 34.97 170.013 34.19C171.493 33.41 173.143 32.78 174.963 32.3C176.803 31.82 178.673 31.58 180.573 31.58C183.173 31.58 185.243 31.96 186.783 32.72C188.343 33.46 189.463 34.53 190.143 35.93C190.823 37.31 191.163 38.94 191.163 40.82V56.24C191.163 56.74 191.243 57.15 191.403 57.47C191.563 57.79 191.793 58.03 192.093 58.19C192.393 58.33 192.743 58.4 193.143 58.4C193.623 58.4 194.103 58.34 194.583 58.22C195.063 58.08 195.553 57.88 196.053 57.62V59.18C194.633 60.52 193.263 61.46 191.943 62C190.623 62.52 189.173 62.78 187.593 62.78C186.093 62.78 184.883 62.5 183.963 61.94C183.063 61.38 182.403 60.53 181.983 59.39C181.563 58.23 181.323 56.78 181.263 55.04L181.653 55.25C181.253 56.93 180.663 58.33 179.883 59.45C179.103 60.55 178.173 61.38 177.093 61.94C176.013 62.48 174.793 62.75 173.433 62.75C170.713 62.75 168.593 62.07 167.073 60.71C165.573 59.33 164.823 57.44 164.823 55.04C164.823 53.82 165.043 52.73 165.483 51.77C165.923 50.79 166.753 49.87 167.973 49.01C169.193 48.13 170.973 47.23 173.313 46.31C175.673 45.39 178.753 44.37 182.553 43.25ZM198.9 60.08L202.5 59.87L195.81 63.05L195.18 62.69L196.56 55.52V25.91C196.3 25.63 195.95 25.3 195.51 24.92C195.07 24.54 194.54 24.1 193.92 23.6C193.3 23.08 192.6 22.52 191.82 21.92V20.99L206.07 17.72H206.76L206.55 23.81V55.37C206.55 56.43 206.73 57.36 207.09 58.16C207.47 58.94 208.01 59.55 208.71 59.99C209.41 60.41 210.23 60.62 211.17 60.62C212.43 60.62 213.51 60.21 214.41 59.39C215.31 58.55 216 57.19 216.48 55.31C216.96 53.43 217.2 50.93 217.2 47.81C217.2 45.17 216.96 43.05 216.48 41.45C216 39.85 215.28 38.69 214.32 37.97C213.38 37.25 212.18 36.89 210.72 36.89C210.04 36.89 209.38 36.96 208.74 37.1C208.1 37.24 207.46 37.46 206.82 37.76C206.2 38.06 205.58 38.48 204.96 39.02L204.48 37.79C205.74 36.53 206.88 35.5 207.9 34.7C208.94 33.9 209.9 33.27 210.78 32.81C211.66 32.35 212.51 32.03 213.33 31.85C214.15 31.65 214.98 31.55 215.82 31.55C218.3 31.55 220.41 32.09 222.15 33.17C223.89 34.23 225.22 35.79 226.14 37.85C227.08 39.89 227.55 42.38 227.55 45.32C227.55 48.18 227.11 50.7 226.23 52.88C225.35 55.04 224.13 56.86 222.57 58.34C221.01 59.82 219.19 60.93 217.11 61.67C215.03 62.41 212.78 62.78 210.36 62.78C209.02 62.78 207.71 62.69 206.43 62.51C205.17 62.33 203.92 62.04 202.68 61.64C201.44 61.24 200.18 60.72 198.9 60.08ZM240.623 59.9L243.923 61.01V62H227.363V61.01L230.633 59.9V25.76C230.373 25.52 230.013 25.21 229.553 24.83C229.113 24.45 228.573 24.02 227.933 23.54C227.313 23.06 226.613 22.54 225.832 21.98V21.02L240.083 17.72H240.743L240.623 23.87V59.9ZM258.895 31.55C261.395 31.55 263.515 32.05 265.255 33.05C266.995 34.03 268.355 35.45 269.335 37.31C270.315 39.17 270.905 41.41 271.105 44.03H251.095V41.63L266.725 41.45L262.135 42.95C262.035 40.67 261.815 38.87 261.475 37.55C261.155 36.21 260.705 35.25 260.125 34.67C259.545 34.09 258.825 33.8 257.965 33.8C256.945 33.8 256.065 34.11 255.325 34.73C254.585 35.35 254.015 36.4 253.615 37.88C253.235 39.34 253.045 41.36 253.045 43.94C253.045 46.82 253.415 49.16 254.155 50.96C254.895 52.76 255.975 54.08 257.395 54.92C258.835 55.76 260.585 56.18 262.645 56.18C263.685 56.18 264.645 56.07 265.525 55.85C266.425 55.61 267.305 55.24 268.165 54.74C269.025 54.22 269.885 53.54 270.745 52.7L271.555 53.51C270.215 55.75 268.855 57.55 267.475 58.91C266.115 60.27 264.675 61.26 263.155 61.88C261.655 62.48 260.005 62.78 258.205 62.78C255.305 62.78 252.765 62.18 250.585 60.98C248.405 59.76 246.705 58.03 245.485 55.79C244.265 53.53 243.655 50.85 243.655 47.75C243.655 44.85 244.235 42.17 245.395 39.71C246.555 37.25 248.265 35.28 250.525 33.8C252.805 32.3 255.595 31.55 258.895 31.55Z" fill="black"/>
</svg>
