<svg width="200" height="200" viewBox="0 0 200 200" fill="none" xmlns="http://www.w3.org/2000/svg">
<path d="M182.409 47.4051C176.447 50.1732 170.042 52.0604 163.258 52.96C170.077 48.6645 175.221 41.9056 177.478 33.8949C171.102 37.8687 163.998 40.7869 156.367 42.3649C150.013 35.7273 141.131 31.62 131.473 31.6922C112.886 31.8311 98.3127 47.291 98.8911 66.2101C98.9733 68.8977 99.3312 71.5125 99.9986 74.0188C71.9888 72.8134 46.7663 59.3488 29.5601 38.7148C26.8312 43.7932 25.3442 49.7113 25.5356 55.9705C25.8988 67.8524 32.1954 78.3104 41.4163 84.396C35.8534 84.2961 30.5946 82.7791 25.9993 80.2314L26.0123 80.6557C26.5205 97.2762 38.5468 111.016 54.0333 114.049C51.2431 114.848 48.2683 115.294 45.2111 115.317C43.0571 115.333 40.9314 115.137 38.8687 114.728C43.5582 128.311 56.2982 138.119 71.0371 138.292C59.8189 147.572 45.4647 153.162 29.6923 153.28C26.9824 153.3 24.302 153.143 21.6519 152.845C36.7869 162.565 54.6432 168.091 73.6118 167.949C135.555 167.486 167.796 115.002 166.411 69.7022C166.366 68.217 166.285 66.732 166.172 65.2826C172.59 60.3888 178.103 54.3346 182.409 47.4051Z" fill="black"/>
</svg>
