<svg width="200" height="200" viewBox="0 0 200 200" fill="none" xmlns="http://www.w3.org/2000/svg">
<g clip-path="url(#clip0_3343_1366)">
<path fill-rule="evenodd" clip-rule="evenodd" d="M177.921 33.88C186.527 36.1816 193.24 42.9202 195.567 51.5257C201.654 76.0762 201.257 122.492 195.695 147.426C193.393 156.032 186.655 162.745 178.049 165.072C153.755 171.082 44.9393 170.34 22.051 165.072C13.4456 162.77 6.73252 156.032 4.40534 147.426C-1.33591 124.027 -0.939524 74.5418 4.27747 51.6535C6.57908 43.0481 13.3177 36.335 21.9232 34.0078C54.4015 27.2309 166.362 29.4174 177.921 33.88ZM129.546 97.0526C130.216 97.4368 130.216 98.4032 129.546 98.7875L80.3863 126.982C79.7197 127.365 78.8888 126.883 78.8888 126.115V69.7254C78.8888 68.9569 79.7197 68.4756 80.3863 68.8579L129.546 97.0526Z" fill="black"/>
</g>
<defs>
<clipPath id="clip0_3343_1366">
<rect width="200" height="200" fill="white"/>
</clipPath>
</defs>
</svg>
