<svg width="497" height="123" viewBox="0 0 497 123" fill="none" xmlns="http://www.w3.org/2000/svg">
<path d="M132.971 93H118.141L140.737 27.5455H158.571L181.135 93H166.305L149.91 42.5028H149.398L132.971 93ZM132.044 67.272H167.072V78.0746H132.044V67.272ZM186.057 93V43.9091H199.257V52.4744H199.768C200.663 49.4276 202.165 47.1264 204.275 45.571C206.384 43.9943 208.813 43.206 211.562 43.206C212.244 43.206 212.979 43.2486 213.767 43.3338C214.555 43.419 215.248 43.5362 215.844 43.6854V55.7663C215.205 55.5746 214.321 55.4041 213.192 55.255C212.062 55.1058 211.029 55.0312 210.092 55.0312C208.089 55.0312 206.299 55.468 204.722 56.3416C203.167 57.1939 201.931 58.3871 201.015 59.9212C200.12 61.4553 199.673 63.2237 199.673 65.2266V93H186.057ZM232.776 93.9268C229.644 93.9268 226.853 93.3835 224.402 92.2969C221.952 91.1889 220.013 89.5589 218.586 87.407C217.179 85.2337 216.476 82.5277 216.476 79.2891C216.476 76.5618 216.977 74.2713 217.978 72.4176C218.98 70.5639 220.343 69.0724 222.069 67.9432C223.795 66.8139 225.755 65.9616 227.95 65.3864C230.166 64.8111 232.488 64.4062 234.917 64.1719C237.772 63.8736 240.074 63.5966 241.821 63.3409C243.568 63.0639 244.836 62.6591 245.624 62.1264C246.412 61.5937 246.806 60.8054 246.806 59.7614V59.5696C246.806 57.5455 246.167 55.9794 244.889 54.8714C243.632 53.7635 241.842 53.2095 239.52 53.2095C237.069 53.2095 235.12 53.7528 233.671 54.8395C232.222 55.9048 231.263 57.2472 230.794 58.8665L218.202 57.8438C218.841 54.8608 220.098 52.2827 221.973 50.1094C223.848 47.9148 226.267 46.2315 229.228 45.0597C232.211 43.8665 235.663 43.2699 239.583 43.2699C242.311 43.2699 244.921 43.5895 247.414 44.2287C249.928 44.8679 252.155 45.8587 254.093 47.201C256.054 48.5433 257.598 50.2692 258.728 52.3786C259.857 54.4666 260.422 56.9702 260.422 59.8892V93H247.51V86.1925H247.126C246.338 87.7266 245.283 89.0795 243.962 90.2514C242.641 91.402 241.054 92.3075 239.2 92.968C237.346 93.6072 235.205 93.9268 232.776 93.9268ZM236.675 84.5305C238.678 84.5305 240.446 84.1364 241.981 83.348C243.515 82.5384 244.718 81.4517 245.592 80.0881C246.466 78.7244 246.902 77.1797 246.902 75.4538V70.2443C246.476 70.5213 245.89 70.777 245.145 71.0114C244.42 71.2244 243.6 71.4268 242.684 71.6186C241.767 71.7891 240.851 71.9489 239.935 72.098C239.019 72.2259 238.188 72.343 237.442 72.4496C235.844 72.6839 234.449 73.0568 233.255 73.5682C232.062 74.0795 231.135 74.772 230.475 75.6456C229.814 76.4979 229.484 77.5632 229.484 78.8416C229.484 80.6953 230.155 82.1122 231.498 83.0923C232.861 84.0511 234.587 84.5305 236.675 84.5305ZM290.465 93.9588C285.436 93.9588 281.111 92.8935 277.489 90.7628C273.888 88.6108 271.118 85.6278 269.179 81.8139C267.262 78 266.303 73.6108 266.303 68.6463C266.303 63.6179 267.272 59.2074 269.211 55.4148C271.171 51.6009 273.952 48.6285 277.553 46.4979C281.154 44.3459 285.436 43.2699 290.401 43.2699C294.684 43.2699 298.434 44.0476 301.651 45.603C304.868 47.1584 307.414 49.3423 309.289 52.1548C311.164 54.9673 312.198 58.2699 312.39 62.0625H299.542C299.179 59.6122 298.22 57.6413 296.665 56.1499C295.131 54.6371 293.118 53.8807 290.625 53.8807C288.515 53.8807 286.672 54.456 285.095 55.6065C283.54 56.7358 282.326 58.3871 281.452 60.5604C280.578 62.7337 280.142 65.3651 280.142 68.4545C280.142 71.5866 280.568 74.25 281.42 76.4446C282.294 78.6392 283.519 80.3118 285.095 81.4624C286.672 82.6129 288.515 83.1882 290.625 83.1882C292.18 83.1882 293.576 82.8686 294.811 82.2294C296.068 81.5902 297.102 80.6634 297.912 79.4489C298.743 78.2131 299.286 76.7322 299.542 75.0064H312.39C312.176 78.7564 311.154 82.0589 309.321 84.9141C307.51 87.7479 305.007 89.9638 301.811 91.5618C298.615 93.1598 294.833 93.9588 290.465 93.9588ZM332.022 64.6193V93H318.407V27.5455H331.638V52.5703H332.213C333.321 49.6726 335.111 47.4034 337.583 45.7628C340.054 44.1009 343.155 43.2699 346.883 43.2699C350.292 43.2699 353.265 44.0156 355.8 45.5071C358.357 46.9773 360.338 49.0973 361.745 51.8672C363.172 54.6158 363.875 57.9077 363.854 61.7429V93H350.239V64.1719C350.26 61.1463 349.493 58.7919 347.938 57.1087C346.404 55.4254 344.252 54.5838 341.482 54.5838C339.628 54.5838 337.988 54.978 336.56 55.7663C335.154 56.5547 334.046 57.7053 333.236 59.218C332.448 60.7095 332.043 62.5099 332.022 64.6193ZM385.484 64.6193V93H371.869V43.9091H384.845V52.5703H385.42C386.507 49.7152 388.328 47.4567 390.885 45.7947C393.442 44.1115 396.542 43.2699 400.186 43.2699C403.595 43.2699 406.567 44.0156 409.102 45.5071C411.638 46.9986 413.609 49.1293 415.015 51.8991C416.421 54.6477 417.124 57.929 417.124 61.7429V93H403.509V64.1719C403.531 61.1676 402.764 58.8239 401.208 57.1406C399.653 55.4361 397.512 54.5838 394.784 54.5838C392.952 54.5838 391.333 54.978 389.926 55.7663C388.541 56.5547 387.455 57.7053 386.666 59.218C385.899 60.7095 385.505 62.5099 385.484 64.6193ZM447.527 93.9588C442.478 93.9588 438.131 92.9361 434.487 90.8906C430.865 88.8239 428.074 85.9048 426.114 82.1335C424.154 78.3409 423.174 73.8558 423.174 68.6783C423.174 63.6286 424.154 59.1967 426.114 55.3828C428.074 51.5689 430.833 48.5966 434.392 46.4659C437.971 44.3352 442.169 43.2699 446.984 43.2699C450.223 43.2699 453.237 43.7919 456.029 44.8359C458.841 45.8587 461.291 47.4034 463.38 49.4702C465.489 51.5369 467.13 54.1364 468.301 57.2685C469.473 60.3793 470.059 64.0227 470.059 68.1989V71.9382H428.607V63.5007H457.243C457.243 61.5405 456.817 59.804 455.965 58.2912C455.112 56.7784 453.93 55.5959 452.417 54.7436C450.926 53.87 449.189 53.4332 447.208 53.4332C445.141 53.4332 443.309 53.9126 441.71 54.8714C440.134 55.8089 438.898 57.0767 438.003 58.6747C437.108 60.2514 436.65 62.0092 436.629 63.9482V71.9702C436.629 74.3991 437.076 76.4979 437.971 78.2663C438.887 80.0348 440.176 81.3984 441.838 82.3572C443.5 83.3161 445.471 83.7955 447.751 83.7955C449.264 83.7955 450.649 83.5824 451.906 83.1562C453.163 82.7301 454.239 82.0909 455.134 81.2386C456.029 80.3864 456.71 79.3423 457.179 78.1065L469.772 78.9375C469.132 81.9631 467.822 84.6051 465.84 86.8636C463.88 89.1009 461.345 90.848 458.234 92.1051C455.144 93.3409 451.576 93.9588 447.527 93.9588Z" fill="white"/>
<path d="M25.6939 43.1368L57.5 24.7735L89.3061 43.1367V79.8632L57.5 98.2265L25.6939 79.8632V43.1368Z" stroke="white" stroke-width="10"/>
<path fill-rule="evenodd" clip-rule="evenodd" d="M58.4988 38.3666C57.88 38.0093 57.1176 38.0093 56.4988 38.3666L37.9648 49.0671C37.346 49.4244 36.9648 50.0847 36.9648 50.7992V72.2003C36.9648 72.9149 37.346 73.5751 37.9648 73.9324L56.4988 84.6329C57.1176 84.9902 57.88 84.9902 58.4988 84.6329L77.0327 73.9324C77.6515 73.5751 78.0327 72.9148 78.0327 72.2003V50.7992C78.0327 50.0847 77.6515 49.4244 77.0327 49.0671L58.4988 38.3666ZM57.4988 69.9998C62.1932 69.9998 65.9988 66.1942 65.9988 61.4998C65.9988 56.8053 62.1932 52.9998 57.4988 52.9998C52.8043 52.9998 48.9988 56.8053 48.9988 61.4998C48.9988 66.1942 52.8043 69.9998 57.4988 69.9998Z" fill="white"/>
</svg>
