<svg width="482" height="123" viewBox="0 0 482 123" fill="none" xmlns="http://www.w3.org/2000/svg">
<path d="M132.971 93H118.141L140.737 27.5455H158.571L181.135 93H166.305L149.91 42.5028H149.398L132.971 93ZM132.044 67.272H167.072V78.0746H132.044V67.272ZM184.257 93V43.9091H197.457V52.4744H197.968C198.863 49.4276 200.365 47.1264 202.475 45.571C204.584 43.9943 207.013 43.206 209.762 43.206C210.444 43.206 211.179 43.2486 211.967 43.3338C212.755 43.419 213.448 43.5362 214.044 43.6854V55.7663C213.405 55.5746 212.521 55.4041 211.392 55.255C210.262 55.1058 209.229 55.0312 208.292 55.0312C206.289 55.0312 204.499 55.468 202.922 56.3416C201.367 57.1939 200.131 58.3871 199.215 59.9212C198.32 61.4553 197.873 63.2237 197.873 65.2266V93H184.257ZM229.176 93.9268C226.044 93.9268 223.253 93.3835 220.802 92.2969C218.352 91.1889 216.413 89.5589 214.986 87.407C213.579 85.2337 212.876 82.5277 212.876 79.2891C212.876 76.5618 213.377 74.2713 214.378 72.4176C215.38 70.5639 216.743 69.0724 218.469 67.9432C220.195 66.8139 222.155 65.9616 224.35 65.3864C226.566 64.8111 228.888 64.4062 231.317 64.1719C234.172 63.8736 236.474 63.5966 238.221 63.3409C239.968 63.0639 241.236 62.6591 242.024 62.1264C242.812 61.5937 243.207 60.8054 243.207 59.7614V59.5696C243.207 57.5455 242.567 55.9794 241.289 54.8714C240.032 53.7635 238.242 53.2095 235.92 53.2095C233.469 53.2095 231.52 53.7528 230.071 54.8395C228.622 55.9048 227.663 57.2472 227.194 58.8665L214.602 57.8438C215.241 54.8608 216.498 52.2827 218.373 50.1094C220.248 47.9148 222.667 46.2315 225.628 45.0597C228.611 43.8665 232.063 43.2699 235.983 43.2699C238.711 43.2699 241.321 43.5895 243.814 44.2287C246.328 44.8679 248.555 45.8587 250.493 47.201C252.454 48.5433 253.998 50.2692 255.128 52.3786C256.257 54.4666 256.822 56.9702 256.822 59.8892V93H243.91V86.1925H243.526C242.738 87.7266 241.683 89.0795 240.362 90.2514C239.041 91.402 237.454 92.3075 235.6 92.968C233.746 93.6072 231.605 93.9268 229.176 93.9268ZM233.075 84.5305C235.078 84.5305 236.846 84.1364 238.381 83.348C239.915 82.5384 241.118 81.4517 241.992 80.0881C242.866 78.7244 243.302 77.1797 243.302 75.4538V70.2443C242.876 70.5213 242.29 70.777 241.545 71.0114C240.82 71.2244 240 71.4268 239.084 71.6186C238.167 71.7891 237.251 71.9489 236.335 72.098C235.419 72.2259 234.588 72.343 233.842 72.4496C232.244 72.6839 230.849 73.0568 229.655 73.5682C228.462 74.0795 227.535 74.772 226.875 75.6456C226.214 76.4979 225.884 77.5632 225.884 78.8416C225.884 80.6953 226.555 82.1122 227.898 83.0923C229.261 84.0511 230.987 84.5305 233.075 84.5305ZM285.065 93.9588C280.036 93.9588 275.711 92.8935 272.089 90.7628C268.488 88.6108 265.718 85.6278 263.779 81.8139C261.862 78 260.903 73.6108 260.903 68.6463C260.903 63.6179 261.872 59.2074 263.811 55.4148C265.771 51.6009 268.552 48.6285 272.153 46.4979C275.754 44.3459 280.036 43.2699 285.001 43.2699C289.284 43.2699 293.034 44.0476 296.251 45.603C299.468 47.1584 302.014 49.3423 303.889 52.1548C305.764 54.9673 306.798 58.2699 306.99 62.0625H294.142C293.779 59.6122 292.82 57.6413 291.265 56.1499C289.731 54.6371 287.718 53.8807 285.225 53.8807C283.115 53.8807 281.272 54.456 279.695 55.6065C278.14 56.7358 276.926 58.3871 276.052 60.5604C275.178 62.7337 274.742 65.3651 274.742 68.4545C274.742 71.5866 275.168 74.25 276.02 76.4446C276.894 78.6392 278.119 80.3118 279.695 81.4624C281.272 82.6129 283.115 83.1882 285.225 83.1882C286.78 83.1882 288.176 82.8686 289.411 82.2294C290.669 81.5902 291.702 80.6634 292.512 79.4489C293.343 78.2131 293.886 76.7322 294.142 75.0064H306.99C306.776 78.7564 305.754 82.0589 303.921 84.9141C302.11 87.7479 299.607 89.9638 296.411 91.5618C293.215 93.1598 289.433 93.9588 285.065 93.9588ZM324.822 64.6193V93H311.207V27.5455H324.438V52.5703H325.013C326.121 49.6726 327.911 47.4034 330.383 45.7628C332.854 44.1009 335.955 43.2699 339.683 43.2699C343.092 43.2699 346.065 44.0156 348.6 45.5071C351.157 46.9773 353.138 49.0973 354.545 51.8672C355.972 54.6158 356.675 57.9077 356.654 61.7429V93H343.039V64.1719C343.06 61.1463 342.293 58.7919 340.738 57.1087C339.204 55.4254 337.052 54.5838 334.282 54.5838C332.428 54.5838 330.788 54.978 329.36 55.7663C327.954 56.5547 326.846 57.7053 326.036 59.218C325.248 60.7095 324.843 62.5099 324.822 64.6193ZM376.484 64.6193V93H362.869V43.9091H375.845V52.5703H376.42C377.507 49.7152 379.328 47.4567 381.885 45.7947C384.442 44.1115 387.542 43.2699 391.186 43.2699C394.595 43.2699 397.567 44.0156 400.102 45.5071C402.638 46.9986 404.609 49.1293 406.015 51.8991C407.421 54.6477 408.124 57.929 408.124 61.7429V93H394.509V64.1719C394.531 61.1676 393.764 58.8239 392.208 57.1406C390.653 55.4361 388.512 54.5838 385.784 54.5838C383.952 54.5838 382.333 54.978 380.926 55.7663C379.541 56.5547 378.455 57.7053 377.666 59.218C376.899 60.7095 376.505 62.5099 376.484 64.6193ZM436.727 93.9588C431.678 93.9588 427.331 92.9361 423.688 90.8906C420.065 88.8239 417.274 85.9048 415.314 82.1335C413.354 78.3409 412.374 73.8558 412.374 68.6783C412.374 63.6286 413.354 59.1967 415.314 55.3828C417.274 51.5689 420.033 48.5966 423.592 46.4659C427.171 44.3352 431.369 43.2699 436.184 43.2699C439.423 43.2699 442.438 43.7919 445.229 44.8359C448.041 45.8587 450.491 47.4034 452.58 49.4702C454.689 51.5369 456.33 54.1364 457.501 57.2685C458.673 60.3793 459.259 64.0227 459.259 68.1989V71.9382H417.807V63.5007H446.443C446.443 61.5405 446.017 59.804 445.165 58.2912C444.313 56.7784 443.13 55.5959 441.617 54.7436C440.126 53.87 438.389 53.4332 436.408 53.4332C434.341 53.4332 432.509 53.9126 430.911 54.8714C429.334 55.8089 428.098 57.0767 427.203 58.6747C426.308 60.2514 425.85 62.0092 425.829 63.9482V71.9702C425.829 74.3991 426.276 76.4979 427.171 78.2663C428.087 80.0348 429.376 81.3984 431.038 82.3572C432.7 83.3161 434.671 83.7955 436.951 83.7955C438.464 83.7955 439.849 83.5824 441.106 83.1562C442.363 82.7301 443.439 82.0909 444.334 81.2386C445.229 80.3864 445.911 79.3423 446.379 78.1065L458.972 78.9375C458.332 81.9631 457.022 84.6051 455.04 86.8636C453.08 89.1009 450.545 90.848 447.434 92.1051C444.344 93.3409 440.776 93.9588 436.727 93.9588Z" fill="#FF004D"/>
<path d="M25.6939 43.1368L57.5 24.7735L89.3061 43.1367V79.8632L57.5 98.2265L25.6939 79.8632V43.1368Z" stroke="#FF004D" stroke-width="10"/>
<path fill-rule="evenodd" clip-rule="evenodd" d="M58.4988 38.3666C57.88 38.0093 57.1176 38.0093 56.4988 38.3666L37.9648 49.0671C37.346 49.4244 36.9648 50.0847 36.9648 50.7992V72.2003C36.9648 72.9149 37.346 73.5751 37.9648 73.9324L56.4988 84.6329C57.1176 84.9902 57.88 84.9902 58.4988 84.6329L77.0327 73.9324C77.6515 73.5751 78.0327 72.9148 78.0327 72.2003V50.7992C78.0327 50.0847 77.6515 49.4244 77.0327 49.0671L58.4988 38.3666ZM57.4988 69.9998C62.1932 69.9998 65.9988 66.1942 65.9988 61.4998C65.9988 56.8053 62.1932 52.9998 57.4988 52.9998C52.8043 52.9998 48.9988 56.8053 48.9988 61.4998C48.9988 66.1942 52.8043 69.9998 57.4988 69.9998Z" fill="#FF004D"/>
</svg>
