<svg width="495" height="240" viewBox="0 0 495 240" fill="none" xmlns="http://www.w3.org/2000/svg">
<rect x="50" y="20" width="445" height="120" rx="60" fill="#FFE1E8"/>
<g filter="url(#filter0_d_2479_6761)">
<circle cx="120" cy="80" r="20" fill="#FF003D"/>
</g>
<path d="M125.018 79.1677L117.139 74.2953C116.473 73.8833 115.613 74.3624 115.613 75.1458V84.8907C115.613 85.674 116.473 86.1532 117.139 85.7412L125.018 80.8687C125.65 80.4779 125.65 79.5586 125.018 79.1677Z" fill="white"/>
<path d="M165.44 96L175.72 66.2H182.76L193.04 96H187.12L185 89.6H173.48L171.32 96H165.44ZM175.04 84.8H183.44L178.48 69.96H180L175.04 84.8ZM202.486 96.48C200.806 96.48 199.339 96.1067 198.086 95.36C196.859 94.6133 195.913 93.5733 195.246 92.24C194.606 90.9067 194.286 89.3467 194.286 87.56V74.24H199.526V87.12C199.526 88.0267 199.699 88.8267 200.046 89.52C200.419 90.1867 200.939 90.72 201.606 91.12C202.299 91.4933 203.073 91.68 203.926 91.68C204.779 91.68 205.539 91.4933 206.206 91.12C206.873 90.72 207.393 90.1733 207.766 89.48C208.139 88.7867 208.326 87.96 208.326 87V74.24H213.566V96H208.606V91.72L209.046 92.48C208.539 93.8133 207.699 94.8133 206.526 95.48C205.379 96.1467 204.033 96.48 202.486 96.48ZM227.557 96.24C225.104 96.24 223.197 95.5733 221.837 94.24C220.504 92.88 219.837 90.9733 219.837 88.52V78.92H216.077V74.24H216.477C217.544 74.24 218.37 73.96 218.957 73.4C219.544 72.84 219.837 72.0267 219.837 70.96V69.28H225.077V74.24H230.077V78.92H225.077V88.24C225.077 88.96 225.197 89.5733 225.437 90.08C225.704 90.5867 226.104 90.9733 226.637 91.24C227.197 91.5067 227.904 91.64 228.757 91.64C228.944 91.64 229.157 91.6267 229.397 91.6C229.664 91.5733 229.917 91.5467 230.157 91.52V96C229.784 96.0533 229.357 96.1067 228.877 96.16C228.397 96.2133 227.957 96.24 227.557 96.24ZM243.805 96.48C241.672 96.48 239.725 95.9867 237.965 95C236.232 94.0133 234.845 92.6667 233.805 90.96C232.792 89.2533 232.285 87.3067 232.285 85.12C232.285 82.9333 232.792 80.9867 233.805 79.28C234.845 77.5733 236.232 76.2267 237.965 75.24C239.698 74.2533 241.645 73.76 243.805 73.76C245.938 73.76 247.872 74.2533 249.605 75.24C251.338 76.2267 252.712 77.5733 253.725 79.28C254.765 80.96 255.285 82.9067 255.285 85.12C255.285 87.3067 254.765 89.2533 253.725 90.96C252.685 92.6667 251.298 94.0133 249.565 95C247.832 95.9867 245.912 96.48 243.805 96.48ZM243.805 91.68C244.978 91.68 246.005 91.4 246.885 90.84C247.792 90.28 248.498 89.5067 249.005 88.52C249.538 87.5067 249.805 86.3733 249.805 85.12C249.805 83.84 249.538 82.72 249.005 81.76C248.498 80.7733 247.792 80 246.885 79.44C246.005 78.8533 244.978 78.56 243.805 78.56C242.605 78.56 241.552 78.8533 240.645 79.44C239.738 80 239.018 80.7733 238.485 81.76C237.978 82.72 237.725 83.84 237.725 85.12C237.725 86.3733 237.978 87.5067 238.485 88.52C239.018 89.5067 239.738 90.28 240.645 90.84C241.552 91.4 242.605 91.68 243.805 91.68ZM259.539 87.44V82.84H276.539V87.44H259.539ZM292.723 96.48C290.83 96.48 289.07 96.1333 287.443 95.44C285.843 94.7467 284.456 93.7867 283.283 92.56C282.136 91.3067 281.296 89.8533 280.763 88.2L285.283 86.24C286.003 87.9467 287.043 89.2933 288.403 90.28C289.763 91.24 291.296 91.72 293.003 91.72C293.963 91.72 294.79 91.5733 295.483 91.28C296.203 90.96 296.75 90.5333 297.123 90C297.523 89.4667 297.723 88.8267 297.723 88.08C297.723 87.2 297.456 86.48 296.923 85.92C296.416 85.3333 295.643 84.88 294.603 84.56L288.883 82.72C286.563 82 284.816 80.92 283.643 79.48C282.47 78.04 281.883 76.3467 281.883 74.4C281.883 72.6933 282.296 71.1867 283.123 69.88C283.976 68.5733 285.15 67.56 286.643 66.84C288.163 66.0933 289.896 65.72 291.843 65.72C293.63 65.72 295.27 66.04 296.763 66.68C298.256 67.2933 299.536 68.16 300.603 69.28C301.696 70.3733 302.51 71.6667 303.043 73.16L298.563 75.16C297.976 73.6667 297.096 72.52 295.923 71.72C294.75 70.8933 293.39 70.48 291.843 70.48C290.936 70.48 290.136 70.64 289.443 70.96C288.75 71.2533 288.203 71.68 287.803 72.24C287.43 72.7733 287.243 73.4133 287.243 74.16C287.243 74.9867 287.51 75.72 288.043 76.36C288.576 76.9733 289.39 77.4533 290.483 77.8L295.963 79.52C298.336 80.2933 300.11 81.36 301.283 82.72C302.483 84.08 303.083 85.76 303.083 87.76C303.083 89.4667 302.643 90.9733 301.763 92.28C300.883 93.5867 299.67 94.6133 298.123 95.36C296.576 96.1067 294.776 96.48 292.723 96.48ZM317.222 96.48C315.062 96.48 313.115 95.9867 311.382 95C309.675 93.9867 308.328 92.6267 307.342 90.92C306.355 89.1867 305.862 87.24 305.862 85.08C305.862 82.92 306.355 80.9867 307.342 79.28C308.328 77.5733 309.675 76.2267 311.382 75.24C313.115 74.2533 315.062 73.76 317.222 73.76C318.768 73.76 320.208 74.04 321.542 74.6C322.875 75.1333 324.022 75.88 324.982 76.84C325.968 77.7733 326.675 78.8933 327.102 80.2L322.502 82.2C322.102 81.1067 321.422 80.2267 320.462 79.56C319.528 78.8933 318.448 78.56 317.222 78.56C316.075 78.56 315.048 78.84 314.142 79.4C313.262 79.96 312.568 80.7333 312.062 81.72C311.555 82.7067 311.302 83.84 311.302 85.12C311.302 86.4 311.555 87.5333 312.062 88.52C312.568 89.5067 313.262 90.28 314.142 90.84C315.048 91.4 316.075 91.68 317.222 91.68C318.475 91.68 319.568 91.3467 320.502 90.68C321.435 90.0133 322.102 89.12 322.502 88L327.102 90.08C326.675 91.3067 325.982 92.4133 325.022 93.4C324.062 94.36 322.915 95.12 321.582 95.68C320.248 96.2133 318.795 96.48 317.222 96.48ZM330.277 96V74.24H335.197V79.08L334.797 78.36C335.304 76.7333 336.091 75.6 337.157 74.96C338.251 74.32 339.557 74 341.077 74H342.357V78.64H340.477C338.984 78.64 337.784 79.1067 336.877 80.04C335.971 80.9467 335.517 82.2267 335.517 83.88V96H330.277ZM355.078 96.48C352.945 96.48 350.998 95.9867 349.238 95C347.505 94.0133 346.118 92.6667 345.078 90.96C344.065 89.2533 343.558 87.3067 343.558 85.12C343.558 82.9333 344.065 80.9867 345.078 79.28C346.118 77.5733 347.505 76.2267 349.238 75.24C350.972 74.2533 352.918 73.76 355.078 73.76C357.212 73.76 359.145 74.2533 360.878 75.24C362.612 76.2267 363.985 77.5733 364.998 79.28C366.038 80.96 366.558 82.9067 366.558 85.12C366.558 87.3067 366.038 89.2533 364.998 90.96C363.958 92.6667 362.572 94.0133 360.838 95C359.105 95.9867 357.185 96.48 355.078 96.48ZM355.078 91.68C356.252 91.68 357.278 91.4 358.158 90.84C359.065 90.28 359.772 89.5067 360.278 88.52C360.812 87.5067 361.078 86.3733 361.078 85.12C361.078 83.84 360.812 82.72 360.278 81.76C359.772 80.7733 359.065 80 358.158 79.44C357.278 78.8533 356.252 78.56 355.078 78.56C353.878 78.56 352.825 78.8533 351.918 79.44C351.012 80 350.292 80.7733 349.758 81.76C349.252 82.72 348.998 83.84 348.998 85.12C348.998 86.3733 349.252 87.5067 349.758 88.52C350.292 89.5067 351.012 90.28 351.918 90.84C352.825 91.4 353.878 91.68 355.078 91.68ZM369.732 96V65.72H374.972V96H369.732ZM379.01 96V65.72H384.25V96H379.01ZM388.288 96V74.24H393.528V96H388.288ZM388.288 71.8V66.2H393.528V71.8H388.288ZM397.567 96V74.24H402.487V78.52L402.087 77.76C402.593 76.4533 403.42 75.4667 404.567 74.8C405.74 74.1067 407.1 73.76 408.647 73.76C410.247 73.76 411.66 74.1067 412.887 74.8C414.14 75.4933 415.113 76.4667 415.807 77.72C416.5 78.9467 416.847 80.3733 416.847 82V96H411.607V83.24C411.607 82.28 411.42 81.4533 411.047 80.76C410.673 80.0667 410.153 79.5333 409.487 79.16C408.847 78.76 408.087 78.56 407.207 78.56C406.353 78.56 405.593 78.76 404.927 79.16C404.26 79.5333 403.74 80.0667 403.367 80.76C402.993 81.4533 402.807 82.28 402.807 83.24V96H397.567ZM431.038 104.8C429.411 104.8 427.904 104.533 426.518 104C425.131 103.467 423.931 102.72 422.918 101.76C421.931 100.827 421.211 99.72 420.758 98.44L425.638 96.6C425.958 97.6133 426.584 98.4267 427.518 99.04C428.478 99.68 429.651 100 431.038 100C432.104 100 433.038 99.8 433.838 99.4C434.664 99 435.304 98.4133 435.758 97.64C436.211 96.8933 436.438 95.9867 436.438 94.92V89.96L437.438 91.16C436.691 92.4667 435.691 93.4533 434.438 94.12C433.184 94.7867 431.758 95.12 430.158 95.12C428.131 95.12 426.318 94.6533 424.718 93.72C423.118 92.7867 421.864 91.5067 420.958 89.88C420.051 88.2533 419.598 86.4267 419.598 84.4C419.598 82.3467 420.051 80.52 420.958 78.92C421.864 77.32 423.104 76.0667 424.678 75.16C426.251 74.2267 428.038 73.76 430.038 73.76C431.664 73.76 433.091 74.1067 434.318 74.8C435.571 75.4667 436.611 76.44 437.438 77.72L436.718 79.04V74.24H441.678V94.92C441.678 96.8133 441.211 98.5067 440.278 100C439.371 101.493 438.118 102.667 436.518 103.52C434.944 104.373 433.118 104.8 431.038 104.8ZM430.798 90.28C431.918 90.28 432.891 90.04 433.718 89.56C434.571 89.0533 435.238 88.36 435.718 87.48C436.198 86.6 436.438 85.5867 436.438 84.44C436.438 83.32 436.184 82.32 435.678 81.44C435.198 80.5333 434.531 79.8267 433.678 79.32C432.851 78.8133 431.891 78.56 430.798 78.56C429.704 78.56 428.718 78.8133 427.838 79.32C426.958 79.8267 426.264 80.5333 425.758 81.44C425.278 82.32 425.038 83.32 425.038 84.44C425.038 85.56 425.278 86.56 425.758 87.44C426.264 88.32 426.944 89.0133 427.798 89.52C428.678 90.0267 429.678 90.28 430.798 90.28Z" fill="black"/>
<defs>
<filter id="filter0_d_2479_6761" x="0" y="0" width="240" height="240" filterUnits="userSpaceOnUse" color-interpolation-filters="sRGB">
<feFlood flood-opacity="0" result="BackgroundImageFix"/>
<feColorMatrix in="SourceAlpha" type="matrix" values="0 0 0 0 0 0 0 0 0 0 0 0 0 0 0 0 0 0 127 0" result="hardAlpha"/>
<feOffset dy="40"/>
<feGaussianBlur stdDeviation="50"/>
<feComposite in2="hardAlpha" operator="out"/>
<feColorMatrix type="matrix" values="0 0 0 0 0 0 0 0 0 0 0 0 0 0 0 0 0 0 0.5 0"/>
<feBlend mode="normal" in2="BackgroundImageFix" result="effect1_dropShadow_2479_6761"/>
<feBlend mode="normal" in="SourceGraphic" in2="effect1_dropShadow_2479_6761" result="shape"/>
</filter>
</defs>
</svg>
