<svg width="231" height="231" viewBox="0 0 231 231" fill="none" xmlns="http://www.w3.org/2000/svg">
<g clip-path="url(#clip0_2660_1471)">
<path fill-rule="evenodd" clip-rule="evenodd" d="M180.165 88.6244C180.832 90.166 180.018 91.9237 178.436 92.4899L159.014 99.4435C157.473 99.9954 155.783 99.2035 155.101 97.7149C148.309 82.8863 133.338 72.5854 115.962 72.5854C92.1983 72.5854 72.9343 91.8493 72.9343 115.613C72.9343 139.376 92.1983 158.64 115.962 158.64C133.745 158.64 149.008 147.852 155.564 132.463C156.219 130.926 157.94 130.089 159.513 130.652L178.916 137.599C180.477 138.158 181.294 139.881 180.665 141.415C170.334 166.593 145.335 184.351 116.137 184.351C77.6998 184.351 46.54 153.576 46.54 115.613C46.54 77.65 77.6998 46.875 116.137 46.875C144.875 46.875 169.544 64.0772 180.165 88.6244Z" fill="#00FFB3"/>
<path fill-rule="evenodd" clip-rule="evenodd" d="M211.314 50.5511C211.942 51.4719 211.674 52.7258 210.734 53.3258L191.863 65.376C190.943 65.9635 189.723 65.703 189.101 64.8061C172.973 41.5701 146.1 26.3558 115.673 26.3558C66.3445 26.3558 26.3557 66.3447 26.3557 115.673C26.3557 165.002 66.3445 204.991 115.673 204.991C146.522 204.991 173.719 189.352 189.766 165.569C190.382 164.655 191.615 164.383 192.543 164.976L211.424 177.033C212.357 177.628 212.63 178.869 212.016 179.79C191.278 210.892 155.877 231.382 115.691 231.382C51.7965 231.382 0 179.585 0 115.691C0 51.7965 51.7965 0 115.691 0C155.427 0 190.485 20.0333 211.314 50.5511Z" fill="#00FFB3"/>
<ellipse cx="116.41" cy="114.959" rx="22.6964" ry="21.9642" fill="#00FFB3"/>
</g>
<defs>
<clipPath id="clip0_2660_1471">
<rect width="231" height="231" fill="white"/>
</clipPath>
</defs>
</svg>
