<svg width="100" height="100" viewBox="0 0 100 100" fill="none" xmlns="http://www.w3.org/2000/svg">
<rect width="100" height="100" fill="white"/>
<path d="M33 35C33 31.6863 35.6863 29 39 29H77C80.3137 29 83 31.6863 83 35V81C83 84.3137 80.3137 87 77 87H39C35.6863 87 33 84.3137 33 81V35Z" fill="white"/>
<path fill-rule="evenodd" clip-rule="evenodd" d="M41 37V79H75V37H41ZM39 29C35.6863 29 33 31.6863 33 35V81C33 84.3137 35.6863 87 39 87H77C80.3137 87 83 84.3137 83 81V35C83 31.6863 80.3137 29 77 29H39Z" fill="black"/>
<path d="M17 19C17 15.6863 19.6863 13 23 13H61C64.3137 13 67 15.6863 67 19V66C67 69.3137 64.3137 72 61 72H23C19.6863 72 17 69.3137 17 66V19Z" fill="white"/>
<path fill-rule="evenodd" clip-rule="evenodd" d="M25 21V64H59V21H25ZM23 13C19.6863 13 17 15.6863 17 19V66C17 69.3137 19.6863 72 23 72H61C64.3137 72 67 69.3137 67 66V19C67 15.6863 64.3137 13 61 13H23Z" fill="black"/>
</svg>
