<svg width="130" height="130" viewBox="0 0 130 130" fill="none" xmlns="http://www.w3.org/2000/svg">
<rect width="130" height="130" fill="#FF004D"/>
<path d="M26.8114 38.3466C26.409 37.0587 27.3711 35.75 28.7204 35.75H41.5921C42.4669 35.75 43.2402 36.3185 43.5011 37.1535L60.5323 91.6534C60.9348 92.9413 59.9726 94.25 58.6234 94.25H45.7516C44.8769 94.25 44.1036 93.6815 43.8427 92.8465L26.8114 38.3466Z" fill="white"/>
<path d="M54.0302 38.3466C53.6277 37.0587 54.5899 35.75 55.9391 35.75H68.8109C69.6856 35.75 70.4589 36.3185 70.7198 37.1535L87.7511 91.6534C88.1535 92.9413 87.1914 94.25 85.8421 94.25H72.9704C72.0956 94.25 71.3223 93.6815 71.0614 92.8465L54.0302 38.3466Z" fill="white"/>
<path d="M101.315 35.75H83.1397C81.7958 35.75 80.8343 37.049 81.2269 38.3343L90.4169 68.4181C90.9954 70.3118 93.6792 70.3035 94.246 68.4062L103.232 38.3224C103.615 37.0397 102.654 35.75 101.315 35.75Z" fill="white"/>
</svg>
