<svg width="130" height="130" viewBox="0 0 130 130" fill="none" xmlns="http://www.w3.org/2000/svg">
<rect width="130" height="130" rx="30" fill="#FF004D"/>
<path fill-rule="evenodd" clip-rule="evenodd" d="M65.508 35.1135C64.8851 34.75 64.1149 34.75 63.492 35.1135L39.3788 49.1838C38.7645 49.5422 38.3868 50.2 38.3868 50.9112V79.0888C38.3868 79.8 38.7645 80.4578 39.3788 80.8162L63.492 94.8866C64.1149 95.25 64.8851 95.25 65.508 94.8866L89.6212 80.8162C90.2355 80.4578 90.6132 79.8 90.6132 79.0888V50.9112C90.6132 50.2 90.2355 49.5422 89.6212 49.1838L65.508 35.1135ZM65.3387 25.2271C64.8197 24.9243 64.1803 24.9243 63.6613 25.2271L30.8387 44.3795C30.3197 44.6823 30 45.242 30 45.8476V84.1524C30 84.758 30.3197 85.3177 30.8387 85.6205L63.6613 104.773C64.1803 105.076 64.8197 105.076 65.3387 104.773L98.1613 85.6205C98.6803 85.3177 99 84.758 99 84.1524V45.8476C99 45.242 98.6803 44.6823 98.1613 44.3795L65.3387 25.2271Z" fill="white"/>
<path fill-rule="evenodd" clip-rule="evenodd" d="M65.499 43.7045C64.8802 43.3472 64.1178 43.3472 63.499 43.7045L46.2266 53.6767C45.6078 54.034 45.2266 54.6942 45.2266 55.4088V75.3533C45.2266 76.0678 45.6078 76.7281 46.2266 77.0853L63.499 87.0576C64.1178 87.4148 64.8802 87.4148 65.499 87.0576L82.7714 77.0853C83.3902 76.728 83.7714 76.0678 83.7714 75.3533V55.4088C83.7714 54.6942 83.3902 54.034 82.7714 53.6767L65.499 43.7045ZM64.5014 75.9736C70.444 75.9736 75.2614 71.1561 75.2614 65.2135C75.2614 59.2709 70.444 54.4535 64.5014 54.4535C58.5588 54.4535 53.7413 59.2709 53.7413 65.2135C53.7413 71.1561 58.5588 75.9736 64.5014 75.9736Z" fill="white"/>
</svg>
