<svg width="130" height="130" viewBox="0 0 130 130" fill="none" xmlns="http://www.w3.org/2000/svg">
<rect width="130" height="130" fill="url(#paint0_linear_2719_1579)"/>
<path fill-rule="evenodd" clip-rule="evenodd" d="M64.4995 32.971L36.8729 48.9212V80.8218L64.4995 96.7721L92.1262 80.8218V48.9212L64.4995 32.971ZM65.3868 23.2377C64.8378 22.9208 64.1613 22.9208 63.6123 23.2377L28.8873 43.2862C28.3382 43.6032 28 44.1891 28 44.823V84.92C28 85.554 28.3382 86.1398 28.8873 86.4568L63.6123 106.505C64.1613 106.822 64.8378 106.822 65.3868 106.505L100.112 86.4568C100.661 86.1398 100.999 85.554 100.999 84.92V44.823C100.999 44.1891 100.661 43.6032 100.112 43.2862L65.3868 23.2377Z" fill="white"/>
<path fill-rule="evenodd" clip-rule="evenodd" d="M65.4996 41.9359C64.8808 41.5787 64.1184 41.5787 63.4996 41.9359L45.1367 52.5377C44.5179 52.895 44.1367 53.5553 44.1367 54.2698V75.4735C44.1367 76.188 44.5179 76.8482 45.1367 77.2055L63.4996 87.8073C64.1184 88.1646 64.8808 88.1646 65.4996 87.8073L83.8625 77.2055C84.4813 76.8482 84.8625 76.188 84.8625 75.4734V54.2698C84.8625 53.5553 84.4813 52.895 83.8625 52.5377L65.4996 41.9359ZM64.4996 73.3008C69.1549 73.3008 72.9288 69.5269 72.9288 64.8716C72.9288 60.2163 69.1549 56.4424 64.4996 56.4424C59.8443 56.4424 56.0704 60.2163 56.0704 64.8716C56.0704 69.5269 59.8443 73.3008 64.4996 73.3008Z" fill="white"/>
<defs>
<linearGradient id="paint0_linear_2719_1579" x1="83" y1="-4.5" x2="8" y2="130" gradientUnits="userSpaceOnUse">
<stop stop-color="#FF004D"/>
<stop offset="1" stop-color="#FF007A"/>
</linearGradient>
</defs>
</svg>
