<svg width="130" height="130" viewBox="0 0 130 130" fill="none" xmlns="http://www.w3.org/2000/svg">
<path d="M26.723 45.7208C26.6079 44.1669 27.7017 42.7836 29.2402 42.5371L104.274 30.5167C106.009 30.2387 107.611 31.5049 107.74 33.2574L111.777 87.7786C111.892 89.3325 110.798 90.7158 109.26 90.9623L34.226 102.983C32.4908 103.261 30.8894 101.995 30.7596 100.242L26.723 45.7208Z" fill="#D7D7D7"/>
<path d="M18.6614 50.3698C18.2941 48.7764 19.2707 47.1823 20.8571 46.7857L95.0067 28.2483C96.6461 27.8385 98.3003 28.8629 98.664 30.5131L111.316 87.9221C111.687 89.6069 110.564 91.257 108.861 91.53L33.7887 103.557C32.2305 103.806 30.7452 102.806 30.3908 101.268L18.6614 50.3698Z" fill="#C3C3C3"/>
</svg>
