<svg width="130" height="130" viewBox="0 0 130 130" fill="none" xmlns="http://www.w3.org/2000/svg">
<path d="M42.792 44.326C42.9143 42.9583 43.9497 41.8482 45.3055 41.631L120.174 29.6371C122.105 29.3277 123.81 30.9188 123.636 32.8665L118.688 88.2012C118.565 89.5689 117.53 90.679 116.174 90.8962L41.306 102.89C39.3751 103.2 37.6692 101.608 37.8433 99.6607L42.792 44.326Z" fill="#D7D7D7"/>
<path d="M5.15151 51.4902C4.08647 49.7625 5.00864 47.4978 6.97768 47.0056L80.781 28.5547C82.0916 28.2271 83.4595 28.8158 84.1225 29.9929L116.386 87.2739C117.411 89.0938 116.309 91.378 114.247 91.7084L39.4979 103.683C38.3007 103.875 37.1057 103.327 36.4695 102.295L5.15151 51.4902Z" fill="#C3C3C3"/>
</svg>
