<svg width="40" height="40" viewBox="0 0 40 40" fill="none" xmlns="http://www.w3.org/2000/svg">
<path fill-rule="evenodd" clip-rule="evenodd" d="M33.2994 12C33.2994 12.8284 32.6278 13.5 31.7994 13.5H7.19922C6.37079 13.5 5.69922 12.8284 5.69922 12V8C5.69922 7.17157 6.37079 6.5 7.19922 6.5H31.7994C32.6278 6.5 33.2994 7.17157 33.2994 8V12Z" fill="black"/>
<path fill-rule="evenodd" clip-rule="evenodd" d="M17.5 34.0001C16.6716 34.0001 16 33.3285 16 32.5001V11.5C16 10.6716 16.6716 10 17.5 10H21.5C22.3284 10 23 10.6716 23 11.5V32.5001C23 33.3285 22.3284 34.0001 21.5 34.0001H17.5Z" fill="black"/>
</svg>
