<svg width="56" height="56" viewBox="0 0 56 56" fill="none" xmlns="http://www.w3.org/2000/svg">
<rect width="56" height="56" fill="#ECECEC"/>
<path d="M27.9919 39C26.7831 39 25.8033 38.0201 25.8033 36.8114V19.1886C25.8033 17.9799 26.7831 17 27.9919 17V17C29.2006 17 30.1805 17.9799 30.1805 19.1886V36.8114C30.1805 38.0201 29.2006 39 27.9919 39V39ZM19.1886 30.1805C17.9799 30.1805 17 29.2006 17 27.9919V27.9919C17 26.7831 17.9799 25.8033 19.1886 25.8033H36.8114C38.0201 25.8033 39 26.7831 39 27.9919V27.9919C39 29.2006 38.0201 30.1805 36.8114 30.1805H19.1886Z" fill="black"/>
</svg>
