<svg width="56" height="56" viewBox="0 0 56 56" fill="none" xmlns="http://www.w3.org/2000/svg">
<rect width="56" height="56" fill="#ECECEC"/>
<path fill-rule="evenodd" clip-rule="evenodd" d="M22.6521 40.2436C24.3982 42.8381 28.3492 42.4936 29.6111 39.6368L30.8412 36.8521C30.9318 36.647 31.1362 36.5145 31.3622 36.5145H38.7288C40.9274 36.5145 42.7097 34.7487 42.7097 32.5704V17.9441C42.7097 15.7658 40.9274 14 38.7288 14H15.9809C13.7823 14 12 15.7659 12 17.9441V32.5704C12 34.7487 13.7823 36.5145 15.9809 36.5145H19.8381C20.0282 36.5145 20.2058 36.6087 20.3113 36.7654L22.6521 40.2436ZM26.4852 38.2814C26.3049 38.6895 25.7405 38.7388 25.491 38.3681L23.1502 34.8899C22.4119 33.7928 21.169 33.1339 19.8381 33.1339H15.9809C15.6668 33.1339 15.4122 32.8816 15.4122 32.5704V17.9441C15.4122 17.633 15.6668 17.3807 15.9809 17.3807H38.7288C39.0429 17.3807 39.2975 17.633 39.2975 17.9441V32.5704C39.2975 32.8816 39.0429 33.1339 38.7288 33.1339H31.3622C29.7807 33.1339 28.3493 34.0613 27.7152 35.4967L26.4852 38.2814Z" fill="black"/>
</svg>
