<svg width="56" height="56" viewBox="0 0 56 56" fill="none" xmlns="http://www.w3.org/2000/svg">
<rect width="56" height="56" fill="#ECECEC"/>
<path fill-rule="evenodd" clip-rule="evenodd" d="M27.977 17.9736C27.7319 17.727 27.3347 17.727 27.0897 17.9736L17.948 27.1746C17.8303 27.293 17.7642 27.4536 17.7642 27.621V37.5799C17.7642 37.9287 18.0451 38.2114 18.3916 38.2114H36.6751C37.0215 38.2114 37.3024 37.9287 37.3024 37.5799V27.621C37.3024 27.4536 37.2363 27.293 37.1187 27.1746L27.977 17.9736ZM24.428 15.2946C26.143 13.5685 28.9236 13.5685 30.6387 15.2946L39.7804 24.4956C40.604 25.3245 41.0667 26.4488 41.0667 27.621V37.5799C41.0667 40.0211 39.1005 42 36.6751 42H18.3916C15.9662 42 14 40.0211 14 37.5799V27.621C14 26.4488 14.4627 25.3245 15.2863 24.4956L24.428 15.2946Z" fill="black"/>
</svg>
