<svg width="72" height="72" viewBox="0 0 72 72" fill="none" xmlns="http://www.w3.org/2000/svg">
<path d="M36.2515 59C36.2515 59 35.9958 59 35.8425 59C35.1267 59 34.3087 58.9234 33.5673 58.8212C29.2215 58.2592 25.2848 56.5477 21.8592 53.7634C21.0923 53.1503 19.4818 51.541 18.8939 50.8513C17.5902 49.2676 16.721 47.9648 15.8518 46.1512C15.0594 44.5419 14.6248 43.3668 14.1902 41.6809C14.1902 41.6298 14.1902 41.5787 14.1646 41.5532C13.6789 39.6373 13.5 38.1302 13.5 36.0356C13.5 34.5284 13.5256 33.9409 13.7045 32.6892C14.4203 27.6825 16.7466 23.1612 20.4021 19.585C24.4156 15.6511 29.5283 13.4032 35.2289 13.02C35.868 12.969 38.2966 13.02 38.9868 13.1222C42.2333 13.4543 45.1476 14.2973 47.934 15.7022C54.197 18.8953 58.4661 24.5917 59.3353 30.9522C59.642 33.149 59.5142 35.2948 59.0029 37.0063C58.3639 39.1264 57.3413 40.8635 55.782 42.4217C53.8903 44.3375 51.4106 45.6147 48.8543 46.0234L48.4452 46.0745L48.0362 46.1256L44.6363 46.1767C43.128 46.1767 42.2589 46.1767 41.6965 46.2533C41.4409 46.2533 41.2619 46.3044 41.1085 46.3555C40.9296 46.4066 40.7762 46.4832 40.674 46.5343C39.5747 47.0452 38.7823 47.9904 38.4755 49.1399C38.4244 49.3698 38.3732 49.7018 38.3732 50.0594C38.3732 50.4171 38.3988 50.7492 38.4755 50.9535C38.6033 51.4644 38.9356 52.103 39.268 52.4862C39.6514 52.946 39.907 53.3036 40.0604 53.6868C40.2138 54.0444 40.2905 54.4275 40.3416 54.9129C40.3928 55.8069 40.1627 56.6499 39.6259 57.3652L39.4725 57.5695C38.9868 58.1826 38.2966 58.6168 37.4785 58.8723L36.7627 58.9745C36.6349 58.9745 36.456 58.9745 36.2515 58.9745V59ZM48.1385 42.2939H48.1896C50.0302 41.9619 51.7429 41.0678 53.0722 39.7395C54.197 38.6156 54.8872 37.4405 55.3474 35.9078C55.7053 34.7073 55.782 33.098 55.5519 31.4631C54.8361 26.3542 51.3339 21.7307 46.1957 19.1252C43.8183 17.9246 41.3897 17.2093 38.6033 16.9283C38.0665 16.8772 35.868 16.8262 35.459 16.8517C30.6531 17.1582 26.4862 18.9974 23.0863 22.2927C20.0187 25.2814 18.1014 29.0619 17.5135 33.2001C17.3601 34.273 17.3345 34.6817 17.3345 35.9845C17.3345 37.7726 17.4879 38.9987 17.8714 40.608C17.8714 40.608 17.8714 40.6591 17.8714 40.6846C18.2292 42.0896 18.5871 43.0347 19.2518 44.4141C20.0187 45.9468 20.7089 47.0197 21.8081 48.348C22.1916 48.8078 23.6487 50.2638 24.2367 50.7492C27.0998 53.0992 30.3974 54.5042 34.0019 54.9895C34.6154 55.0662 35.3056 55.1172 35.8936 55.1428C36.0981 55.1428 36.277 55.1428 36.4304 55.1428C36.4304 55.1172 36.3537 55.0406 36.277 54.964C35.5868 54.1466 34.9733 52.9715 34.7177 51.8986C34.5387 51.2345 34.5132 50.5192 34.5132 50.0339C34.5132 49.3442 34.5899 48.7056 34.7177 48.1436C35.3056 45.8702 36.865 44.0054 38.9868 43.0347C39.2424 42.9326 39.5747 42.7793 39.9326 42.6516C40.3416 42.5238 40.7762 42.4472 41.313 42.3961C41.9266 42.345 42.8724 42.3195 44.5085 42.3195H44.7897L47.8062 42.2684H48.0874" fill="#A6A6A6"/>
<circle cx="47.8724" cy="30.2499" r="3.45" fill="#A6A6A6"/>
<circle cx="38.6727" cy="24.4999" r="3.45" fill="#A6A6A6"/>
<circle cx="28.7835" cy="27.95" r="3.45" fill="#A6A6A6"/>
<circle cx="24.8724" cy="37.15" r="3.45" fill="#A6A6A6"/>
</svg>
