<svg width="72" height="72" viewBox="0 0 72 72" fill="none" xmlns="http://www.w3.org/2000/svg">
<path d="M21.6322 54V17.6364H36.1919C38.867 17.6364 41.0983 18.0329 42.8857 18.826C44.6731 19.6191 46.0167 20.7199 46.9163 22.1286C47.8159 23.5253 48.2657 25.1352 48.2657 26.9581C48.2657 28.3786 47.9816 29.6274 47.4134 30.7045C46.8453 31.7699 46.064 32.6458 45.0697 33.3324C44.0872 34.0071 42.9627 34.4865 41.6961 34.7706V35.1257C43.0811 35.1849 44.3772 35.5755 45.5846 36.2976C46.8038 37.0196 47.7922 38.0317 48.5498 39.3338C49.3074 40.6241 49.6862 42.1629 49.6862 43.9503C49.6862 45.8797 49.2068 47.602 48.248 49.1172C47.301 50.6205 45.8983 51.8101 44.0399 52.6861C42.1814 53.562 39.891 54 37.1684 54H21.6322ZM29.3204 47.7145H35.5882C37.7307 47.7145 39.2932 47.3061 40.2757 46.4893C41.2581 45.6607 41.7494 44.5599 41.7494 43.1868C41.7494 42.1806 41.5067 41.2929 41.0214 40.5234C40.5361 39.754 39.8436 39.1503 38.944 38.7124C38.0562 38.2744 36.9968 38.0554 35.7657 38.0554H29.3204V47.7145ZM29.3204 32.853H35.02C36.0735 32.853 37.0086 32.6695 37.8254 32.3026C38.654 31.9238 39.305 31.3911 39.7785 30.7045C40.2638 30.018 40.5065 29.1953 40.5065 28.2365C40.5065 26.9226 40.0389 25.8632 39.1038 25.0582C38.1805 24.2533 36.8666 23.8509 35.162 23.8509H29.3204V32.853Z" fill="#A6A6A6"/>
</svg>
