<svg width="56" height="56" viewBox="0 0 56 56" fill="none" xmlns="http://www.w3.org/2000/svg">
<rect width="56" height="56" fill="#ECECEC"/>
<path d="M27.1756 43V13H29.0534V43H27.1756ZM32.5916 22.5977C32.4847 21.5742 32.0344 20.7773 31.2405 20.207C30.4542 19.6367 29.4313 19.3516 28.1718 19.3516C27.2863 19.3516 26.5267 19.4883 25.8931 19.7617C25.2595 20.0352 24.7748 20.4063 24.4389 20.875C24.1031 21.3438 23.9313 21.8789 23.9237 22.4805C23.9237 22.9805 24.0344 23.4141 24.2557 23.7813C24.4847 24.1484 24.7939 24.4609 25.1832 24.7188C25.5725 24.9688 26.0038 25.1797 26.4771 25.3516C26.9504 25.5234 27.4275 25.668 27.9084 25.7852L30.1069 26.3477C30.9924 26.5586 31.8435 26.8438 32.6603 27.2031C33.4847 27.5625 34.2214 28.0156 34.8702 28.5625C35.5267 29.1094 36.0458 29.7695 36.4275 30.543C36.8092 31.3164 37 32.2227 37 33.2617C37 34.668 36.6489 35.9063 35.9466 36.9766C35.2443 38.0391 34.229 38.8711 32.9008 39.4727C31.5802 40.0664 29.9809 40.3633 28.1031 40.3633C26.2786 40.3633 24.6947 40.0742 23.3511 39.4961C22.0153 38.918 20.9695 38.0742 20.2137 36.9648C19.4656 35.8555 19.0611 34.5039 19 32.9102H23.1794C23.2405 33.7461 23.4924 34.4414 23.9351 34.9961C24.3779 35.5508 24.9542 35.9648 25.6641 36.2383C26.3817 36.5117 27.1832 36.6484 28.0687 36.6484C28.9924 36.6484 29.8015 36.5078 30.4962 36.2266C31.1985 35.9375 31.7481 35.5391 32.145 35.0313C32.542 34.5156 32.7443 33.9141 32.7519 33.2266C32.7443 32.6016 32.5649 32.0859 32.2137 31.6797C31.8626 31.2656 31.3702 30.9219 30.7366 30.6484C30.1107 30.3672 29.3779 30.1172 28.5382 29.8984L25.8702 29.1953C23.9389 28.6875 22.4122 27.918 21.2901 26.8867C20.1756 25.8477 19.6183 24.4688 19.6183 22.75C19.6183 21.3359 19.9924 20.0977 20.7405 19.0352C21.4962 17.9727 22.5229 17.1484 23.8206 16.5625C25.1183 15.9688 26.5878 15.6719 28.229 15.6719C29.8931 15.6719 31.3511 15.9688 32.6031 16.5625C33.8626 17.1484 34.8511 17.9648 35.5687 19.0117C36.2863 20.0508 36.6565 21.2461 36.6794 22.5977H32.5916Z" fill="black"/>
</svg>
