<svg width="32" height="32" viewBox="0 0 32 32" fill="none" xmlns="http://www.w3.org/2000/svg">
<path d="M7.79289 14.7227L8.5 15.4298L8.5 15.4298L7.79289 14.7227ZM15.3721 7.14348L14.665 6.43637L14.665 6.43637L15.3721 7.14348ZM16.7864 7.14348L16.0792 7.85059L16.0792 7.85059L16.7864 7.14348ZM24.3656 14.7227L25.0727 14.0156L25.0727 14.0156L24.3656 14.7227ZM6.5 15.4298V23.9147H8.5V15.4298H6.5ZM7.08579 14.0156C6.71071 14.3907 6.5 14.8994 6.5 15.4298H8.5L8.5 15.4298L7.08579 14.0156ZM14.665 6.43637L7.08579 14.0156L8.5 15.4298L16.0792 7.85059L14.665 6.43637ZM17.4935 6.43637C16.7124 5.65532 15.4461 5.65533 14.665 6.43637L16.0792 7.85059L16.0792 7.85059L17.4935 6.43637ZM25.0727 14.0156L17.4935 6.43637L16.0792 7.85059L23.6585 15.4298L25.0727 14.0156ZM25.6585 15.4298C25.6585 14.8994 25.4478 14.3907 25.0727 14.0156L23.6585 15.4298L23.6585 15.4298H25.6585ZM25.6585 23.9147V15.4298H23.6585V23.9147H25.6585ZM23.6585 25.9147C24.7631 25.9147 25.6585 25.0193 25.6585 23.9147H23.6585V23.9147V25.9147ZM19.4715 25.9147H23.6585V23.9147H19.4715V25.9147ZM17.4715 19.5628V23.9147H19.4715V19.5628H17.4715ZM17.4715 19.5628H19.4715C19.4715 18.4582 18.5761 17.5628 17.4715 17.5628V19.5628ZM14.8519 19.5628H17.4715V17.5628H14.8519V19.5628ZM14.8519 19.5628V17.5628C13.7474 17.5628 12.8519 18.4582 12.8519 19.5628H14.8519ZM14.8519 23.9147V19.5628H12.8519V23.9147H14.8519ZM8.5 25.9147H12.8519V23.9147H8.5V25.9147ZM6.5 23.9147C6.5 25.0193 7.39543 25.9147 8.5 25.9147V23.9147H8.5H6.5ZM12.8519 23.9147L12.8519 23.9147V25.9147C13.9565 25.9147 14.8519 25.0193 14.8519 23.9147H12.8519ZM19.4715 23.9147L19.4715 23.9147H17.4715C17.4715 25.0193 18.367 25.9147 19.4715 25.9147V23.9147Z" fill="white"/>
</svg>
