<svg width="32" height="32" viewBox="0 0 32 32" fill="none" xmlns="http://www.w3.org/2000/svg">
<path d="M18.1992 14.4842C19.3122 15.5972 19.3122 17.4017 18.1992 18.5147C17.0862 19.6277 15.2817 19.6277 14.1687 18.5147C13.0557 17.4017 13.0557 15.5972 14.1687 14.4842C15.2817 13.3712 17.0862 13.3712 18.1992 14.4842" stroke="white" stroke-width="2" stroke-linecap="round" stroke-linejoin="round"/>
<path d="M8.97336 16.5C8.97336 16.8135 9.00186 17.127 9.03986 17.431L7.36364 18.742C6.99208 19.0333 6.89075 19.5537 7.12719 19.9622L8.61764 22.5409C8.85303 22.9494 9.35336 23.1215 9.79142 22.9463L11.2924 22.3436C11.589 22.2243 11.9194 22.2718 12.1854 22.4481C12.4176 22.6022 12.6583 22.7436 12.9074 22.8703C13.1924 23.0149 13.3993 23.2735 13.4447 23.5902L13.6737 25.1872C13.7402 25.6538 14.1403 26 14.6111 26H17.5846C18.0554 26 18.4554 25.6538 18.5219 25.1872L18.751 23.5912C18.7964 23.2746 19.0054 23.0138 19.2914 22.8703C19.5395 22.7457 19.7791 22.6053 20.0102 22.4523C20.2784 22.2749 20.6098 22.2243 20.9075 22.3446L22.4053 22.9463C22.8423 23.1215 23.3426 22.9494 23.5791 22.5409L25.0695 19.9622C25.306 19.5537 25.2046 19.0323 24.8331 18.742L23.1569 17.431C23.1949 17.127 23.2234 16.8135 23.2234 16.5C23.2234 16.1865 23.1949 15.873 23.1569 15.569L24.8331 14.258C25.2046 13.9667 25.306 13.4463 25.0695 13.0378L23.5791 10.4591C23.3437 10.0506 22.8434 9.8785 22.4053 10.0537L20.9075 10.6554C20.6098 10.7747 20.2784 10.7251 20.0102 10.5477C19.7791 10.3947 19.5395 10.2543 19.2914 10.1297C19.0054 9.98617 18.7964 9.72544 18.751 9.40878L18.523 7.81278C18.4565 7.34622 18.0564 7 17.5856 7H14.6121C14.1414 7 13.7413 7.34622 13.6748 7.81278L13.4447 9.41089C13.3993 9.7265 13.1914 9.98617 12.9074 10.1308C12.6583 10.2574 12.4176 10.3999 12.1854 10.553C11.9184 10.7282 11.588 10.7757 11.2914 10.6564L9.79142 10.0537C9.35336 9.8785 8.85303 10.0506 8.61764 10.4591L7.12719 13.0378C6.89075 13.4463 6.99208 13.9677 7.36364 14.258L9.03986 15.569C9.00186 15.873 8.97336 16.1865 8.97336 16.5V16.5Z" stroke="white" stroke-width="2" stroke-linecap="round" stroke-linejoin="round"/>
</svg>
