<svg width="72" height="72" viewBox="0 0 72 72" fill="none" xmlns="http://www.w3.org/2000/svg">
<path d="M15.2291 51H10.1041L21.6197 19H27.1978L38.7134 51H33.5884L24.5416 24.8125H24.2916L15.2291 51ZM16.0884 38.4687H32.7134V42.5312H16.0884V38.4687ZM49.0639 51.5313C47.5431 51.5313 46.1681 51.25 44.9389 50.6875C43.7097 50.1146 42.7358 49.2865 42.017 48.2031C41.3087 47.1198 40.9545 45.7917 40.9545 44.2187C40.9545 42.8646 41.2149 41.75 41.7358 40.875C42.2566 40 42.9597 39.3073 43.8452 38.7969C44.7306 38.2865 45.7202 37.901 46.8139 37.6406C47.9077 37.3802 49.0222 37.1823 50.1577 37.0469C51.5952 36.8802 52.7618 36.7448 53.6577 36.6406C54.5535 36.526 55.2045 36.3437 55.6108 36.0938C56.017 35.8437 56.2202 35.4375 56.2202 34.875V34.7656C56.2202 33.401 55.8347 32.3437 55.0639 31.5937C54.3035 30.8437 53.1681 30.4687 51.6577 30.4687C50.0847 30.4687 48.8452 30.8177 47.9389 31.5156C47.0431 32.2031 46.4233 32.9687 46.0795 33.8125L41.6889 32.8125C42.2097 31.3542 42.9702 30.1771 43.9702 29.2812C44.9806 28.375 46.142 27.7187 47.4545 27.3125C48.767 26.8958 50.1472 26.6875 51.5952 26.6875C52.5535 26.6875 53.5691 26.8021 54.642 27.0313C55.7254 27.25 56.7358 27.6562 57.6733 28.25C58.6212 28.8437 59.3972 29.6927 60.0014 30.7969C60.6056 31.8906 60.9077 33.3125 60.9077 35.0625V51H56.3452V47.7187H56.1577C55.8556 48.3229 55.4024 48.9167 54.7983 49.5C54.1941 50.0833 53.4181 50.5677 52.4702 50.9531C51.5222 51.3385 50.3868 51.5313 49.0639 51.5313ZM50.0795 47.7812C51.3712 47.7812 52.4754 47.526 53.392 47.0156C54.3191 46.5052 55.0222 45.8385 55.5014 45.0156C55.991 44.1823 56.2358 43.2917 56.2358 42.3438V39.25C56.0691 39.4167 55.7462 39.5729 55.267 39.7187C54.7983 39.8542 54.2618 39.974 53.6577 40.0781C53.0535 40.1719 52.4649 40.2604 51.892 40.3438C51.3191 40.4167 50.8399 40.4792 50.4545 40.5312C49.5483 40.6458 48.7202 40.8385 47.9702 41.1094C47.2306 41.3802 46.6368 41.7708 46.1889 42.2812C45.7514 42.7812 45.5327 43.4479 45.5327 44.2812C45.5327 45.4375 45.9597 46.3125 46.8139 46.9062C47.6681 47.4896 48.7566 47.7812 50.0795 47.7812Z" fill="#A6A6A6"/>
</svg>
