<svg width="123" height="123" viewBox="0 0 123 123" fill="none" xmlns="http://www.w3.org/2000/svg">
<path fill-rule="evenodd" clip-rule="evenodd" d="M60.5014 17.7244L22.9926 39.3801V82.6914L60.5014 104.347L98.0102 82.6914V39.3801L60.5014 17.7244ZM61.9007 2.37493C61.0348 1.87502 59.968 1.87502 59.1021 2.37493L10.3993 30.4935C9.5334 30.9935 9 31.9173 9 32.9171V89.1544C9 90.1542 9.5334 91.0781 10.3993 91.578L59.1021 119.697C59.968 120.196 61.0348 120.196 61.9007 119.697L110.604 91.578C111.469 91.0781 112.003 90.1542 112.003 89.1544V32.9171C112.003 31.9173 111.469 30.9935 110.604 30.4935L61.9007 2.37493Z" fill="#FF004D"/>
<path fill-rule="evenodd" clip-rule="evenodd" d="M61.498 28.4349C60.8792 28.0777 60.1168 28.0777 59.498 28.4349L32.7656 43.8689C32.1468 44.2261 31.7656 44.8864 31.7656 45.6009V76.4688C31.7656 77.1833 32.1468 77.8436 32.7656 78.2008L59.498 93.6348C60.1168 93.992 60.8792 93.992 61.498 93.6348L88.2303 78.2008C88.8491 77.8436 89.2303 77.1833 89.2303 76.4688V45.6009C89.2303 44.8864 88.8491 44.2261 88.2303 43.8689L61.498 28.4349ZM60.4986 72.9292C67.0673 72.9292 72.3923 67.6042 72.3923 61.0354C72.3923 54.4667 67.0673 49.1417 60.4986 49.1417C53.9298 49.1417 48.6048 54.4667 48.6048 61.0354C48.6048 67.6042 53.9298 72.9292 60.4986 72.9292Z" fill="#FF004D"/>
</svg>
