<svg width="200" height="200" viewBox="0 0 200 200" fill="none" xmlns="http://www.w3.org/2000/svg">
<circle cx="100.349" cy="100.347" r="64.6105" fill="white"/>
<path d="M199 100C198.81 93.1935 196.735 86.5661 192.994 80.8659C189.264 75.1762 184.017 70.6245 177.843 67.7375C180.193 61.342 180.688 54.4195 179.318 47.75C177.938 41.0699 174.714 34.9167 170.025 29.9751C165.073 25.2864 158.93 22.0728 152.25 20.682C145.58 19.3123 138.658 19.8075 132.262 22.1571C129.386 15.9722 124.845 10.7146 119.145 6.98467C113.444 3.25479 106.817 1.16858 100 1C93.1935 1.17912 86.5872 3.24425 80.8975 6.98467C75.2079 10.7251 70.6877 15.9828 67.8324 22.1571C61.4262 19.8075 54.4828 19.2912 47.7921 20.682C41.1015 22.0517 34.9377 25.2759 29.9856 29.9751C25.2969 34.9272 22.0939 41.091 20.7347 47.7605C19.3649 54.4301 19.8918 61.3525 22.2519 67.7375C16.0671 70.6245 10.7989 75.1657 7.04789 80.8554C3.29693 86.545 1.20019 93.1829 1 100C1.21073 106.817 3.29693 113.444 7.04789 119.145C10.7989 124.834 16.0671 129.386 22.2519 132.262C19.8918 138.648 19.3649 145.57 20.7347 152.239C22.1044 158.92 25.2969 165.073 29.9751 170.025C34.9272 174.693 41.0805 177.896 47.75 179.276C54.4195 180.667 61.342 180.161 67.7375 177.843C70.6245 184.017 75.1657 189.264 80.8659 193.005C86.5556 196.735 93.1935 198.81 100 199C106.817 198.831 113.444 196.756 119.145 193.026C124.845 189.296 129.386 184.028 132.262 177.853C138.626 180.372 145.602 180.972 152.313 179.581C159.014 178.191 165.168 174.872 170.014 170.025C174.861 165.178 178.191 159.025 179.581 152.313C180.972 145.602 180.372 138.626 177.843 132.262C184.017 129.375 189.264 124.834 193.005 119.134C196.735 113.444 198.81 106.807 199 100ZM85.9023 140.565L49.773 104.446L63.3966 90.728L85.228 112.559L131.588 62.0479L145.781 75.1762L85.9023 140.565Z" fill="#FF003D"/>
</svg>
