<svg width="459" height="130" viewBox="0 0 459 130" fill="none" xmlns="http://www.w3.org/2000/svg">
<path d="M147.35 101.012C142.02 101.012 137.432 99.9325 133.586 97.7734C129.763 95.5919 126.816 92.5107 124.747 88.5298C122.678 84.5265 121.643 79.7923 121.643 74.3271C121.643 68.9968 122.678 64.3188 124.747 60.293C126.816 56.2672 129.729 53.1297 133.485 50.8807C137.263 48.6316 141.694 47.5071 146.777 47.5071C150.195 47.5071 153.378 48.0581 156.324 49.1602C159.293 50.2397 161.879 51.8703 164.083 54.0518C166.31 56.2334 168.041 58.9773 169.278 62.2834C170.515 65.567 171.134 69.4129 171.134 73.821V77.7681H127.379V68.8619H157.606C157.606 66.7927 157.156 64.9598 156.256 63.3629C155.357 61.7661 154.109 60.5179 152.512 59.6183C150.937 58.6961 149.104 58.2351 147.013 58.2351C144.831 58.2351 142.897 58.7411 141.21 59.7532C139.546 60.7428 138.241 62.081 137.297 63.7678C136.352 65.4321 135.869 67.2875 135.846 69.3342V77.8018C135.846 80.3658 136.319 82.5811 137.263 84.4478C138.23 86.3145 139.591 87.7539 141.345 88.766C143.099 89.7781 145.18 90.2841 147.586 90.2841C149.183 90.2841 150.645 90.0592 151.972 89.6094C153.299 89.1596 154.435 88.4848 155.379 87.5852C156.324 86.6856 157.044 85.5836 157.538 84.2791L170.83 85.1562C170.156 88.3499 168.772 91.1387 166.681 93.5227C164.612 95.8842 161.935 97.7285 158.652 99.0554C155.391 100.36 151.623 101.012 147.35 101.012ZM176.982 100V30.9091H191.354V56.8857H191.792C192.422 55.4912 193.333 54.0743 194.525 52.6349C195.739 51.1731 197.314 49.9586 199.248 48.9915C201.205 48.0019 203.634 47.5071 206.535 47.5071C210.313 47.5071 213.799 48.4967 216.993 50.4759C220.187 52.4325 222.739 55.39 224.651 59.3484C226.563 63.2842 227.519 68.2209 227.519 74.1584C227.519 79.9384 226.585 84.8189 224.718 88.7997C222.874 92.758 220.355 95.7605 217.162 97.8072C213.99 99.8313 210.437 100.843 206.501 100.843C203.712 100.843 201.34 100.382 199.383 99.4602C197.449 98.5381 195.863 97.3799 194.626 95.9854C193.389 94.5685 192.445 93.1404 191.792 91.701H191.151V100H176.982ZM191.05 74.0909C191.05 77.1721 191.477 79.8597 192.332 82.1538C193.187 84.4478 194.424 86.2358 196.043 87.5178C197.662 88.7772 199.63 89.407 201.947 89.407C204.286 89.407 206.265 88.766 207.884 87.484C209.504 86.1796 210.729 84.3803 211.562 82.0863C212.416 79.7698 212.843 77.1046 212.843 74.0909C212.843 71.0997 212.427 68.4683 211.595 66.1967C210.763 63.9252 209.537 62.1484 207.918 60.8665C206.299 59.5845 204.308 58.9435 201.947 58.9435C199.608 58.9435 197.629 59.562 196.009 60.799C194.412 62.036 193.187 63.7902 192.332 66.0618C191.477 68.3333 191.05 71.0097 191.05 74.0909ZM256.721 101.012C251.413 101.012 246.847 99.8875 243.024 97.6385C239.223 95.367 236.299 92.2183 234.253 88.1925C232.228 84.1667 231.216 79.5336 231.216 74.2933C231.216 68.9856 232.24 64.33 234.286 60.3267C236.355 56.3009 239.29 53.1635 243.091 50.9144C246.892 48.6429 251.413 47.5071 256.653 47.5071C261.174 47.5071 265.132 48.328 268.528 49.9698C271.924 51.6116 274.612 53.9169 276.591 56.8857C278.57 59.8544 279.661 63.3404 279.863 67.3438H266.302C265.919 64.7573 264.907 62.677 263.265 61.1026C261.646 59.5058 259.521 58.7074 256.889 58.7074C254.663 58.7074 252.717 59.3146 251.053 60.5291C249.411 61.7211 248.129 63.4641 247.207 65.7582C246.285 68.0522 245.824 70.8298 245.824 74.0909C245.824 77.397 246.274 80.2083 247.173 82.5249C248.095 84.8414 249.389 86.6069 251.053 87.8214C252.717 89.0359 254.663 89.6431 256.889 89.6431C258.531 89.6431 260.004 89.3058 261.309 88.631C262.636 87.9563 263.726 86.978 264.581 85.696C265.458 84.3916 266.032 82.8285 266.302 81.0067H279.863C279.638 84.9651 278.559 88.4511 276.625 91.4648C274.713 94.4561 272.07 96.7951 268.697 98.4819C265.323 100.169 261.331 101.012 256.721 101.012ZM285.265 100V48.1818H299.198V57.223H299.737C300.682 54.0069 302.268 51.5779 304.494 49.9361C306.721 48.2718 309.285 47.4396 312.186 47.4396C312.906 47.4396 313.682 47.4846 314.514 47.5746C315.346 47.6645 316.077 47.7882 316.707 47.9457V60.6978C316.032 60.4954 315.098 60.3155 313.906 60.158C312.714 60.0006 311.624 59.9219 310.634 59.9219C308.52 59.9219 306.631 60.3829 304.966 61.305C303.325 62.2047 302.02 63.4641 301.053 65.0835C300.109 66.7028 299.636 68.5695 299.636 70.6836V100H285.265ZM333.629 100.978C330.323 100.978 327.376 100.405 324.79 99.2578C322.204 98.0883 320.157 96.3678 318.65 94.0962C317.166 91.8022 316.423 88.9459 316.423 85.5273C316.423 82.6486 316.952 80.2308 318.009 78.2741C319.066 76.3175 320.506 74.7431 322.327 73.5511C324.149 72.3591 326.218 71.4595 328.535 70.8523C330.874 70.245 333.325 69.8177 335.889 69.5703C338.903 69.2554 341.332 68.9631 343.176 68.6932C345.02 68.4008 346.358 67.9735 347.191 67.4112C348.023 66.849 348.439 66.0168 348.439 64.9148V64.7124C348.439 62.5758 347.764 60.9227 346.415 59.7532C345.088 58.5837 343.198 57.9989 340.747 57.9989C338.161 57.9989 336.103 58.5724 334.573 59.7195C333.044 60.844 332.032 62.2609 331.537 63.9702L318.245 62.8906C318.92 59.7419 320.247 57.0206 322.226 54.7266C324.205 52.41 326.758 50.6333 329.884 49.3963C333.033 48.1368 336.676 47.5071 340.814 47.5071C343.693 47.5071 346.448 47.8445 349.08 48.5192C351.734 49.1939 354.084 50.2397 356.131 51.6566C358.2 53.0735 359.83 54.8952 361.022 57.1218C362.214 59.3259 362.81 61.9685 362.81 65.0497V100H349.181V92.8143H348.776C347.944 94.4336 346.831 95.8617 345.436 97.0987C344.042 98.3132 342.366 99.2691 340.41 99.9663C338.453 100.641 336.193 100.978 333.629 100.978ZM337.745 91.06C339.859 91.06 341.725 90.6439 343.345 89.8118C344.964 88.9571 346.235 87.8101 347.157 86.3707C348.079 84.9313 348.54 83.3008 348.54 81.479V75.9801C348.09 76.2725 347.472 76.5424 346.685 76.7898C345.92 77.0147 345.054 77.2283 344.087 77.4308C343.12 77.6107 342.153 77.7794 341.186 77.9368C340.218 78.0717 339.341 78.1954 338.554 78.3079C336.867 78.5553 335.394 78.9489 334.135 79.4886C332.875 80.0284 331.897 80.7594 331.2 81.6815C330.503 82.5811 330.154 83.7056 330.154 85.055C330.154 87.0117 330.862 88.5073 332.279 89.5419C333.719 90.554 335.54 91.06 337.745 91.06ZM398.026 48.1818V58.9773H366.044V48.1818H398.026ZM373.365 100V44.4371C373.365 40.6812 374.096 37.5663 375.558 35.0923C377.042 32.6184 379.066 30.7629 381.63 29.5259C384.194 28.2889 387.107 27.6704 390.368 27.6704C392.572 27.6704 394.585 27.8391 396.406 28.1765C398.251 28.5138 399.622 28.8175 400.522 29.0874L397.958 39.8828C397.396 39.7029 396.699 39.5342 395.867 39.3768C395.057 39.2193 394.225 39.1406 393.37 39.1406C391.256 39.1406 389.783 39.6354 388.951 40.625C388.119 41.5921 387.703 42.9528 387.703 44.707V100H373.365ZM430.568 48.1818V58.9773H399.362V48.1818H430.568ZM406.446 35.767H420.818V84.0767C420.818 85.4036 421.02 86.4382 421.425 87.1804C421.83 87.9001 422.392 88.4061 423.112 88.6985C423.854 88.9909 424.709 89.1371 425.676 89.1371C426.351 89.1371 427.025 89.0808 427.7 88.9684C428.375 88.8335 428.892 88.7322 429.252 88.6648L431.512 99.359C430.792 99.5839 429.78 99.8426 428.476 100.135C427.171 100.45 425.586 100.641 423.719 100.708C420.256 100.843 417.219 100.382 414.611 99.3253C412.024 98.2682 410.011 96.6264 408.572 94.3999C407.132 92.1733 406.424 89.362 406.446 85.9659V35.767Z" fill="black"/>
<path d="M23.8114 30.5965C23.409 29.3087 24.3711 28 25.7204 28H42.5296C43.4044 28 44.1777 28.5685 44.4386 29.4035L65.6886 97.4035C66.091 98.6913 65.1289 100 63.7796 100H46.9704C46.0956 100 45.3223 99.4315 45.0614 98.5965L23.8114 30.5965Z" fill="#FF004D"/>
<path d="M57.8114 30.5965C57.409 29.3087 58.3711 28 59.7204 28H76.5296C77.4044 28 78.1777 28.5685 78.4386 29.4035L99.6886 97.4035C100.091 98.6913 99.1289 100 97.7796 100H80.9704C80.0956 100 79.3223 99.4315 79.0614 98.5965L57.8114 30.5965Z" fill="#FF004D"/>
<path d="M117.315 28H93.7022C92.3583 28 91.3968 29.299 91.7894 30.5843L103.729 69.6681C104.307 71.5618 106.991 71.5535 107.558 69.6562L119.232 30.5724C119.615 29.2897 118.654 28 117.315 28Z" fill="#FF004D"/>
</svg>
