<svg width="189" height="189" viewBox="0 0 189 189" fill="none" xmlns="http://www.w3.org/2000/svg">
<path d="M140.276 39V41.9464C136.39 42.6366 133.448 43.8577 131.451 45.6095C128.59 48.2109 125.217 52.1925 123.004 57.5543L77.98 149.45H74.9844L29.7848 56.3598C27.6797 51.582 24.8178 48.6621 23.9542 47.6003C22.6048 45.9547 20.9451 44.6673 18.975 43.7381C17.0048 42.8092 14.3465 42.2119 11 41.9464V39H54.9805V41.9464C49.9067 42.4243 47.4877 43.2737 45.9765 44.4946C44.4651 45.7158 43.7094 47.2819 43.7095 49.1929C43.7094 51.8474 44.9509 55.9883 47.4338 61.6156L80.8138 124.923L113.45 62.4119C115.987 56.2537 118.092 51.9802 118.092 49.5911C118.092 48.0516 117.309 46.5784 115.744 45.1715C114.179 43.7648 112.407 42.7694 108.683 42.1853C108.413 42.1323 107.954 42.0527 107.307 41.9464V39H140.276Z" fill="black"/>
<path d="M178.999 39V41.9464C175.113 42.6366 172.171 43.8577 170.174 45.6095C167.314 48.2109 163.94 52.1925 161.728 57.5543L122.214 149.45H119.218L77.4619 56.3598C75.3569 51.582 72.495 48.6621 71.6314 47.6003C70.282 45.9547 68.6223 44.6673 66.6521 43.7381C64.682 42.8092 62.8973 42.2119 59.5508 41.9464V39H102.658V41.9464C97.5839 42.4243 95.1649 43.2737 93.6536 44.4946C92.1423 45.7158 91.3866 47.2819 91.3866 49.1929C91.3866 51.8474 92.6281 55.9883 95.111 61.6156L125.047 124.923L152.174 62.4119C154.711 56.2537 156.815 51.9802 156.815 49.5911C156.815 48.0516 156.033 46.5784 154.467 45.1715C152.902 43.7648 150.257 42.7694 146.533 42.1853C146.263 42.1323 145.804 42.0527 145.157 41.9464V39H178.999Z" fill="black"/>
</svg>
