<svg width="149" height="36" viewBox="0 0 149 36" fill="none" xmlns="http://www.w3.org/2000/svg">
<path d="M28.5775 32.9109C27.9521 32.9109 27.3563 32.8615 26.7902 32.7628C26.224 32.6706 25.727 32.5422 25.2991 32.3776L26.484 28.5068C26.9317 28.6648 27.3398 28.7668 27.7085 28.8129C28.0837 28.859 28.403 28.8327 28.6663 28.7339C28.9362 28.6352 29.1304 28.4476 29.2489 28.1711L29.3674 27.8946L24.0352 12.0558H29.7229L32.1718 22.5623H32.3298L34.8182 12.0558H40.5454L35.0157 28.4871C34.7392 29.3231 34.3376 30.0736 33.811 30.7385C33.2909 31.4099 32.6063 31.9399 31.7571 32.3283C30.9079 32.7167 29.848 32.9109 28.5775 32.9109Z" fill="black"/>
<path d="M46.1562 7V27.2231H40.7054V7H46.1562Z" fill="black"/>
<path d="M54.8502 27.4996C53.2045 27.4996 51.7957 27.1737 50.6239 26.522C49.4521 25.8637 48.5535 24.9487 47.9282 23.7769C47.3028 22.5985 46.9901 21.2325 46.9901 19.6789C46.9901 18.1253 47.3028 16.7627 47.9282 15.5909C48.5535 14.4125 49.4521 13.4975 50.6239 12.8457C51.7957 12.1874 53.2045 11.8583 54.8502 11.8583C56.496 11.8583 57.9048 12.1874 59.0765 12.8457C60.2483 13.4975 61.1469 14.4125 61.7723 15.5909C62.3977 16.7627 62.7104 18.1253 62.7104 19.6789C62.7104 21.2325 62.3977 22.5985 61.7723 23.7769C61.1469 24.9487 60.2483 25.8637 59.0765 26.522C57.9048 27.1737 56.496 27.4996 54.8502 27.4996ZM54.8897 23.4708C55.3505 23.4708 55.7488 23.3161 56.0846 23.0067C56.4203 22.6973 56.6803 22.2562 56.8646 21.6835C57.049 21.1108 57.1411 20.4294 57.1411 19.6394C57.1411 18.8429 57.049 18.1616 56.8646 17.5954C56.6803 17.0227 56.4203 16.5816 56.0846 16.2722C55.7488 15.9628 55.3505 15.8081 54.8897 15.8081C54.4026 15.8081 53.9846 15.9628 53.6357 16.2722C53.2868 16.5816 53.0201 17.0227 52.8358 17.5954C52.6515 18.1616 52.5593 18.8429 52.5593 19.6394C52.5593 20.4294 52.6515 21.1108 52.8358 21.6835C53.0201 22.2562 53.2868 22.6973 53.6357 23.0067C53.9846 23.3161 54.4026 23.4708 54.8897 23.4708Z" fill="black"/>
<path d="M63.532 32.9109V12.0558H68.9432V14.7022H69.0617C69.2592 14.1887 69.5489 13.718 69.9307 13.2901C70.3125 12.8556 70.7865 12.51 71.3526 12.2533C71.9188 11.9899 72.5771 11.8583 73.3275 11.8583C74.3281 11.8583 75.2794 12.1249 76.1813 12.6581C77.0897 13.1914 77.827 14.0307 78.3932 15.1761C78.9659 16.3216 79.2523 17.8094 79.2523 19.6394C79.2523 21.3905 78.9791 22.8421 78.4327 23.9941C77.8929 25.1462 77.1687 26.0053 76.2603 26.5714C75.3584 27.1375 74.3676 27.4206 73.288 27.4206C72.5771 27.4206 71.9418 27.3054 71.3822 27.075C70.8293 26.838 70.3553 26.5187 69.9603 26.1172C69.5719 25.709 69.2724 25.2482 69.0617 24.7347H68.9827V32.9109H63.532ZM68.8642 19.6394C68.8642 20.3768 68.9597 21.0153 69.1506 21.5551C69.3481 22.0883 69.6246 22.5031 69.98 22.7993C70.3421 23.089 70.7733 23.2338 71.2736 23.2338C71.7739 23.2338 72.1985 23.0923 72.5474 22.8092C72.9029 22.5195 73.1728 22.1081 73.3571 21.5749C73.5481 21.0351 73.6435 20.3899 73.6435 19.6394C73.6435 18.889 73.5481 18.2471 73.3571 17.7139C73.1728 17.1741 72.9029 16.7627 72.5474 16.4796C72.1985 16.1899 71.7739 16.0451 71.2736 16.0451C70.7733 16.0451 70.3421 16.1899 69.98 16.4796C69.6246 16.7627 69.3481 17.1741 69.1506 17.7139C68.9597 18.2471 68.8642 18.889 68.8642 19.6394Z" fill="black"/>
<path d="M85.5962 18.6915V27.2231H80.1454V7H85.3987V14.9392H85.5567C85.899 13.9714 86.4684 13.2177 87.265 12.6779C88.0615 12.1315 89.0194 11.8583 90.1385 11.8583C91.2115 11.8583 92.143 12.1019 92.933 12.589C93.7295 13.0762 94.3451 13.7476 94.7795 14.6034C95.2206 15.4592 95.4378 16.4401 95.4313 17.546V27.2231H89.9805V18.6915C89.9871 17.941 89.7995 17.3518 89.4176 16.9239C89.0424 16.496 88.5059 16.2821 87.8081 16.2821C87.367 16.2821 86.9786 16.3808 86.6429 16.5783C86.3137 16.7692 86.057 17.0457 85.8727 17.4078C85.6949 17.7633 85.6028 18.1912 85.5962 18.6915Z" fill="black"/>
<path d="M104.039 27.4996C102.393 27.4996 100.984 27.1737 99.8126 26.522C98.6408 25.8637 97.7422 24.9487 97.1168 23.7769C96.4915 22.5985 96.1788 21.2325 96.1788 19.6789C96.1788 18.1253 96.4915 16.7627 97.1168 15.5909C97.7422 14.4125 98.6408 13.4975 99.8126 12.8457C100.984 12.1874 102.393 11.8583 104.039 11.8583C105.685 11.8583 107.093 12.1874 108.265 12.8457C109.437 13.4975 110.336 14.4125 110.961 15.5909C111.586 16.7627 111.899 18.1253 111.899 19.6789C111.899 21.2325 111.586 22.5985 110.961 23.7769C110.336 24.9487 109.437 25.8637 108.265 26.522C107.093 27.1737 105.685 27.4996 104.039 27.4996ZM104.078 23.4708C104.539 23.4708 104.938 23.3161 105.273 23.0067C105.609 22.6973 105.869 22.2562 106.053 21.6835C106.238 21.1108 106.33 20.4294 106.33 19.6394C106.33 18.8429 106.238 18.1616 106.053 17.5954C105.869 17.0227 105.609 16.5816 105.273 16.2722C104.938 15.9628 104.539 15.8081 104.078 15.8081C103.591 15.8081 103.173 15.9628 102.824 16.2722C102.475 16.5816 102.209 17.0227 102.025 17.5954C101.84 18.1616 101.748 18.8429 101.748 19.6394C101.748 20.4294 101.84 21.1108 102.025 21.6835C102.209 22.2562 102.475 22.6973 102.824 23.0067C103.173 23.3161 103.591 23.4708 104.078 23.4708Z" fill="black"/>
<path d="M118.171 18.6915V27.2231H112.721V12.0558H117.895V14.9392H118.053C118.382 13.978 118.961 13.2243 119.791 12.6779C120.627 12.1315 121.601 11.8583 122.714 11.8583C123.787 11.8583 124.718 12.1052 125.508 12.5989C126.305 13.086 126.92 13.7575 127.355 14.6133C127.796 15.4691 128.013 16.4467 128.006 17.546V27.2231H122.556V18.6915C122.562 17.941 122.371 17.3518 121.983 16.9239C121.601 16.496 121.068 16.2821 120.383 16.2821C119.936 16.2821 119.544 16.3808 119.208 16.5783C118.879 16.7692 118.626 17.0457 118.448 17.4078C118.27 17.7633 118.178 18.1912 118.171 18.6915Z" fill="black"/>
<path d="M136.575 27.4996C134.955 27.4996 133.56 27.1902 132.388 26.5714C131.223 25.946 130.324 25.0507 129.692 23.8855C129.067 22.7137 128.754 21.3115 128.754 19.6789C128.754 18.1122 129.07 16.7429 129.702 15.5711C130.334 14.3993 131.226 13.4876 132.378 12.8359C133.53 12.1841 134.889 11.8583 136.456 11.8583C137.602 11.8583 138.638 12.036 139.567 12.3915C140.495 12.747 141.288 13.2638 141.946 13.9418C142.605 14.6133 143.112 15.4296 143.467 16.3907C143.823 17.3518 144 18.4348 144 19.6394V20.9034H130.452V17.9015H138.984C138.977 17.467 138.866 17.0852 138.648 16.7561C138.438 16.4203 138.151 16.1603 137.789 15.976C137.434 15.7851 137.029 15.6896 136.575 15.6896C136.134 15.6896 135.729 15.7851 135.36 15.976C134.991 16.1603 134.695 16.417 134.471 16.7462C134.254 17.0754 134.139 17.4605 134.126 17.9015V21.1404C134.126 21.6275 134.228 22.062 134.432 22.4438C134.636 22.8256 134.929 23.1252 135.311 23.3424C135.693 23.5597 136.153 23.6683 136.693 23.6683C137.068 23.6683 137.411 23.6156 137.72 23.5103C138.036 23.405 138.306 23.2535 138.53 23.0561C138.754 22.852 138.918 22.6084 139.024 22.3253H144C143.829 23.3786 143.424 24.2937 142.786 25.0705C142.147 25.8407 141.301 26.4397 140.248 26.8676C139.201 27.289 137.977 27.4996 136.575 27.4996Z" fill="black"/>
<path d="M6 9.34735L14.4413 14.3651L22.8827 9.34735" stroke="#FF004D" stroke-width="5"/>
<path d="M22.8828 25.2369L14.4415 20.2191L6.00012 25.2369" stroke="#FF004D" stroke-width="5"/>
</svg>
