<svg width="252" height="63" viewBox="0 0 252 63" fill="none" xmlns="http://www.w3.org/2000/svg">
<path d="M9.60582 17.1359L9.2963 17.5325L9.69485 17.8396L24.6948 29.3961L25 29.6312L25.3052 29.3961L40.3052 17.8396L40.7037 17.5325L40.3942 17.1359L38.4874 14.6924L38.1817 14.3007L37.788 14.6039L25 24.4562L12.212 14.6039L11.8184 14.3007L11.5126 14.6924L9.60582 17.1359Z" fill="#FF006B" stroke="#FF006B"/>
<path d="M40.3942 45.8641L40.7037 45.4675L40.3052 45.1604L25.3052 33.6039L25 33.3688L24.6948 33.6039L9.69485 45.1604L9.2963 45.4675L9.60582 45.8641L11.5126 48.3076L11.8183 48.6993L12.212 48.3961L25 38.5438L37.788 48.3961L38.1816 48.6993L38.4874 48.3076L40.3942 45.8641Z" fill="#FF006B" stroke="#FF006B"/>
<path d="M49.9247 60.2273C49.1316 60.2273 48.4096 60.1622 47.7585 60.032C47.1075 59.9136 46.6222 59.7834 46.3026 59.6413L47.581 55.2912C48.5516 55.5516 49.4157 55.6641 50.1733 55.6286C50.9309 55.593 51.5997 55.3089 52.1797 54.7763C52.7715 54.2436 53.2924 53.3736 53.7422 52.1662L54.3991 50.3551L44.4205 22.7273H50.1023L57.0092 43.892H57.2933L64.2003 22.7273H69.8999L58.6605 53.6399C58.1397 55.0604 57.4768 56.2618 56.6719 57.2443C55.867 58.2386 54.9081 58.9844 53.7955 59.4815C52.6828 59.9787 51.3925 60.2273 49.9247 60.2273ZM77.1982 13.6364V50H71.8892V13.6364H77.1982ZM92.8283 50.5504C90.2715 50.5504 88.0402 49.9645 86.1344 48.7926C84.2286 47.6207 82.749 45.9813 81.6955 43.8743C80.642 41.7673 80.1152 39.3052 80.1152 36.4879C80.1152 33.6589 80.642 31.1849 81.6955 29.0661C82.749 26.9472 84.2286 25.3018 86.1344 24.13C88.0402 22.9581 90.2715 22.3722 92.8283 22.3722C95.3851 22.3722 97.6164 22.9581 99.5222 24.13C101.428 25.3018 102.908 26.9472 103.961 29.0661C105.015 31.1849 105.541 33.6589 105.541 36.4879C105.541 39.3052 105.015 41.7673 103.961 43.8743C102.908 45.9813 101.428 47.6207 99.5222 48.7926C97.6164 49.9645 95.3851 50.5504 92.8283 50.5504ZM92.8461 46.0938C94.5033 46.0938 95.8764 45.6558 96.9654 44.7798C98.0544 43.9039 98.8593 42.7379 99.3801 41.282C99.9128 39.826 100.179 38.2221 100.179 36.4702C100.179 34.7301 99.9128 33.1321 99.3801 31.6761C98.8593 30.2083 98.0544 29.0305 96.9654 28.1428C95.8764 27.255 94.5033 26.8111 92.8461 26.8111C91.177 26.8111 89.7921 27.255 88.6912 28.1428C87.6022 29.0305 86.7914 30.2083 86.2587 31.6761C85.7379 33.1321 85.4775 34.7301 85.4775 36.4702C85.4775 38.2221 85.7379 39.826 86.2587 41.282C86.7914 42.7379 87.6022 43.9039 88.6912 44.7798C89.7921 45.6558 91.177 46.0938 92.8461 46.0938ZM108.467 60.2273V22.7273H113.652V27.1484H114.096C114.404 26.5803 114.848 25.9233 115.428 25.1776C116.008 24.4318 116.813 23.7808 117.842 23.2244C118.872 22.6562 120.233 22.3722 121.926 22.3722C124.128 22.3722 126.093 22.9285 127.821 24.0412C129.549 25.1539 130.905 26.7578 131.887 28.853C132.881 30.9482 133.379 33.4695 133.379 36.4169C133.379 39.3643 132.887 41.8916 131.905 43.9986C130.922 46.0937 129.573 47.7095 127.857 48.8459C126.14 49.9704 124.181 50.5327 121.979 50.5327C120.322 50.5327 118.967 50.2545 117.913 49.6982C116.872 49.1418 116.055 48.4908 115.463 47.745C114.871 46.9993 114.415 46.3364 114.096 45.7564H113.776V60.2273H108.467ZM113.67 36.3636C113.67 38.2812 113.948 39.9621 114.504 41.4062C115.061 42.8504 115.866 43.9808 116.919 44.7976C117.973 45.6025 119.263 46.005 120.79 46.005C122.376 46.005 123.702 45.5848 124.767 44.7443C125.832 43.892 126.637 42.7379 127.182 41.282C127.738 39.826 128.016 38.1866 128.016 36.3636C128.016 34.5644 127.744 32.9486 127.2 31.5163C126.667 30.084 125.862 28.9536 124.785 28.125C123.719 27.2964 122.388 26.8821 120.79 26.8821C119.251 26.8821 117.949 27.2786 116.884 28.0717C115.83 28.8648 115.031 29.9716 114.487 31.392C113.942 32.8125 113.67 34.4697 113.67 36.3636ZM141.636 33.8068V50H136.327V13.6364H141.565V27.1662H141.902C142.541 25.6984 143.518 24.5324 144.832 23.6683C146.146 22.8042 147.862 22.3722 149.981 22.3722C151.851 22.3722 153.485 22.7569 154.881 23.5263C156.29 24.2957 157.379 25.4439 158.148 26.9709C158.93 28.486 159.32 30.38 159.32 32.6527V50H154.011V33.2919C154.011 31.2914 153.496 29.7408 152.467 28.6399C151.437 27.5272 150.004 26.9709 148.17 26.9709C146.915 26.9709 145.79 27.2372 144.796 27.7699C143.814 28.3026 143.038 29.0838 142.47 30.1136C141.914 31.1316 141.636 32.3627 141.636 33.8068ZM174.893 50.5504C172.336 50.5504 170.105 49.9645 168.199 48.7926C166.293 47.6207 164.813 45.9813 163.76 43.8743C162.706 41.7673 162.18 39.3052 162.18 36.4879C162.18 33.6589 162.706 31.1849 163.76 29.0661C164.813 26.9472 166.293 25.3018 168.199 24.13C170.105 22.9581 172.336 22.3722 174.893 22.3722C177.45 22.3722 179.681 22.9581 181.587 24.13C183.492 25.3018 184.972 26.9472 186.026 29.0661C187.079 31.1849 187.606 33.6589 187.606 36.4879C187.606 39.3052 187.079 41.7673 186.026 43.8743C184.972 45.9813 183.492 47.6207 181.587 48.7926C179.681 49.9645 177.45 50.5504 174.893 50.5504ZM174.911 46.0938C176.568 46.0938 177.941 45.6558 179.03 44.7798C180.119 43.9039 180.924 42.7379 181.445 41.282C181.977 39.826 182.244 38.2221 182.244 36.4702C182.244 34.7301 181.977 33.1321 181.445 31.6761C180.924 30.2083 180.119 29.0305 179.03 28.1428C177.941 27.255 176.568 26.8111 174.911 26.8111C173.241 26.8111 171.857 27.255 170.756 28.1428C169.667 29.0305 168.856 30.2083 168.323 31.6761C167.802 33.1321 167.542 34.7301 167.542 36.4702C167.542 38.2221 167.802 39.826 168.323 41.282C168.856 42.7379 169.667 43.9039 170.756 44.7798C171.857 45.6558 173.241 46.0938 174.911 46.0938ZM195.841 33.8068V50H190.532V22.7273H195.628V27.1662H195.965C196.592 25.7221 197.575 24.562 198.912 23.6861C200.262 22.8101 201.961 22.3722 204.008 22.3722C205.867 22.3722 207.494 22.7628 208.891 23.544C210.288 24.3134 211.371 25.4616 212.14 26.9886C212.91 28.5156 213.295 30.4036 213.295 32.6527V50H207.986V33.2919C207.986 31.3151 207.471 29.7704 206.441 28.6577C205.411 27.5331 203.997 26.9709 202.197 26.9709C200.966 26.9709 199.871 27.2372 198.912 27.7699C197.965 28.3026 197.214 29.0838 196.657 30.1136C196.113 31.1316 195.841 32.3627 195.841 33.8068ZM229.169 50.5504C226.482 50.5504 224.168 49.9763 222.226 48.8281C220.297 47.6681 218.805 46.0405 217.752 43.9453C216.71 41.8383 216.189 39.3703 216.189 36.5412C216.189 33.7476 216.71 31.2855 217.752 29.1548C218.805 27.0241 220.273 25.361 222.155 24.1655C224.049 22.9699 226.263 22.3722 228.796 22.3722C230.335 22.3722 231.826 22.6267 233.27 23.1357C234.715 23.6446 236.011 24.4437 237.159 25.5327C238.307 26.6217 239.213 28.0362 239.876 29.7763C240.538 31.5045 240.87 33.6056 240.87 36.0795V37.9616H219.19V33.9844H235.667C235.667 32.5876 235.383 31.3506 234.815 30.2734C234.247 29.1844 233.448 28.3262 232.418 27.6989C231.4 27.0715 230.205 26.7578 228.831 26.7578C227.34 26.7578 226.038 27.1248 224.925 27.8587C223.824 28.5807 222.972 29.5277 222.368 30.6996C221.777 31.8596 221.481 33.1203 221.481 34.4815V37.5888C221.481 39.4117 221.8 40.9624 222.439 42.2408C223.09 43.5192 223.996 44.4957 225.156 45.1705C226.316 45.8333 227.671 46.1648 229.222 46.1648C230.228 46.1648 231.146 46.0227 231.974 45.7386C232.803 45.4427 233.519 45.0047 234.123 44.4247C234.726 43.8447 235.188 43.1286 235.508 42.2763L240.532 43.1818C240.13 44.6615 239.408 45.9576 238.366 47.0703C237.336 48.1712 236.04 49.0294 234.478 49.6449C232.927 50.2486 231.157 50.5504 229.169 50.5504Z" fill="black"/>
</svg>
